<?xml version="1.0" standalone="no"?>
<!DOCTYPE svg PUBLIC "-//W3C//DTD SVG 1.1//EN" "http://www.w3.org/Graphics/SVG/1.1/DTD/svg11.dtd" >
<svg xmlns="http://www.w3.org/2000/svg">
<metadata>Generated by IcoMoon</metadata>
<defs>
<font id="icomoon" horiz-adv-x="512">
<font-face units-per-em="512" ascent="480" descent="-32" />
<missing-glyph horiz-adv-x="512" />
<glyph unicode="&#x20;" d="" horiz-adv-x="256" />
<glyph unicode="&#xe600;" d="M257.707-23.466c-136.534 0-249.173 110.933-249.173 249.173s112.64 249.173 249.173 249.173c136.534 0 249.173-110.933 249.173-249.173s-112.64-249.173-249.173-249.173zM257.707 466.346c-133.12 0-240.64-107.52-240.64-240.64 0-131.413 107.52-240.64 240.64-240.64s240.64 107.52 240.64 240.64c0 133.12-107.52 240.64-240.64 240.64zM344.747 90.88l-18.774 213.333h-139.946l-18.773-213.333c0 0 0 0 0 0 0-3.413 1.707-5.12 5.12-5.12h59.733c3.413 0 5.12 1.707 5.12 5.12v49.493c1.707 8.534 10.24 15.36 18.774 15.36s17.067-6.827 18.774-15.36v0-49.493c0-3.413 1.707-5.12 5.12-5.12h59.733c3.413-1.707 5.12 1.707 5.12 5.12 0-1.707 0 0 0 0v0zM339.627 363.947h-39.253c-3.413 0-5.12-1.707-5.12-5.12v-15.36h-20.48v15.36c0 3.413-1.707 5.12-5.12 5.12h-29.013c-3.413 0-5.12-1.707-5.12-5.12v-15.36h-20.48v15.36c0 3.413-1.707 5.12-5.12 5.12h-39.254c-1.707 0-3.413-3.413-3.413-5.12v-44.374h179.2v44.374c-1.707 1.707-3.413 5.12-6.827 5.12z" />
<glyph unicode="&#xe601;" d="M257.707-23.466c-136.534 0-249.173 110.933-249.173 249.173s112.64 249.173 249.173 249.173c136.534 0 249.173-110.933 249.173-249.173s-112.64-249.173-249.173-249.173zM257.707 466.346c-133.12 0-240.64-107.52-240.64-240.64 0-131.413 107.52-240.64 240.64-240.64s240.64 107.52 240.64 240.64c0 133.12-107.52 240.64-240.64 240.64zM334.507 154.026l-68.267 179.2c0 1.707-1.707-3.413-5.12-3.413 0 0 0 0 0 0l-32.427 52.906c-3.413 3.413-6.827 6.827-10.24 3.413s-3.413-5.12 0-6.827l29.013-35.84c0 0 0 0 0 0l-68.267-186.026c-27.306-1.707-47.786-13.654-47.786-39.253 0-29.014 27.306-52.906 59.733-52.906s59.733 23.894 59.733 52.906c0 29.014-25.6 39.254-56.32 39.254l61.44 170.667 63.147-174.080c-32.426 0-56.32-10.24-56.32-39.254s27.307-52.906 59.733-52.906 59.733 23.894 59.733 52.906c-1.707 25.6-22.187 35.84-47.786 39.254z" />
<glyph unicode="&#xe602;" d="M257.707-23.466c-136.534 0-249.173 110.933-249.173 249.173s112.64 249.173 249.173 249.173c136.534 0 249.173-110.933 249.173-249.173s-112.64-249.173-249.173-249.173zM257.707 466.346c-133.12 0-240.64-107.52-240.64-240.64 0-131.413 107.52-240.64 240.64-240.64s240.64 107.52 240.64 240.64c0 133.12-107.52 240.64-240.64 240.64zM256 382.72c-52.906 0-73.387-49.494-68.267-109.227 6.827-90.454 68.267-206.507 68.267-206.507s63.147 114.346 68.267 206.506c5.12 58.027-13.654 109.227-68.267 109.227zM256 268.374c-17.066 0-32.427 13.654-32.427 32.426 0 17.066 13.654 32.426 32.427 32.426 17.067 0 32.426-13.654 32.426-32.426s-15.36-32.426-32.427-32.426z" />
<glyph unicode="&#xe603;" d="M257.707-23.466c-136.534 0-249.173 110.933-249.173 249.173s112.64 249.173 249.173 249.173c136.534 0 249.173-110.933 249.173-249.173s-112.64-249.173-249.173-249.173zM257.707 466.346c-133.12 0-240.64-107.52-240.64-240.64 0-131.413 107.52-240.64 240.64-240.64s240.64 107.52 240.64 240.64c0 133.12-107.52 240.64-240.64 240.64zM250.88 363.947c-8.534 0-15.36-6.827-15.36-15.36v-95.573h-10.24v95.573c0 8.534-6.827 15.36-15.36 15.36s-15.36-6.827-15.36-15.36v-95.573h-10.24v95.573c0 8.534-6.827 15.36-15.36 15.36s-11.947-6.827-11.947-15.36v-104.106c0-17.066 13.654-30.72 30.72-30.72h10.24v-124.587c0-3.413 1.707-5.12 5.12-5.12h18.773c3.413 0 5.12 1.707 5.12 5.12v124.587h10.24c17.066 0 30.72 13.654 30.72 30.72v104.107c-1.707 8.534-8.534 15.36-17.066 15.36zM325.974 363.947c-17.067 0-30.72-13.654-30.72-30.72v-129.707c0-5.12 5.12-10.24 10.24-10.24h20.48v-104.106c0-3.413 1.707-5.12 5.12-5.12h20.48c3.413 0 5.12 1.707 5.12 5.12v244.053c-1.707 17.067-13.654 30.72-30.72 30.72z" />
<glyph unicode="&#xe604;" d="M257.707-23.466c-136.534 0-249.173 110.933-249.173 249.173s112.64 249.173 249.173 249.173c136.534 0 249.173-110.933 249.173-249.173s-112.64-249.173-249.173-249.173zM257.707 466.346c-133.12 0-240.64-107.52-240.64-240.64 0-131.413 107.52-240.64 240.64-240.64s240.64 107.52 240.64 240.64c0 133.12-107.52 240.64-240.64 240.64zM336.214 341.76c-1.707 0-5.12 0-6.827-1.707-6.827 11.947-20.48 20.48-35.84 20.48-13.654 0-25.6-5.12-32.426-15.36-3.413 1.707-8.534 3.413-13.654 3.413s-8.534-1.707-11.947-1.707c-6.827 5.12-15.36 8.534-23.893 8.534-22.186 0-40.96-18.774-40.96-40.96s18.774-40.96 40.96-40.96c8.534 0 17.066 3.413 23.893 8.534 3.413-1.707 8.534-1.707 11.947-1.707 6.827 0 11.947 1.707 17.067 5.12 8.534-6.827 17.067-11.947 29.014-11.947 10.24 0 20.48 3.413 27.306 10.24 5.12-3.413 10.24-3.413 15.36-3.413 17.067 0 30.72 13.654 30.72 30.72s-13.654 30.72-30.72 30.72zM322.56 270.080c-8.534-5.12-18.774-8.534-29.014-8.534-11.947 0-22.187 3.413-30.72 8.534-5.12-1.707-10.24-3.413-15.36-3.413-3.413 0-6.827 0-10.24 1.707-8.534-5.12-17.066-6.827-27.306-6.827s-20.48 3.413-27.306 8.534v-8.534h-25.6c-6.827 0-11.946-5.12-11.946-11.947v-98.986c0-6.827 5.12-11.947 11.947-11.947h25.6v-37.546c0-6.827 5.12-11.947 11.946-11.947h148.48c6.827 0 11.947 5.12 11.947 11.947v170.666c-5.12-3.413-11.947-3.413-18.774-3.413-5.12-1.707-8.534 0-13.654 1.707zM180.906 148.906h-23.893v98.987h25.6v-98.987zM237.226 136.96c0-3.413-3.413-6.827-6.827-6.827s-6.827 3.413-6.827 6.827v93.867c0 3.413 3.413 6.827 6.827 6.827s6.827-3.413 6.827-6.827v-93.867zM274.774 136.96c0-3.413-3.413-6.827-6.827-6.827s-6.827 3.413-6.827 6.827v93.867c0 3.413 3.413 6.827 6.827 6.827s6.827-3.413 6.827-6.827v-93.867zM312.32 136.96c0-3.413-3.413-6.827-6.827-6.827s-6.827 3.413-6.827 6.827v93.867c0 3.413 3.413 6.827 6.827 6.827s6.827-3.413 6.827-6.827v-93.867z" />
<glyph unicode="&#xe605;" d="M257.707-23.466c-136.534 0-249.173 110.933-249.173 249.173s112.64 249.173 249.173 249.173c136.534 0 249.173-110.933 249.173-249.173s-112.64-249.173-249.173-249.173zM257.707 466.346c-133.12 0-240.64-107.52-240.64-240.64 0-131.413 107.52-240.64 240.64-240.64s240.64 107.52 240.64 240.64c0 133.12-107.52 240.64-240.64 240.64zM341.334 172.8c0 0 0 0 0 0v0c58.026 0 88.747 11.947 100.694 18.774 0 3.413 0 6.827 0 10.24 0 39.254-32.426 81.92-102.4 81.92-87.040 0-93.867-39.254-100.694-68.267-5.12-23.894-8.534-40.96-44.374-40.96-23.893 0-37.547 27.307-40.96 46.080 0 1.707 0 5.12 0 5.12s8.534 0 13.654 0c42.667 0 66.56 17.066 66.56 47.786 0 29.014-13.654 39.254-13.654 40.96l-10.24 11.946v-13.654c0 0 0-27.306-11.946-27.306-3.413 0-6.827 1.707-11.947 3.413h-1.707c-3.413 3.413-6.827 3.413-10.24 3.413-10.24 0-18.774-5.12-23.893-10.24-5.12 5.12-11.946 13.654-22.186 13.654-5.12 0-10.24-1.707-15.36-5.12-3.413-1.707-6.826-3.413-8.534-3.413 0 0-1.707 0-1.707 0v0c0 0-3.413 0-5.12 5.12s-3.413 13.654-3.413 22.186v11.947c0 0-10.24-8.534-13.653-11.947-5.12-6.827-13.653-13.654-13.653-47.786 0-27.306 20.48-40.96 59.734-40.96 5.12 0 13.654 0 13.654 0s0-5.12 0-6.826c1.707-23.894 15.36-95.574 92.16-95.574h121.174c1.707 0 61.44 0 80.214 49.493-10.24-8.534-37.546-17.067-92.16-17.067 0 0 0 0 0 0-5.12 0-8.534 3.413-8.534 8.534s3.413 8.534 8.534 8.534zM324.267 189.866c-8.534 0-17.067 6.827-17.067 17.067 0 8.534 6.827 17.067 17.067 17.067 8.534 0 17.067-6.827 17.067-17.067s-8.534-17.067-17.067-17.067z" />
<glyph unicode="&#xe606;" d="M256 336c-61.75 0-112-50.25-112-112s50.25-112 112-112 112 50.25 112 112c0 61.75-50.25 112-112 112zM256 144c-44.188 0-80 35.812-80 80s35.812 80 80 80 80-35.812 80-80-35.812-80-80-80zM256 368c8.833 0 16 7.167 16 16v32c0 8.833-7.167 16-16 16s-16-7.167-16-16v-32c0-8.833 7.167-16 16-16zM256 80c-8.833 0-16-7.167-16-16v-32c0-8.833 7.167-16 16-16s16 7.167 16 16v32c0 8.833-7.167 16-16 16zM380.438 325.833l22.625 22.625c6.25 6.25 6.25 16.375 0 22.625s-16.375 6.25-22.625 0l-22.625-22.625c-6.25-6.25-6.25-16.375 0-22.625s16.375-6.25 22.625 0zM131.562 122.166l-22.625-22.625c-6.25-6.249-6.25-16.374 0-22.624s16.375-6.25 22.625 0l22.625 22.624c6.25 6.271 6.25 16.376 0 22.625-6.249 6.251-16.375 6.272-22.625 0zM112 224c0 8.833-7.167 16-16 16h-32c-8.833 0-16-7.167-16-16s7.167-16 16-16h32c8.833 0 16 7.167 16 16zM448 240h-32c-8.833 0-16-7.167-16-16s7.167-16 16-16h32c8.833 0 16 7.167 16 16s-7.167 16-16 16zM131.541 325.833c6.251-6.25 16.376-6.25 22.625 0 6.251 6.25 6.251 16.375 0 22.625l-22.625 22.625c-6.25 6.25-16.374 6.25-22.625 0-6.25-6.25-6.25-16.375 0-22.625l22.625-22.625zM380.459 122.188c-6.271 6.25-16.376 6.25-22.625 0-6.251-6.25-6.271-16.375 0-22.625l22.625-22.625c6.249-6.25 16.374-6.25 22.624 0s6.25 16.374 0 22.625l-22.624 22.625z" />
<glyph unicode="&#xe607;" d="M208 416c8.833 0 16 7.167 16 16v32c0 8.833-7.167 16-16 16s-16-7.167-16-16v-32c0-8.833 7.167-16 16-16zM332.438 373.833l22.625 22.625c6.249 6.25 6.249 16.375 0 22.625s-16.375 6.25-22.625 0l-22.625-22.625c-6.25-6.25-6.25-16.375 0-22.625s16.375-6.25 22.625 0zM16 256h32c8.833 0 16 7.167 16 16s-7.167 16-16 16h-32c-8.833 0-16-7.167-16-16s7.167-16 16-16zM352 272c0-8.833 7.167-16 16-16h32c8.833 0 16 7.167 16 16s-7.167 16-16 16h-32c-8.833 0-16-7.167-16-16zM83.541 373.833c6.251-6.25 16.376-6.25 22.625 0 6.251 6.25 6.251 16.375 0 22.625l-22.625 22.625c-6.25 6.25-16.374 6.25-22.625 0-6.25-6.25-6.25-16.375 0-22.625l22.625-22.625zM400 224c-5.312 0-10.562-0.375-15.792-1.125-16.771 22.875-39.124 40.333-64.458 51.5-1.291 60.625-50.812 109.625-111.75 109.625-61.75 0-112-50.25-112-112 0-17.438 4.334-33.75 11.5-48.438-59.625-2.437-107.5-51.374-107.5-111.562 0-61.75 50.25-112 112-112 13.688 0 27.084 2.5 39.709 7.333 28.957-25.25 65.791-39.333 104.291-39.333 38.542 0 75.333 14.083 104.291 39.333 12.625-4.833 26.021-7.333 39.709-7.333 61.75 0 112 50.25 112 112s-50.25 112-112 112zM208 352c39.812 0 72.562-29.167 78.708-67.25-10.021 2-20.249 3.25-30.708 3.25-45.938 0-88.5-19.812-118.375-53.25-5.937 11.167-9.625 23.708-9.625 37.25 0 44.188 35.812 80 80 80zM400 32c-17.125 0-32.916 5.5-45.938 14.667-23.478-28.292-58.438-46.667-98.062-46.667s-74.584 18.375-98.062 46.667c-13-9.167-28.813-14.667-45.938-14.667-44.188 0-80 35.812-80 80s35.812 80 80 80c7.75 0 15.062-1.458 22.125-3.541 2.812-0.792 5.667-1.417 8.312-2.521 4.375 8.562 9.875 16.396 15.979 23.75 23.376 28.124 58.146 46.312 97.584 46.312 10.125 0 19.834-1.458 29.25-3.709 10.562-2.499 20.542-6.291 29.834-11.291 23.291-12.375 42.416-31.542 54.457-55.063 9.397 3.875 19.668 6.063 30.459 6.063 44.188 0 80-35.812 80-80s-35.812-80-80-80z" />
<glyph unicode="&#xe608;" d="M400 416c-5.312 0-10.562-0.375-15.792-1.125-29.874 40.708-77.020 65.125-128.208 65.125s-98.312-24.417-128.208-65.125c-5.23 0.75-10.48 1.125-15.792 1.125-61.75 0-112-50.25-112-112s50.25-112 112-112c13.688 0 27.084 2.5 39.709 7.333 28.957-25.25 65.791-39.333 104.291-39.333 38.542 0 75.333 14.083 104.291 39.333 12.625-4.833 26.021-7.333 39.709-7.333 61.75 0 112 50.25 112 112s-50.25 112-112 112zM400 224c-17.125 0-32.916 5.5-45.938 14.667-23.478-28.292-58.438-46.667-98.062-46.667s-74.584 18.375-98.062 46.667c-13-9.167-28.813-14.667-45.938-14.667-44.188 0-80 35.812-80 80s35.812 80 80 80c10.812 0 21.062-2.208 30.438-6.083 21.229 41.416 63.853 70.083 113.562 70.083s92.334-28.667 113.541-70.083c9.397 3.875 19.668 6.083 30.459 6.083 44.188 0 80-35.812 80-80s-35.812-80-80-80zM225 0c0-17.688 14.312-32 32-32s32 14.312 32 32-32 64-32 64-32-46.312-32-64zM352 32c0-17.688 14.312-32 32-32s32 14.312 32 32-32 64-32 64-32-46.312-32-64zM96 96c0-17.688 14.312-32 32-32s32 14.312 32 32-32 64-32 64-32-46.312-32-64z" />
<glyph unicode="&#xe609;" d="M326.042 36.312l-18 10.376c0.542 3.124 0.958 6.311 0.958 9.624 0 3.312-0.416 6.5-1 9.625l18.042 10.396c8.417 4.917 11.291 15.729 6.458 24.104-4.876 8.479-15.667 11.375-24.125 6.5l-18.188-10.5c-4.876 4.146-10.375 7.396-16.5 9.604v20.896c0 9.771-7.938 17.688-17.688 17.688s-17.666-7.917-17.666-17.688v-20.875c-6.126-2.188-11.646-5.479-16.521-9.625l-18.146 10.5c-8.479 4.875-19.292 2-24.167-6.479-4.875-8.417-1.938-19.25 6.5-24.126l17.959-10.375c-0.584-3.146-0.959-6.334-0.959-9.646s0.375-6.5 0.959-9.624l-17.958-10.375c-8.459-4.875-11.375-15.75-6.5-24.188s15.688-11.312 24.125-6.438l18.167 10.438c4.874-4.125 10.396-7.375 16.542-9.562v-20.938c0-9.749 7.916-17.624 17.666-17.624s17.688 7.875 17.688 17.624v20.938c6.125 2.188 11.688 5.438 16.521 9.625l18.167-10.5c8.458-4.875 19.249-2 24.125 6.438 4.874 8.437 1.999 19.25-6.459 24.187zM256 38.625c-9.75 0-17.688 7.938-17.688 17.688s7.938 17.646 17.688 17.646 17.667-7.896 17.667-17.646-7.917-17.688-17.667-17.688zM474.166 83.75l-12.083 3.208c-0.291 3.833-1.208 7.479-2.896 10.979l8.771 8.771c4.125 4.125 4.104 10.792 0 14.854-4.083 4.104-10.708 4.125-14.833 0l-8.791-8.75c-3.459 1.625-7.146 2.562-10.959 2.875l-3.209 12.062c-1.499 5.583-7.25 8.938-12.874 7.438-5.604-1.521-8.875-7.271-7.417-12.875l3.209-11.896c-1.584-1.084-3.084-2.292-4.5-3.667-1.375-1.417-2.542-2.916-3.626-4.459l-11.896 3.209c-5.604 1.499-11.396-1.876-12.896-7.438-1.499-5.625 1.876-11.354 7.417-12.875l12-3.229c0.334-3.771 1.292-7.458 2.979-10.959l-8.812-8.812c-4.083-4.104-4.062-10.729 0.042-14.812 4.083-4.083 10.708-4.125 14.792-0.042l8.832 8.833c3.459-1.707 7.168-2.666 11.001-2.957l3.166-12.021c1.542-5.604 7.25-8.938 12.876-7.438 5.583 1.5 8.957 7.249 7.458 12.917l-3.209 11.896c1.5 1.062 3.042 2.25 4.459 3.625 1.375 1.396 2.542 2.938 3.624 4.479l11.917-3.209c5.604-1.5 11.375 1.854 12.854 7.417 1.5 5.585-1.812 11.334-7.396 12.876zM438.312 77.062c-4.125-4.125-10.771-4.104-14.875 0-4.062 4.062-4.104 10.729 0 14.854 4.104 4.083 10.771 4.083 14.875 0 4.063-4.104 4.063-10.791 0-14.854zM118.938 137.5l-11.875-3.188c-1.104 1.5-2.25 3.021-3.646 4.438-1.416 1.375-2.916 2.562-4.479 3.625l3.188 11.938c1.5 5.604-1.834 11.375-7.375 12.854-5.625 1.5-11.375-1.834-12.875-7.417l-3.25-12.062c-3.812-0.312-7.458-1.25-10.938-2.896l-8.812 8.771c-4.125 4.125-10.75 4.104-14.834 0-4.104-4.104-4.104-10.75 0-14.854l8.771-8.771c-1.646-3.5-2.604-7.188-2.896-10.979l-12.042-3.208c-5.625-1.542-8.959-7.25-7.458-12.875 1.521-5.583 7.271-8.875 12.896-7.417l11.875 3.23c1.062-1.604 2.25-3.105 3.688-4.501 1.375-1.375 2.875-2.604 4.438-3.625l-3.188-11.896c-1.5-5.625 1.834-11.417 7.416-12.917 5.626-1.5 11.334 1.833 12.834 7.438l3.25 12c3.812 0.312 7.5 1.271 11 2.938l8.791-8.792c4.084-4.124 10.709-4.041 14.834 0.042 4.062 4.062 4.125 10.708 0 14.812l-8.812 8.812c1.688 3.46 2.688 7.188 2.938 11.001l12.062 3.188c5.562 1.521 8.896 7.25 7.396 12.875-1.501 5.56-7.251 8.894-12.897 7.436zM88.562 109.042c-4.104-4.104-10.75-4.104-14.875 0-4.062 4.083-4.062 10.771 0 14.833 4.125 4.083 10.771 4.083 14.875 0s4.063-10.75 0-14.833zM512 304c0 61.75-50.25 112-112 112-5.312 0-10.562-0.375-15.792-1.125-29.874 40.708-77.020 65.125-128.208 65.125s-98.312-24.417-128.208-65.125c-5.23 0.75-10.48 1.125-15.792 1.125-61.75 0-112-50.25-112-112s50.25-112 112-112c13.688 0 27.084 2.5 39.709 7.333 28.957-25.25 65.791-39.333 104.291-39.333 38.542 0 75.333 14.083 104.291 39.333 12.625-4.833 26.021-7.333 39.709-7.333 61.75 0 112 50.25 112 112zM354.062 238.667c-23.478-28.292-58.438-46.667-98.062-46.667s-74.584 18.375-98.062 46.667c-13-9.167-28.813-14.667-45.938-14.667-44.188 0-80 35.812-80 80s35.812 80 80 80c10.812 0 21.062-2.208 30.438-6.083 21.229 41.416 63.853 70.083 113.562 70.083s92.334-28.667 113.541-70.083c9.397 3.875 19.668 6.083 30.459 6.083 44.188 0 80-35.812 80-80s-35.812-80-80-80c-17.125 0-32.916 5.5-45.938 14.667z" />
<glyph unicode="&#xe60a;" d="M400 416c-5.312 0-10.562-0.375-15.792-1.125-29.874 40.708-77.020 65.125-128.208 65.125s-98.312-24.417-128.208-65.125c-5.23 0.75-10.48 1.125-15.792 1.125-61.75 0-112-50.25-112-112s50.25-112 112-112c13.688 0 27.084 2.5 39.709 7.333 28.957-25.25 65.791-39.333 104.291-39.333 38.542 0 75.333 14.083 104.291 39.333 12.625-4.833 26.021-7.333 39.709-7.333 61.75 0 112 50.25 112 112s-50.25 112-112 112zM400 224c-9.709 0-19.209 1.75-28.25 5.208l-18 6.917-14.5-12.667c-23.25-20.291-52.812-31.458-83.25-31.458s-60 11.167-83.25 31.458l-14.5 12.667-18-6.917c-9-3.458-18.541-5.208-28.25-5.208-44.125 0-80 35.896-80 80s35.875 80 80 80c3.792 0 7.5-0.271 11.25-0.792l18.958-2.75 11.354 15.458c24.313 33.105 61.647 52.084 102.438 52.084 40.812 0 78.125-18.958 102.417-52.063l11.375-15.479 18.999 2.75c3.709 0.521 7.417 0.792 11.209 0.792 44.125 0 80-35.896 80-80s-35.875-80-80-80zM96 160c-17.688 0-32-14.312-32-32s14.312-32 32-32 32 14.312 32 32-14.312 32-32 32zM256 128c-17.688 0-32-14.312-32-32s14.312-32 32-32 32 14.312 32 32-14.312 32-32 32zM416 160c-17.688 0-32-14.312-32-32s14.312-32 32-32 32 14.312 32 32-14.312 32-32 32zM352 32c-17.688 0-32-14.312-32-32s14.312-32 32-32 32 14.312 32 32-14.312 32-32 32zM160 32c-17.688 0-32-14.312-32-32s14.312-32 32-32 32 14.312 32 32-14.312 32-32 32z" />
<glyph unicode="&#xe60b;" d="M192 96l32-32-32-96 96 96-32 32 32 64-96-64zM512 345.167c0 49.146-40 89.124-89.167 89.124-2.396 0-4.771-0.083-7.146-0.27-23.125 28.833-57.978 45.979-95.687 45.979-37.688 0-72.562-17.146-95.688-45.979-2.375 0.187-4.771 0.27-7.188 0.27-49.124 0-89.124-39.979-89.124-89.124 0-5.146 0.688-10.125 1.5-15.042-0.542-0.708-1.188-1.354-1.708-2.083-5.229 0.75-10.479 1.125-15.792 1.125-61.75 0-112-50.25-112-112s50.25-112 112-112c13.688 0 27.084 2.499 39.709 7.333 1.104-0.959 2.416-1.625 3.541-2.562l28.312 18.875c-9.438 6.688-18.25 14.125-25.625 23-13-9.146-28.812-14.646-45.938-14.646-44.188 0-80 35.791-80 80 0 44.167 35.812 80 80 80 10.812 0 21.062-2.209 30.438-6.083 0.562 1.083 1.25 2 1.812 3.042 5.625 10.271 12.562 19.667 20.666 28.042 23.084 23.896 55.167 39 91.084 39 49.709 0 92.334-28.667 113.541-70.083 5.646 2.333 11.668 3.833 17.875 4.833l12.584 1.25c12.334 0 23.875-3.042 34.312-8 11.312-5.417 21.021-13.375 28.646-23.208 10.5-13.521 17.042-30.334 17.042-48.792 0-44.209-35.812-80-80-80-17.125 0-32.916 5.5-45.938 14.646-14-16.875-32.438-29.562-53.146-37.562l-5.979-11.938 18.25-18.25c17.062 6.646 33.021 16.188 47.104 28.438 12.625-4.834 26.021-7.333 39.709-7.333 61.75 0 112 50.249 112 112 0 25.666-9.042 49.083-23.666 68 14.583 15.873 23.667 36.81 23.667 59.998zM465.562 307.542c-18.479 13.438-41 21.625-65.562 21.625-5.312 0-10.562-0.375-15.792-1.125-29.874 40.687-77.020 65.125-128.208 65.125-34.125 0-66.312-11.062-92.938-30.354 7.479 22.853 28.729 39.478 54.062 39.478 7.75 0 15.062-1.562 21.75-4.333 15.188 29.584 45.626 50.042 81.126 50.042s65.958-20.458 81.084-50.042c6.729 2.771 14.083 4.333 21.749 4.333 31.584 0 57.167-25.583 57.167-57.124 0-14.5-5.562-27.563-14.438-37.625z" />
<glyph unicode="&#xe60c;" d="M209.167 303.625c-3.604 3.396-7.792 6.083-12.542 8.062-4.812 1.938-9.938 2.938-15.375 2.938-5.458 0-10.584-1-15.375-2.938-4.75-1.979-8.938-4.667-12.541-8.062-3.584-3.417-6.396-7.417-8.459-12.042-2.042-4.605-3.062-9.479-3.062-14.583 0-5.125 1.021-10 3.062-14.605 2.062-4.604 4.875-8.625 8.459-12.020 3.604-3.417 7.791-6.125 12.541-8.063 4.791-1.979 9.917-2.958 15.375-2.958 5.438 0 10.562 0.979 15.375 2.958 4.75 1.938 8.938 4.646 12.542 8.063 3.583 3.395 6.396 7.417 8.416 12.020 2.042 4.605 3.104 9.479 3.104 14.605 0 5.104-1.062 9.979-3.104 14.583-2.021 4.626-4.833 8.626-8.416 12.042zM193.812 264.959c-3.438-3.417-7.625-5.125-12.562-5.125s-9.125 1.709-12.562 5.125c-3.396 3.417-5.125 7.417-5.125 12.042 0 4.75 1.729 8.833 5.125 12.145 3.438 3.333 7.625 4.979 12.562 4.979s9.125-1.646 12.562-4.979c3.375-3.312 5.104-7.395 5.104-12.145 0-4.626-1.728-8.626-5.104-12.042zM335.25 168.209c-6.062-1.73-12.083-2.583-18.062-2.583-3.938 0-7.812 0.604-11.646 1.79-3.854 1.209-7.354 3.084-10.499 5.646-3.167 2.563-5.73 5.834-7.667 9.854-1.959 4-2.958 8.917-2.958 14.709v51.458c0 5.792 0.999 10.75 2.958 14.854 1.937 4.083 4.459 7.417 7.541 9.979 3.084 2.562 6.542 4.396 10.5 5.5 3.917 1.105 7.834 1.667 11.771 1.667 5.979 0 12.124-0.875 18.437-2.688 6.313-1.791 12.188-4.999 17.668-9.604l16.896 27.146c-6.854 5.958-14.979 10.312-24.479 13.062-9.459 2.708-19.292 4.083-29.543 4.083-8.354 0-16.583-1.208-24.583-3.584-8.021-2.396-15.146-5.979-21.375-10.75-6.208-4.792-11.271-10.708-15.083-17.791-3.875-7.084-5.791-15.333-5.791-24.708v-66.042c0-9.562 1.979-17.875 5.916-24.959 3.917-7.084 9.041-12.979 15.334-17.666 6.332-4.708 13.479-8.229 21.499-10.625 8.042-2.375 16.229-3.584 24.604-3.584 10.396 0 20.271 1.542 29.688 4.604 9.375 3.083 17.312 7.354 23.812 12.792l-16.646 27.146c-6.126-4.79-12.25-8.019-18.292-9.706z" />
<glyph unicode="&#xe60d;" d="M208.531 302.729c-3.604 3.396-7.791 6.084-12.541 8.062-4.812 1.938-9.938 2.938-15.375 2.938-5.459 0-10.584-1-15.375-2.938-4.75-1.979-8.938-4.667-12.542-8.062-3.583-3.416-6.396-7.416-8.459-12.041-2.042-4.605-3.062-9.479-3.062-14.584 0-5.125 1.020-10 3.062-14.604 2.063-4.604 4.876-8.625 8.459-12.021 3.604-3.416 7.792-6.125 12.542-8.062 4.791-1.979 9.916-2.958 15.375-2.958 5.438 0 10.562 0.979 15.375 2.958 4.75 1.938 8.938 4.646 12.541 8.062 3.584 3.396 6.396 7.417 8.416 12.021 2.042 4.604 3.105 9.479 3.105 14.604 0 5.104-1.063 9.979-3.105 14.584-2.020 4.625-4.832 8.625-8.416 12.041zM193.177 264.063c-3.438-3.417-7.625-5.126-12.562-5.126s-9.125 1.709-12.562 5.126c-3.396 3.416-5.125 7.416-5.125 12.041 0 4.75 1.729 8.833 5.125 12.146 3.438 3.333 7.625 4.979 12.562 4.979s9.125-1.646 12.562-4.979c3.374-3.312 5.104-7.396 5.104-12.146 0-4.625-1.73-8.625-5.104-12.041zM370.822 279.167v31.5h-121.582v-176.396h35.063v71.938h73.979v31.479h-73.979v41.479h86.519z" />
<glyph unicode="&#xe60e;" d="M257.707-23.466c-136.534 0-249.173 110.933-249.173 249.173s112.64 249.173 249.173 249.173c136.534 0 249.173-110.933 249.173-249.173s-112.64-249.173-249.173-249.173zM257.707 466.346c-133.12 0-240.64-107.52-240.64-240.64 0-131.413 107.52-240.64 240.64-240.64s240.64 107.52 240.64 240.64c0 133.12-107.52 240.64-240.64 240.64zM431.786 282.026c-71.68 0-104.106 0-136.534 11.947 1.707-13.654 1.707-27.306 1.707-42.666 6.827 1.707 10.24 5.12 10.24 5.12 3.413 3.413 8.534 3.413 11.947 1.707 3.413-3.413 3.413-8.534 1.707-11.947 0 0-8.534-10.24-22.187-11.947 0-13.654-1.707-25.6-3.413-35.84 5.12 0 8.534 0 13.654 0 3.413 0 5.12-1.707 6.827-1.707 30.72-8.534 37.546-34.134 37.546-34.134 1.707-5.12-1.707-8.534-6.827-10.24s-8.534 1.707-10.24 6.827c0 1.707-5.12 20.48-30.72 23.894-6.827 1.707-11.947 0-15.36-1.707-6.827-23.894-17.067-39.254-29.014-49.493 8.534-8.534 17.067-15.36 29.014-18.774 8.534-3.413 17.067-3.413 23.894-3.413 87.040 0 122.88 160.426 124.587 167.253l1.707 8.534h-8.534zM385.707 217.173c-5.12-5.12-18.774-11.947-35.84-5.12-20.48 6.827-22.187 27.306-22.187 27.306 0 5.12 3.413 8.534 6.827 8.534 5.12 0 8.534-3.413 8.534-6.827 0 0 1.707-10.24 11.947-13.654s17.067 1.707 17.067 1.707c3.413 1.707 6.827 3.413 10.24 1.707 0 0 1.707-1.707 1.707-1.707 5.12-3.413 5.12-8.533 1.707-11.946zM273.067 331.52l-1.707 8.534-8.534-5.12c-56.32-37.546-78.507-35.84-182.613-35.84h-8.534l1.707-6.827c1.707-6.827 37.547-167.253 124.587-167.253 8.534 0 15.36 1.707 23.893 3.413 87.040 27.307 52.907 196.267 51.2 203.094zM138.24 237.654c-1.707-3.413-5.12-5.12-8.534-5.12 0 0-1.707 0-1.707 0-5.12 1.707-6.826 5.12-5.12 10.24 1.707 6.827 10.24 18.774 27.306 22.187 22.186 3.413 32.427-11.947 34.133-11.947 3.413-3.413 1.707-8.534-1.707-11.947s-8.534-1.707-11.947 1.707c0 0-6.827 6.827-17.066 5.12-11.946-1.707-15.36-8.534-15.36-10.24zM201.387 165.974c-3.413 0-5.12 0-8.534 0-30.72 0-44.374 22.187-44.374 23.894-1.707 3.413 0 8.534 3.413 11.947 3.413 1.707 8.534 0 11.946-3.413 0-1.707 10.24-18.774 35.84-15.36s29.013 23.894 29.013 25.6c1.707 5.12 5.12 6.827 10.24 6.827 5.12-1.707 6.827-5.12 6.827-10.24-1.707-11.947-13.654-35.84-44.374-39.253zM250.88 258.134c0 0-1.707-1.707-1.707-1.707-3.413-1.707-6.827-1.707-10.24 1.707 0 0-6.827 6.827-17.066 3.413s-11.946-11.947-11.946-13.654c0-5.12-5.12-6.827-10.24-6.827s-6.827 5.12-6.827 10.24c0 0 3.413 20.48 23.893 25.6 17.066 5.12 30.72-1.707 34.133-6.827 3.413-3.413 3.413-8.534 0-11.947z" />
<glyph unicode="&#xe60f;" d="M257.707-23.466c-136.534 0-249.173 110.933-249.173 249.173s112.64 249.173 249.173 249.173c136.534 0 249.173-110.933 249.173-249.173s-112.64-249.173-249.173-249.173zM257.707 466.346c-133.12 0-240.64-107.52-240.64-240.64 0-131.413 107.52-240.64 240.64-240.64s240.64 107.52 240.64 240.64c0 133.12-107.52 240.64-240.64 240.64zM319.147 285.44l-51.2 56.32c0 1.707 0 1.707 0 3.413 0 6.827-5.12 11.947-11.947 11.947s-11.947-5.12-11.947-11.947c0-1.707 0-1.707 0-3.413l-51.2-56.32h-69.974v-194.56h267.947v194.56h-71.68zM252.587 333.226c0 0 1.707 0 3.413 0s1.707 0 3.413 0l44.373-49.493h-93.867l42.667 49.493zM353.28 126.72h-194.56v121.173h194.56v-121.173z" />
<glyph unicode="&#xe610;" d="M257.707-23.466c-136.534 0-249.173 110.933-249.173 249.173s112.64 249.173 249.173 249.173c136.534 0 249.173-110.933 249.173-249.173s-112.64-249.173-249.173-249.173zM257.707 466.346c-133.12 0-240.64-107.52-240.64-240.64 0-131.413 107.52-240.64 240.64-240.64s240.64 107.52 240.64 240.64c0 133.12-107.52 240.64-240.64 240.64zM414.72 176.214l-153.6 92.16c1.707 5.12 5.12 8.534 11.947 13.654 8.534 5.12 18.774 13.654 18.774 32.426 0 11.947-6.827 35.84-35.84 35.84s-35.84-23.893-35.84-35.84c0-3.413 3.413-6.827 6.827-6.827s6.827 3.413 6.827 6.827c0 1.707 0 23.893 23.893 23.893s23.894-22.186 23.894-23.893c0-13.654-6.827-17.066-13.654-22.186s-15.36-10.24-17.066-22.187l-153.6-92.16c-6.826-6.827-11.947-13.654-11.947-22.187 0-13.654 10.24-23.894 23.894-23.894h291.84c13.654 0 23.894 10.24 23.894 23.894 1.707 8.534-3.413 15.36-10.24 20.48zM402.774 143.786h-293.546c-6.826 0-11.947 5.12-11.947 11.947 0 5.12 1.707 8.534 5.12 10.24l37.546 22.187 116.054 69.974 116.053-69.974 37.546-22.187c3.413-1.707 5.12-5.12 5.12-10.24 0-6.827-5.12-11.947-11.947-11.947z" />
<glyph unicode="&#xe611;" d="M257.707-23.466c-136.534 0-249.173 110.933-249.173 249.173s112.64 249.173 249.173 249.173c136.534 0 249.173-110.933 249.173-249.173s-112.64-249.173-249.173-249.173zM257.707 466.346c-133.12 0-240.64-107.52-240.64-240.64 0-131.413 107.52-240.64 240.64-240.64s240.64 107.52 240.64 240.64c0 133.12-107.52 240.64-240.64 240.64zM133.12 101.12c6.827-6.827 25.6-11.947 49.493-11.947 11.947 0 23.893 1.707 37.547 3.413l-93.867 93.866c-8.534-39.254-3.413-75.094 6.827-85.334zM380.587 348.587c-5.12 5.12-23.894 10.24-46.080 10.24-11.947 0-25.6-1.707-40.96-3.413l93.866-93.867c6.827 40.96 1.707 76.8-6.827 87.040zM180.906 299.094c-27.306-29.013-44.374-64.853-52.906-97.28l105.814-105.813c32.427 8.534 68.266 23.894 97.28 52.906s44.373 63.147 52.906 97.28l-104.106 104.107c-34.133-6.827-69.974-23.894-98.987-51.2zM300.373 283.733c1.707 1.707 3.413 1.707 5.12 1.707 3.413 0 6.827-3.413 6.827-6.827 0-1.707 0-3.413-1.707-5.12l-17.067-17.066 15.36-15.36c1.707-1.707 1.707-6.827 0-8.534s-6.827-1.707-8.534 0l-15.36 15.36-22.187-22.186 15.36-15.36c1.707-1.707 1.707-6.827 0-8.534s-6.827-1.707-8.534 0l-15.36 15.36-22.186-22.187 15.36-15.36c1.707-1.707 1.707-6.827 0-8.534s-6.827-1.707-8.534 0l-17.066 17.067-17.066-17.067c-1.707-1.707-3.413-1.707-5.12-1.707-3.413 0-6.827 3.413-6.827 6.827 0 1.707 0 3.413 1.707 5.12l17.066 17.067-15.36 15.36c-1.707 1.707-1.707 6.827 0 8.534s6.827 1.707 8.534 0l15.36-15.36 22.186 22.186-15.36 15.36c-1.707 1.707-1.707 6.827 0 8.534s6.827 1.707 8.534 0l15.36-15.36 22.187 22.187-15.36 15.36c-1.707 1.707-1.707 6.827 0 8.534s6.827 1.707 8.534 0l15.36-15.36 18.774 15.36z" />
<glyph unicode="&#xe612;" d="M257.707-23.466c-136.534 0-249.173 110.933-249.173 249.173s112.64 249.173 249.173 249.173c136.534 0 249.173-110.933 249.173-249.173s-112.64-249.173-249.173-249.173zM257.707 466.346c-133.12 0-240.64-107.52-240.64-240.64 0-131.413 107.52-240.64 240.64-240.64s240.64 107.52 240.64 240.64c0 133.12-107.52 240.64-240.64 240.64zM436.906 227.413c-1.707 47.786-155.306 47.786-155.306 47.786s-11.947 20.48-11.947 20.48c-22.186 39.254-34.133 78.507-87.040 69.974-37.547-6.827-73.386-25.6-97.28-52.907v-208.213h85.333v34.134c0 0 34.133 18.774 51.2 0 0-8.534 0-34.134 0-34.134h34.134v34.134c0 0 17.067 18.774 34.134 0 0-8.534 0-34.134 0-34.134h34.134v34.134c0 0 17.067 18.774 34.134 0 0-8.534 0-34.134 0-34.134h78.507c0 0 1.707 76.8 0 122.88zM102.4 302.506c0 0 34.133 18.774 51.2 0 0-8.534 0-27.306 0-27.306h-51.2v27.306zM153.6 189.866h-51.2v30.72c0 0 34.134 18.774 51.2 0 0-8.534 0-30.72 0-30.72zM170.667 314.453c0 0 34.133 18.774 51.2 0 0-8.534 0-39.253 0-39.253h-51.2v39.253zM238.934 189.866h-51.2v30.72c0 0 17.066 18.774 51.2 0 0-8.534 0-30.72 0-30.72zM307.2 189.866h-51.2v30.72c0 0 34.134 18.774 51.2 0 0-8.534 0-30.72 0-30.72zM392.534 189.866h-51.2v30.72c0 0 17.067 18.774 51.2 0 0-8.534 0-30.72 0-30.72z" />
<glyph unicode="&#xe613;" d="M258.048-20.736c-136.192 0-246.784 110.592-246.784 246.784s110.592 245.76 246.784 245.76c136.192 0 246.784-110.592 246.784-246.784s-111.616-245.76-246.784-245.76zM258.048 466.688c-133.12 0-241.664-108.544-241.664-241.664s108.544-241.664 241.664-241.664 241.664 108.544 241.664 241.664c0 134.144-108.544 241.664-241.664 241.664zM187.392 343.808v-203.776c0 3.072-13.312 5.12-20.48 5.12s-17.408-2.048-23.552-5.12c-18.432-8.192-27.648-25.6-18.432-37.888 5.12-7.168 15.36-12.288 27.648-12.288 7.168 0 15.36 0 23.552 3.072 13.312 8.192 28.672 28.672 28.672 28.672v168.96l136.192 18.432v-136.192c0 3.072-13.312 5.12-20.48 5.12s-15.36-2.048-23.552-5.12c-18.432-8.192-27.648-25.6-18.432-37.888 5.12-7.168 15.36-12.288 27.648-12.288 7.168 0 15.36 2.048 23.552 5.12 13.312 7.168 28.672 27.648 28.672 27.648v210.944l-171.008-22.528z" />
<glyph unicode="&#xe614;" d="M257.707-23.466c-136.534 0-249.173 110.933-249.173 249.173s112.64 249.173 249.173 249.173c136.534 0 249.173-110.933 249.173-249.173s-112.64-249.173-249.173-249.173zM257.707 466.346c-133.12 0-240.64-107.52-240.64-240.64 0-131.413 107.52-240.64 240.64-240.64s240.64 107.52 240.64 240.64c0 133.12-107.52 240.64-240.64 240.64zM80.213 322.986h349.866v-13.654h-349.866v13.654zM95.573 305.92h319.147v-18.773h-319.147v18.774zM90.454 131.84h325.974v-17.067h-325.974v17.067zM119.466 297.387h15.36v-182.613h-15.36v182.613zM204.8 297.387h15.36v-182.613h-15.36v182.613zM290.134 297.387h15.36v-182.613h-15.36v182.613zM375.466 297.387h15.36v-182.613h-15.36v182.613zM262.827 384.427l-136.534-75.094-10.24 5.12 136.534 75.094zM245.76 384.427l136.534-75.094 10.24 5.12-136.534 75.094z" />
<glyph unicode="&#xe615;" d="M257.707-23.466c-136.534 0-249.173 110.933-249.173 249.173s112.64 249.173 249.173 249.173c136.534 0 249.173-110.933 249.173-249.173s-112.64-249.173-249.173-249.173zM257.707 466.346c-133.12 0-240.64-107.52-240.64-240.64 0-131.413 107.52-240.64 240.64-240.64s240.64 107.52 240.64 240.64c0 133.12-107.52 240.64-240.64 240.64zM365.226 314.453v0c1.707 1.707 1.707 1.707 1.707 3.413 0 3.413-1.707 5.12-5.12 5.12h-49.493l10.24 13.654c0 1.707 1.707 1.707 1.707 3.413 0 3.413-1.707 5.12-5.12 5.12-1.707 0-3.413-1.707-5.12-1.707v0l-15.36-20.48h-148.48c-3.413 0-5.12-1.707-5.12-5.12 0-1.707 0-3.413 1.707-3.413v0l104.107-109.226v-92.16h-56.32c-3.413 0-5.12-1.707-5.12-5.12s1.707-5.12 5.12-5.12h122.88c3.413 0 5.12 1.707 5.12 5.12s-1.707 5.12-5.12 5.12h-56.32v92.16l104.106 109.226zM303.786 312.746h46.080l-30.72-32.426c-10.24-1.707-23.894-1.707-37.546 0 0 0 0 0 0 0l22.187 32.426zM184.32 292.267l-20.48 20.48h126.294l-18.774-23.893c-3.413 1.707-6.827 1.707-10.24 1.707s-6.827 0-8.534-1.707c-29.013 11.947-54.613 6.827-68.267 3.413zM261.12 258.134l-13.654-11.947 5.12 15.36c-1.707 1.707-1.707 3.413-1.707 6.827 0 6.827 5.12 10.24 11.947 10.24s10.24-5.12 10.24-10.24c0-6.827-5.12-10.24-11.947-10.24 0 0 0 0 0 0z" />
<glyph unicode="&#xe616;" d="M258.048-20.736c-136.192 0-246.784 110.592-246.784 246.784s110.592 245.76 246.784 245.76c136.192 0 246.784-110.592 246.784-246.784s-111.616-245.76-246.784-245.76zM258.048 466.688c-133.12 0-241.664-108.544-241.664-241.664s108.544-241.664 241.664-241.664 241.664 108.544 241.664 241.664c0 134.144-108.544 241.664-241.664 241.664zM358.4 104.192h-199.68l20.48 222.208h25.6v-68.608h17.408v68.608h68.608v-68.608h16.384v68.608h30.72l20.48-222.208zM223.232 326.4c5.12 17.408 18.432 22.528 33.792 22.528s28.672-5.12 33.792-22.528h10.24c-4.096 17.408-24.576 32.768-45.056 32.768s-37.888-15.36-43.008-32.768h10.24z" />
<glyph unicode="&#xe617;" d="M503.466 225.707c0-135.73-110.031-245.76-245.76-245.76s-245.76 110.031-245.76 245.76c0 135.73 110.031 245.76 245.76 245.76s245.76-110.031 245.76-245.76zM180.906 338.346v-226.986l174.080 112.64-174.080 114.346z" />
<glyph unicode="&#xe618;" d="M258.048-20.736c-136.192 0-246.784 110.592-246.784 246.784s110.592 245.76 246.784 245.76c136.192 0 246.784-110.592 246.784-246.784s-111.616-245.76-246.784-245.76zM258.048 466.688c-133.12 0-241.664-108.544-241.664-241.664s108.544-241.664 241.664-241.664 241.664 108.544 241.664 241.664c0 134.144-108.544 241.664-241.664 241.664zM138.24 308.992v0c3.072 0 5.12 2.048 5.12 5.12 0 2.048 0 48.128 32.768 48.128 13.312 0 20.48-8.192 27.648-22.528 7.168-13.312 17.408-30.72 43.008-30.72s35.84 17.408 44.032 32.768c8.192 13.312 13.312 20.48 23.552 20.48 27.648 0 32.768-27.648 32.768-27.648 0-3.072 3.072-5.12 7.168-5.12 3.072 0 5.12 3.072 5.12 7.168-2.048 12.288-13.312 35.84-43.008 35.84-18.432 0-25.6-13.312-33.792-27.648s-16.384-26.624-36.864-26.624c-18.432 0-25.6 12.288-32.768 25.6s-15.36 28.672-37.888 28.672c-33.792 0-43.008-38.912-43.008-58.368 1.024-1.024 3.072-5.12 6.144-5.12zM389.12 256.768c-2.048 0-3.072 0-3.072-2.048l-54.272-54.272v51.2c0 3.072-2.048 5.12-5.12 5.12-2.048 0-3.072 0-3.072-2.048l-54.272-54.272v51.2c0 3.072-2.048 5.12-5.12 5.12-2.048 0-3.072 0-3.072-2.048l-63.488-63.488h-35.84v102.4c0 3.072-2.048 5.12-5.12 5.12h-33.792c-3.072 0-5.12-2.048-5.12-5.12v-212.992c0-3.072 2.048-5.12 5.12-5.12h268.288c3.072 0 5.12 2.048 5.12 5.12v171.008c0 1.024-4.096 5.12-7.168 5.12zM186.368 121.6c-5.12 0-10.24 5.12-10.24 10.24s5.12 10.24 10.24 10.24 10.24-5.12 10.24-10.24c1.024-5.12-4.096-10.24-10.24-10.24zM256 121.6c-5.12 0-10.24 5.12-10.24 10.24s5.12 10.24 10.24 10.24 10.24-5.12 10.24-10.24c0-5.12-5.12-10.24-10.24-10.24zM325.632 121.6c-5.12 0-10.24 5.12-10.24 10.24s5.12 10.24 10.24 10.24 10.24-5.12 10.24-10.24c0-5.12-5.12-10.24-10.24-10.24z" />
<glyph unicode="&#xe619;" d="M258.048-20.736c-136.192 0-246.784 110.592-246.784 246.784s110.592 245.76 246.784 245.76c136.192 0 246.784-110.592 246.784-246.784s-111.616-245.76-246.784-245.76zM258.048 466.688c-133.12 0-241.664-108.544-241.664-241.664s108.544-241.664 241.664-241.664 241.664 108.544 241.664 241.664c0 134.144-108.544 241.664-241.664 241.664zM329.728 331.52c-43.008 0-73.728-48.128-73.728-48.128s-30.72 48.128-73.728 48.128c-38.912 0-84.992-58.368-54.272-131.072 25.6-60.416 128-119.808 128-119.808s100.352 58.368 128 119.808c28.672 72.704-15.36 131.072-54.272 131.072v0z" />
<glyph unicode="&#xe61a;" d="M257.707-23.466c-136.534 0-249.173 110.933-249.173 249.173s112.64 249.173 249.173 249.173c136.534 0 249.173-110.933 249.173-249.173s-112.64-249.173-249.173-249.173zM257.707 466.346c-133.12 0-240.64-107.52-240.64-240.64 0-131.413 107.52-240.64 240.64-240.64s240.64 107.52 240.64 240.64c0 133.12-107.52 240.64-240.64 240.64zM139.946 299.094c-3.413 0-6.827-3.413-6.827-5.12-11.947-29.013-20.48-51.2-32.427-81.92-1.707-5.12 0-10.24 5.12-11.947v0c5.12-1.707 10.24 0 11.947 5.12l22.187 59.733c0 1.707 1.707 1.707 1.707 1.707 1.707 0 3.413-1.707 1.707-1.707l-29.013-83.627 22.186-1.707v-81.92c0-6.827 5.12-13.654 13.654-13.654v0c6.827 0 13.654 5.12 13.654 13.654v81.92h6.827v-81.92c0-6.827 5.12-13.654 13.654-13.654v0c6.827 0 13.654 5.12 13.654 13.654v81.92l22.186 1.707-29.013 83.626c0 1.707 1.707 1.707 1.707 1.707 1.707 0 1.707-1.707 1.707-1.707l22.186-59.733c1.707-5.12 6.827-6.827 11.947-5.12v0c5.12 1.707 6.827 6.827 5.12 11.947-11.947 29.013-20.48 51.2-32.427 80.214 0 3.413-5.12 6.827-8.534 6.827v0c-6.827 0-47.786 1.707-52.906 0v0zM168.96 355.413c13.654 0 25.6-11.947 25.6-25.6s-11.947-25.6-25.6-25.6c-13.654 0-25.6 11.947-25.6 25.6s11.947 25.6 25.6 25.6v0zM360.106 363.947c13.654 0 25.6-11.947 25.6-25.6s-11.947-25.6-25.6-25.6c-13.654 0-25.6 11.947-25.6 25.6 0 15.36 10.24 25.6 25.6 25.6v0zM389.12 96c0-6.827-5.12-13.654-13.654-13.654v0c-6.827 0-13.654 5.12-13.654 13.654v107.52h-6.827v-107.52c0-6.827-5.12-13.654-13.654-13.654v0c-6.827 0-13.654 5.12-13.654 13.654 0 44.373 0 133.12 0 177.494 0 0 0 0 0 0 0 1.707-1.707 1.707-1.707 1.707-1.707 0-1.707-1.707-1.707-1.707s0 0 0 0v-68.267c0-5.12-5.12-10.24-10.24-10.24v0c-5.12 0-10.24 5.12-10.24 10.24 0 20.48 0 71.68 0 93.867 0 5.12 5.12 10.24 10.24 10.24h87.040c5.12 0 8.534-5.12 8.534-10.24 0-20.48 0-71.68 0-93.867 0-5.12-5.12-10.24-10.24-10.24v0c-5.12 0-10.24 5.12-10.24 10.24v68.267c0 0 0 0 0 0 0 1.707-1.707 1.707-1.707 1.707-1.707 0-1.707-1.707-1.707-1.707s0 0 0 0c3.413-44.374 3.413-133.12 3.413-177.494v0zM293.546 92.587c0-5.12-3.413-8.534-8.534-8.534v0c-5.12 0-8.534 3.413-8.534 8.534v51.2h-5.12v-51.2c0-5.12-3.413-8.534-8.534-8.534v0c-5.12 0-8.534 3.413-8.534 8.534l1.707 88.746-29.013 15.36c-11.946 6.827-3.413 20.48 8.534 15.36 8.534-5.12 18.773-10.24 27.306-15.36v0h23.894c8.534 5.12 18.774 10.24 27.306 15.36 10.24 6.827 20.48-8.534 8.534-15.36l-29.014-15.36v-88.746zM273.067 241.066c10.24 0 18.774-8.534 18.774-18.773s-8.534-18.774-18.774-18.774c-10.24 0-18.774 8.534-18.774 18.774s8.534 18.774 18.774 18.774v0z" />
<glyph unicode="&#xe61b;" d="M257.707-23.466c-136.534 0-249.173 110.933-249.173 249.173s112.64 249.173 249.173 249.173c136.534 0 249.173-110.933 249.173-249.173s-112.64-249.173-249.173-249.173zM257.707 466.346c-133.12 0-240.64-107.52-240.64-240.64 0-131.413 107.52-240.64 240.64-240.64s240.64 107.52 240.64 240.64c0 133.12-107.52 240.64-240.64 240.64zM409.6 326.4l-59.733-35.84 1.707 40.96-10.24-6.827v-40.96l-54.613-32.427c-3.413 5.12-15.36 8.534-15.36 10.24v64.853l34.134 20.48v10.24l-34.134-20.48v40.96h-17.066v-39.254l-34.133 20.48v-11.947l35.84-20.48v-63.146c0-1.707-10.24-5.12-15.36-10.24l-54.613 32.427v40.96l-10.24 5.12 1.707-40.96-58.026 35.84v-13.654l52.906-32.426-35.84-20.48 10.24-6.827 35.84 20.48 54.613-32.427c-1.707-3.413-1.707-6.827-1.707-8.534 0-3.413 0-6.827 1.707-8.534l-54.613-32.427-35.84 20.48-10.24-6.827 37.547-20.48-54.614-30.72v-15.36l59.734 35.84-1.707-40.96 10.24 6.827v40.96l54.613 32.426c3.413-5.12 15.36-8.534 15.36-10.24v-64.853l-34.133-20.48v-11.947l34.133 20.48v-39.254h17.067v39.254l34.133-20.48v11.947l-35.84 20.48v63.147c0 1.707 10.24 5.12 15.36 10.24l54.613-32.426v-40.96l10.24-6.827-1.707 40.96 58.026-34.134v13.654l-52.906 32.426 37.546 20.48-10.24 6.827-35.84-20.48-56.32 32.426c1.707 3.413 1.707 6.827 1.707 8.534 0 3.413 0 6.827-1.707 8.534l54.613 32.427 35.84-20.48 10.24 6.827-37.546 20.48 54.613 30.72v15.36z" />
<glyph unicode="&#xe61c;" d="M257.707-23.466c-136.534 0-249.173 110.933-249.173 249.173s112.64 249.173 249.173 249.173c136.534 0 249.173-110.933 249.173-249.173s-112.64-249.173-249.173-249.173zM257.707 466.346c-133.12 0-240.64-107.52-240.64-240.64 0-131.413 107.52-240.64 240.64-240.64s240.64 107.52 240.64 240.64c0 133.12-107.52 240.64-240.64 240.64zM163.84 237.654l18.773-5.12-18.774-5.12v-5.12l18.774-5.12-18.774-5.12v-5.12l27.306 6.827v5.12l-20.48 5.12 20.48 6.827v5.12l-27.306 6.827zM320.853 234.24v-20.48h5.12v15.36h6.827v-13.654h5.12v13.654h6.827v-13.654h3.413v18.774zM256 357.12c-73.387 0-133.12-59.733-133.12-133.12s59.733-133.12 133.12-133.12c73.387 0 133.12 59.733 133.12 133.12s-59.733 133.12-133.12 133.12zM256 111.36c-61.44 0-112.64 49.493-112.64 112.64 0 61.44 49.493 112.64 112.64 112.64 61.44 0 112.64-49.493 112.64-112.64 0-61.44-51.2-112.64-112.64-112.64zM264.534 235.946c-1.707 0-1.707 1.707-3.413 1.707-5.12 1.707-10.24 0-13.654-5.12-1.707-3.413-1.707-5.12-1.707-8.533s1.707-5.12 5.12-8.534c1.707 0 1.707-1.707 3.413-1.707 5.12-1.707 10.24 0 13.654 5.12 1.707 3.413 1.707 5.12 1.707 8.534s-1.707 6.827-5.12 8.534zM250.88 309.333l10.24-18.773h5.12v27.306h-5.12v-17.066l-10.24 17.066h-5.12v-27.306h5.12zM262.827 142.080c-1.707 0-3.413 1.707-5.12 1.707-3.413 0-5.12 1.707-5.12 1.707s0 1.707 0 1.707c0 0 0 1.707 1.707 1.707s1.707 1.707 3.413 1.707c1.707 0 3.413 0 3.413-1.707 0 0 1.707-1.707 1.707-3.413h5.12c0 1.707-1.707 5.12-3.413 6.827-3.413 1.707-5.12 3.413-8.534 3.413-1.707 0-3.413 0-5.12-1.707-1.707 0-3.413-1.707-3.413-3.413s-1.707-1.707-1.707-3.413c0-1.707 0-3.413 1.707-5.12s3.413-1.707 6.827-3.413c1.707 0 3.413-1.707 5.12-1.707s1.707 0 1.707-1.707c0 0 0-1.707 0-1.707 0-1.707 0-1.707-1.707-3.413-1.707 0-1.707-1.707-3.413-1.707s-3.413 0-3.413 1.707c-1.707 0-1.707 1.707-1.707 3.413h-5.12c0-3.413 1.707-5.12 3.413-6.827s5.12-1.707 8.534-1.707c1.707 0 5.12 0 5.12 1.707 1.707 0 3.413 1.707 3.413 3.413 1.707 1.707 1.707 3.413 1.707 5.12s0 3.413-1.707 5.12c-1.707 0-1.707 1.707-3.413 1.707zM314.026 311.040v0 0l-51.2-63.146c-10.24 1.707-20.48-1.707-25.6-10.24s-5.12-18.773 1.707-27.306l-40.96-71.68-1.707-3.413 3.413 1.707 52.906 66.56c10.24-1.707 20.48 1.707 25.6 10.24s5.12 18.774-1.707 27.306l37.546 69.973zM269.654 217.173c-5.12-6.827-13.654-8.534-20.48-3.413s-8.534 13.654-5.12 20.48c5.12 6.827 13.653 8.534 20.48 3.413 8.534-5.12 10.24-13.653 5.12-20.48z" />
<glyph unicode="&#xe61d;" d="M257.707-23.466c-136.534 0-249.173 110.933-249.173 249.173s112.64 249.173 249.173 249.173c136.534 0 249.173-110.933 249.173-249.173s-112.64-249.173-249.173-249.173zM257.707 466.346c-133.12 0-240.64-107.52-240.64-240.64 0-131.413 107.52-240.64 240.64-240.64s240.64 107.52 240.64 240.64c0 133.12-107.52 240.64-240.64 240.64zM141.654 159.147c-23.894 6.827-29.013 23.894-29.013 23.894 13.653-8.534 23.893 6.827 18.773 8.534-11.947 6.827-18.773 18.774-18.773 18.774 13.653-6.827 10.24 1.707 10.24 1.707s-5.12 13.654-22.186 40.96v0c-17.067-27.306-22.186-40.96-22.186-40.96s-1.707-8.534 10.24-1.707c0 0-6.826-11.947-18.773-18.774-5.12-3.413 5.12-17.067 18.773-8.534 0 0-6.826-17.067-29.014-23.894-8.533-3.413 8.533-10.24 34.133-10.24v-8.534h11.947v8.534c27.307 0 44.373 8.534 35.84 10.24zM406.187 224c-22.187 52.906-25.6 81.92-25.6 81.92h-119.466c0 0 30.72-131.413 87.040-165.546h104.106c1.707 1.707-23.894 32.426-46.080 83.626zM256 297.387v-155.306h78.507c-39.253 29.014-68.267 122.88-78.507 155.307zM163.84 189.866c15.36-10.24 23.893 6.827 18.773 8.534-11.947 8.534-18.774 22.187-18.774 22.187 13.654-8.534 10.24 1.707 10.24 1.707s-5.12 15.36-22.186 47.786v0c-15.36-30.72-20.48-46.080-20.48-46.080s-1.707-10.24 10.24-1.707c0 0-3.413-5.12-8.534-11.947-3.413-3.413-3.413-3.413-1.707-5.12s3.413-3.413 5.12-3.413c5.12-3.413 6.827-8.534 5.12-15.36-1.707-3.413-3.413-8.534-8.534-10.24 3.413-3.413 6.827-5.12 11.947-6.827 6.827-3.413 10.24-8.534 8.534-13.654 0-1.707 0-1.707 0-1.707s0 0 0-1.707c-1.707-1.707-3.413-3.413-5.12-5.12v-5.12h11.947v10.24c10.24 0 20.48 1.707 25.6 3.413-3.413-5.12-8.534-8.534-13.654-11.947h78.506v155.307c-6.827-27.307-29.013-93.867-58.026-134.827-23.893 6.827-29.013 25.6-29.013 25.6z" />
<glyph unicode="&#xe61e;" d="M257.707-23.466c-136.534 0-249.173 110.933-249.173 249.173s112.64 249.173 249.173 249.173c136.534 0 249.173-110.933 249.173-249.173s-112.64-249.173-249.173-249.173zM257.707 466.346c-133.12 0-240.64-107.52-240.64-240.64 0-131.413 107.52-240.64 240.64-240.64s240.64 107.52 240.64 240.64c0 133.12-107.52 240.64-240.64 240.64zM177.494 189.866c-15.36 0-27.306-11.947-27.306-27.307s11.947-27.307 27.306-27.307c15.36 0 27.306 11.947 27.306 27.307s-11.947 27.307-27.306 27.307zM177.494 148.906c-6.827 0-13.654 5.12-13.654 13.654 0 6.827 5.12 13.654 13.654 13.654 6.827 0 13.654-5.12 13.654-13.654 0-6.827-6.827-13.654-13.654-13.654zM334.507 189.866c-15.36 0-27.306-11.947-27.306-27.307s11.947-27.307 27.307-27.307c15.36 0 27.307 11.947 27.307 27.307s-11.947 27.307-27.307 27.307zM334.507 148.906c-6.827 0-13.654 5.12-13.654 13.654 0 6.827 5.12 13.654 13.654 13.654 6.827 0 13.654-5.12 13.654-13.654-1.707-6.827-6.827-13.654-13.654-13.654zM377.173 234.24c-1.707 1.707-1.707 1.707-1.707 1.707l-27.307 30.72h3.413c10.24 0 18.774 8.534 18.774 18.773v5.12c0 10.24-8.534 18.774-18.774 18.774h-220.16c-17.067 0-30.72-13.654-30.72-30.72v-88.747c0-17.067 13.653-30.72 30.72-30.72h11.946c0 0 0 0 0 0 0 18.774 15.36 35.84 35.84 35.84 18.773 0 35.84-15.36 35.84-35.84 0 0 0 0 0 0h85.334c0 0 0 0 0 0 0 18.774 15.36 35.84 35.84 35.84 18.774 0 35.84-15.36 35.84-35.84 0 0 0 0 0 0h11.947c15.36 0 30.72 10.24 30.72 25.6v13.654c-3.413 29.013-23.894 25.6-37.546 35.84zM165.547 230.827c0-5.12-3.413-8.534-8.534-8.534h-22.186c-5.12 0-8.534 3.413-8.534 8.534v20.48c0 5.12 3.413 8.534 8.534 8.534h22.186c5.12 0 8.534-3.413 8.534-8.534v-20.48zM220.16 230.827c0-5.12-3.413-8.534-8.534-8.534h-22.186c-5.12 0-8.534 3.413-8.534 8.534v20.48c0 5.12 3.413 8.534 8.534 8.534h22.186c5.12 0 8.534-3.413 8.534-8.534v-20.48zM290.134 177.92c0-3.413-3.413-6.827-8.534-6.827h-29.013c-5.12 0-8.534 3.413-8.534 6.827v73.387c0 3.413 3.413 6.827 8.534 6.827h29.013c5.12 0 8.534-3.413 8.534-6.827v-73.387zM353.28 230.827c0-5.12-3.413-8.534-8.534-8.534h-22.187c-5.12 0-8.534 3.413-8.534 8.534v20.48c0 5.12 3.413 8.534 8.534 8.534h8.534l22.187-25.6v-3.413z" />
<glyph unicode="&#xe61f;" d="M163.84 352l-3.413 6.827-18.773-5.12c-1.707 0-1.707-1.707-1.707-3.413s1.707-1.707 3.413-1.707l20.48 3.413zM264.534 128.426l47.786-49.493 3.413 15.36c51.2 0 80.214 44.373 81.92 100.693-3.413-46.080-35.84-66.56-73.387-64.853l3.413 17.067-63.147-18.774zM235.52 106.24v0c-13.654 5.12-25.6 13.654-42.667 23.894-20.48 20.48-34.133 51.2-34.133 83.626 0 17.066 3.413 32.427 10.24 47.786 5.12 1.707 11.946 3.413 17.066 5.12l3.413 1.707 3.413 3.413c15.36 15.36 29.013 30.72 40.96 49.493l25.6 6.827c5.12 1.707 10.24 3.413 15.36 6.827 1.707 0 3.413 0 5.12 0 6.827 0 13.654 0 20.48-1.707s15.36-3.413 22.187-6.827c15.36-6.827 29.014-15.36 40.96-27.307 20.48-20.48 34.133-51.2 34.133-83.626 0-3.413 0-5.12 0-6.827h-11.947c0-8.534-3.413-17.067-6.827-23.894 1.707 13.654 3.413 32.426 1.707 40.96-1.707 18.773-10.24 37.547-20.48 51.2-1.707-3.413-5.12-6.827-5.12-8.534-1.707-3.413-5.12 0-6.827 1.707s-10.24 1.707-11.947 1.707c-1.707 0-6.827 6.827-10.24 10.24-1.707 3.413-5.12-5.12-6.827-6.827s-5.12-6.827-8.534-6.827c-5.12 0-6.827 13.654-6.827 13.654l3.413-3.413c0 0 1.707 5.12 1.707 6.827 0 3.413 1.707 1.707 3.413 1.707s3.413 6.827 5.12 10.24c0 1.707 5.12 5.12 8.534 8.534-15.36 8.534-30.72 11.947-47.786 11.947-3.413 0-8.534 0-11.947 0 0-3.413 0-6.827 0-11.947 0-10.24-3.413-5.12-8.534-8.534s-6.827-6.827-11.947-8.534c-5.12-1.707-17.066-15.36-18.774-18.774s-5.12-11.947-8.534-13.654c-3.413-1.707 0 8.534-10.24 10.24s-10.24-13.654-11.947-18.774c-1.707-6.827 6.827-1.707 11.947 0s1.707-5.12 1.707-6.827c0-1.707 1.707-8.534 1.707-11.947s3.413-5.12 5.12-6.827c5.12 3.413 10.24 8.534 17.066 5.12 8.534-3.413 20.48-8.534 25.6-13.654s17.067-10.24 20.48-11.947c1.707-3.413 11.947-5.12 10.24-8.534s-3.413-5.12-6.827-11.947c-3.413-6.827-13.654-27.306-22.187-34.133-5.12-5.12-6.827-6.827-8.534-8.534l-6.827-13.654c0-1.707 0-1.707-1.707-1.707s-5.12 3.413-5.12 3.413c0 0-3.413 11.947-3.413 17.067s-3.413 17.067-3.413 20.48c0 3.413-1.707 11.947-5.12 15.36-5.12 3.413-11.947 11.947-11.947 15.36-1.707 3.413-5.12 15.36 0 22.187 0 0 1.707 1.707 1.707 1.707-1.707 0-5.12 1.707-6.827 3.413-5.12 1.707-5.12 5.12-5.12 6.827s-5.12 3.413-10.24 6.827c-5.12 3.413-3.413 8.534-3.413 11.947s0 6.827 1.707 13.654c-6.827-13.654-11.947-30.72-11.947-47.786 0-27.306 11.947-52.906 30.72-71.68 11.946-11.947 27.306-20.48 44.374-25.6l20.48-20.48c-6.827 1.707-11.947 1.707-18.774 3.413s-13.654 3.413-22.186 6.827zM303.786 234.24c0 0 6.827-11.947 10.24-15.36s25.6 1.707 29.014 0c3.413 0 0-6.827 5.12-15.36 3.413-8.534 0-47.786 6.827-49.493 5.12-1.707 18.774 20.48 22.187 25.6s8.534 47.786 8.534 54.613c0 6.827-20.48 25.6-22.187 27.307s-13.654 1.707-17.067 1.707c-3.413 1.707-8.534 5.12-10.24 5.12s-5.12 0-8.534 0c-3.413 0-6.827-1.707-10.24-3.413-1.707-1.707-3.413-5.12-5.12-6.827s-3.413-3.414-5.12-6.827c-3.413-3.413-1.707-5.12 0-10.24-1.707-3.413-3.413-6.827-3.413-6.827v0zM143.36 334.933l-18.773 17.067-17.067-3.413c3.413-5.12 15.36-42.666 29.013-39.254l39.254 10.24-5.12-42.666c8.534 1.707 10.24 3.413 18.773 5.12 18.774 18.774 35.84 37.546 47.786 63.147l6.827 1.707c-1.707-3.413-5.12-10.24-5.12-11.947l23.894 5.12c6.827 1.707 25.6 11.947 23.894 18.774v0c-1.707 6.827-22.187 6.827-29.014 5.12l-17.066-3.413-10.24-3.413-63.147-15.36-23.893-6.827zM174.080 348.587l-8.534 15.36 20.48 5.12 39.254-8.534-51.2-11.947zM162.133 288.853l-35.84-8.534c-1.707 0-3.413 0-3.413 1.707s0 3.413 1.707 3.413l37.547 10.24v-6.827zM162.133 273.494l-34.133-8.534c-1.707 0-3.413 0-3.413 1.707s0 3.413 1.707 3.413l37.547 10.24-1.707-6.827zM163.84 302.506l-37.547-10.24c-1.707 0-3.413 0-3.413 1.707s0 3.413 1.707 3.413l40.96 11.947-1.707-6.827z" />
<glyph unicode="&#xe620;" d="M257.707-23.466c-136.534 0-249.173 110.933-249.173 249.173s112.64 249.173 249.173 249.173c136.534 0 249.173-110.933 249.173-249.173s-112.64-249.173-249.173-249.173zM257.707 466.346c-133.12 0-240.64-107.52-240.64-240.64 0-131.413 107.52-240.64 240.64-240.64s240.64 107.52 240.64 240.64c0 133.12-107.52 240.64-240.64 240.64zM312.32 336.64c0-15.081-12.226-27.307-27.306-27.307s-27.307 12.226-27.307 27.307c0 15.081 12.226 27.307 27.307 27.307s27.307-12.226 27.307-27.307zM360.106 311.040c-1.707 1.707-5.12 0-5.12-1.707l-25.6-51.2-34.134-3.413v5.12c0 10.24 0 30.72-5.12 37.546-3.413 6.827-18.774 13.654-30.72 18.774-10.24 0-20.48-3.413-25.6-15.36l-6.827-15.36-32.427-66.56c-1.707-1.707-3.413-5.12-1.707-8.534 1.707-1.707 3.413-3.413 5.12-3.413l-47.786-92.16c-5.12-8.534-1.707-18.774 5.12-22.187s17.066 0 22.186 8.534l49.494 95.573c0 0 0 0 0 0l39.253-37.546 3.413-25.6-17.066-35.84c-1.707-1.707 0-5.12 1.707-5.12 1.706-1.707 5.12 0 5.12 1.707l11.947 23.894 1.707-17.067c1.707-6.827 8.534-11.947 17.067-11.947v0c8.534 1.707 13.654 8.534 13.654 15.36l-6.827 64.853c0 0 0 1.707 0 1.707l29.014 59.733 10.24 1.707c6.827 1.707 11.947 6.827 11.947 15.36v0c0 5.12-3.413 8.534-8.534 10.24l23.894 49.493c0 0-1.707 1.707-3.413 3.413zM291.84 176.214l-35.84 34.133 13.653 29.013v-3.413c0-3.413 1.707-6.827 5.12-8.534s6.827-3.414 10.24-3.414l30.72 3.413-23.894-51.2zM175.786 258.134l6.827-3.414c10.24-5.12 23.893-1.707 29.013 8.534l27.306 51.2c5.12 10.24 1.707 23.893-8.534 29.013l-6.827 3.413c-10.24 5.12-23.893 1.707-29.013-8.534l-27.306-51.2c-6.827-10.24-1.707-22.186 8.534-29.013z" />
<glyph unicode="&#xe621;" d="M257.707-23.466c-136.534 0-249.173 110.933-249.173 249.173s112.64 249.173 249.173 249.173c136.534 0 249.173-110.933 249.173-249.173s-112.64-249.173-249.173-249.173zM257.707 466.346c-133.12 0-240.64-107.52-240.64-240.64 0-131.413 107.52-240.64 240.64-240.64s240.64 107.52 240.64 240.64c0 133.12-107.52 240.64-240.64 240.64zM252.587 157.44c-25.6-63.147-105.814-23.894-150.186-8.534 15.36 8.534 34.133 22.187 52.906 30.72-5.12 5.12-10.24 11.947-15.36 17.067-6.827 6.827-11.947 15.36-17.067 22.187-3.413 5.12-6.826 8.534-10.24 13.654-1.707 1.707-1.707 6.827 1.707 8.534 1.707 0 3.413 0 5.12 0 5.12 0 10.24 0 17.066 0 10.24 0 23.893 0 35.84-1.707 0 3.413-1.707 5.12-1.707 8.534-1.707 8.534-3.413 18.774-5.12 27.307-1.707 5.12-1.707 11.946-3.413 17.066 0 3.413 1.707 6.827 5.12 6.827 1.707 0 3.413 0 3.413 0v0c5.12-1.707 8.534-5.12 15.36-8.534 11.947-6.827 27.306-15.36 39.254-23.893 1.707 5.12 5.12 11.946 6.827 17.066 3.413 8.534 8.534 17.066 11.946 25.6 3.413 5.12 5.12 11.947 6.827 15.36 1.707 0 5.12 1.707 6.827 0 1.707 0 1.707-1.707 3.413-3.413 1.707-3.413 5.12-8.534 6.827-15.36 3.413-6.827 6.827-15.36 11.947-25.6 1.707-5.12 5.12-11.946 6.827-17.066 13.654 8.534 27.307 17.066 39.254 23.893 5.12 3.413 10.24 5.12 15.36 8.534v0c1.707 0 1.707 1.707 3.413 0 3.413 0 5.12-3.413 5.12-6.827-1.707-5.12-1.707-10.24-3.413-17.066-1.707-8.534-3.413-18.774-5.12-27.306 0-3.413-1.707-5.12-1.707-8.534 11.947 0 23.894 1.707 35.84 1.707 5.12 0 11.947 0 17.067 0 1.707 0 3.413 0 3.413-1.707 1.707-1.707 3.413-5.12 1.707-8.534-3.413-3.414-6.827-8.533-10.24-13.653-5.12-6.827-10.24-13.654-17.067-22.187-5.12-5.12-8.534-10.24-13.654-15.36 18.774-8.534 37.546-20.48 52.906-29.014-44.373-15.36-122.88-56.32-150.186 5.12-1.707 0-1.707 1.707-3.413 1.707-1.707 3.413-1.707 3.413-3.413 3.413v0zM337.92 227.413c-8.534-34.134-23.894-64.853-58.026-68.267 30.72-10.24 59.733 17.067 81.92 44.373 5.12 6.827 11.947 15.36 17.067 22.186l3.413 3.413h-5.12c-11.947 0-25.6 0-39.253-1.707v0zM291.84 253.013c10.24-30.72 10.24-63.147-15.36-83.626 35.84 3.413 49.493 42.666 56.32 78.507 1.707 10.24 3.413 18.774 5.12 27.307 0 1.707 0 3.413 0 5.12-1.707 0-3.413-1.707-5.12-1.707-13.654-6.827-29.014-15.36-40.96-25.6v0zM232.107 159.147c-34.133 3.413-49.494 34.133-58.026 68.267-13.654 1.707-27.306 1.707-39.254 1.707h-5.12c1.707-1.707 1.707-3.413 3.413-3.413 5.12-6.827 10.24-13.654 17.066-22.187 22.186-27.307 51.2-54.613 81.92-44.373v0zM237.226 171.094c-27.306 20.48-25.6 51.2-15.36 83.626-13.654 10.24-29.013 17.066-40.96 25.6-1.707 0-3.413 1.707-5.12 1.707 0-1.707 0-3.413 0-5.12 1.707-8.534 3.413-17.066 5.12-27.306 6.827-37.547 20.48-75.094 56.32-78.506v0zM242.346 276.906c-17.066-39.254-29.013-83.627 13.654-105.814 3.413 1.707 8.534 5.12 11.947 6.827 1.707 1.707 3.413 3.413 6.827 5.12 22.187 23.894 10.24 59.733-3.413 92.16-3.413 8.534-8.534 17.067-11.947 23.894 0 1.707-1.707 3.413-1.707 5.12 0-1.707-1.707-3.413-1.707-5.12-6.827-5.12-10.24-13.654-13.654-22.187z" />
<glyph unicode="&#xe622;" d="M257.707-23.466c-136.534 0-249.173 110.933-249.173 249.173s112.64 249.173 249.173 249.173c136.534 0 249.173-110.933 249.173-249.173s-112.64-249.173-249.173-249.173zM257.707 466.346c-133.12 0-240.64-107.52-240.64-240.64 0-131.413 107.52-240.64 240.64-240.64s240.64 107.52 240.64 240.64c0 133.12-107.52 240.64-240.64 240.64zM414.72 203.52l-51.2 90.454c-3.413 6.827-11.947 11.947-20.48 11.947-3.413 0-8.534-1.707-11.947-3.413l-158.72-92.16c-10.24-6.827-15.36-20.48-8.534-30.72l51.2-90.454c3.413-6.827 11.947-11.947 20.48-11.947 3.413 0 8.534 1.707 11.946 3.413l158.72 92.16c10.24 5.12 15.36 20.48 8.534 30.72zM336.214 249.6l6.827-11.946-25.6-13.654-6.827 11.947 25.6 13.654zM215.040 179.627l83.626 47.786 6.827-11.947-83.626-47.786-6.827 11.947zM238.934 140.373l-6.827 11.947 44.374 25.6 6.827-11.947-44.374-25.6zM295.253 172.8l-6.827 11.947 63.147 37.546 6.827-11.947-63.147-37.546zM163.84 222.293v0l32.427 56.32 11.947-6.827-18.774-34.133 29.013 17.066 27.306 46.080 11.947-6.827-13.654-25.6 71.68 40.96c-1.707 1.707-3.413 3.413-6.827 5.12l-90.454 51.2c-6.827 5.12-15.36 3.413-23.893 0-3.413-1.707-6.827-5.12-8.534-8.534l-92.16-158.72c-6.826-10.24-3.413-25.6 8.534-30.72l69.974-39.254-23.893 42.666c-8.534 17.067-1.707 40.96 15.36 51.2zM220.16 316.16l11.946-6.827-13.654-25.6-13.654 8.534 15.36 23.893z" />
</font>
</defs>
</svg>
