<svg version="1.1" id="Ebene_1" xmlns="http://www.w3.org/2000/svg" xmlns:xlink="http://www.w3.org/1999/xlink" x="0px" y="0px"
	 width="128px" height="128px" viewBox="0 0 128 128" style="enable-background:new 0 0 128 128;" xml:space="preserve">
<g>
	<path fill="#248522" d="M68.662,54.912c0-3.835,3.124-6.96,6.961-6.96c3.84,0,6.961,3.121,6.961,6.96c0,1.106-0.895,2-2,2s-2-0.894-2-2
		c0-1.632-1.328-2.96-2.961-2.96s-2.96,1.328-2.96,2.96c0,1.106-0.896,2-2.001,2S68.662,56.018,68.662,54.912L68.662,54.912z
		 M46.482,54.893c0-3.84,3.125-6.961,6.965-6.961c3.836,0,6.961,3.121,6.961,6.961c0,1.102-0.898,2-2,2c-1.105,0-2-0.898-2-2
		c0-1.633-1.328-2.961-2.961-2.961c-1.637,0-2.965,1.328-2.965,2.961c0,1.102-0.895,2-2,2S46.482,55.994,46.482,54.893
		L46.482,54.893z M45.596,72.771c-0.508-1.223,0.07-2.629,1.297-3.137c0.301-0.125,0.613-0.184,0.918-0.184
		c0.941,0,1.836,0.555,2.219,1.48c2.223,5.348,7.723,8.801,14.02,8.801c6.152,0,11.621-3.457,13.938-8.809
		c0.523-1.216,1.938-1.777,3.152-1.25c1.219,0.527,1.777,1.938,1.25,3.155c-3.074,7.11-10.273,11.704-18.34,11.704
		C55.807,84.533,48.564,79.915,45.596,72.771L45.596,72.771z"/>
	<g>
		<path fill="#248522" d="M90.893,27.521c5.286,0,9.586,4.298,9.586,9.582v53.789c0,5.286-4.3,9.586-9.586,9.586H37.104
			c-5.284,0-9.582-4.3-9.582-9.586V37.104c0-5.284,4.298-9.582,9.582-9.582H90.893 M90.893,22.521H37.104
			c-8.039,0-14.582,6.543-14.582,14.582v53.789c0,8.043,6.543,14.586,14.582,14.586h53.789c8.043,0,14.586-6.543,14.586-14.586
			V37.104C105.479,29.064,98.936,22.521,90.893,22.521L90.893,22.521z"/>
	</g>
</g>
</svg>