<?xml version="1.0" encoding="utf-8"?>
<!-- Generator: Adobe Illustrator 14.0.0, SVG Export Plug-In . SVG Version: 6.00 Build 43363)  -->
<!DOCTYPE svg PUBLIC "-//W3C//DTD SVG 1.1//EN" "http://www.w3.org/Graphics/SVG/1.1/DTD/svg11.dtd">
<svg version="1.1" id="icon-cart" xmlns="http://www.w3.org/2000/svg" xmlns:xlink="http://www.w3.org/1999/xlink" x="0px" y="0px"
	 width="35px" height="40px" viewBox="0 0 40 40" enable-background="new 0 0 40 40" xml:space="preserve">
<g>
	<rect x="0.001" fill="transparent" width="39.998" height="40"/>
	<g>
		<path fill="#ffffff" d="M8.274,13.265c-0.184-0.183-0.273-0.399-0.273-0.649c0-0.249,0.09-0.466,0.273-0.648s0.4-0.274,0.65-0.274
			h3.691c0.154,0,0.289,0.031,0.41,0.094s0.217,0.137,0.289,0.224s0.135,0.205,0.188,0.354c0.053,0.149,0.088,0.276,0.109,0.383
			c0.018,0.105,0.045,0.247,0.078,0.425c0.033,0.179,0.055,0.301,0.064,0.367h17.321c0.25,0,0.467,0.092,0.648,0.274
			c0.184,0.184,0.275,0.399,0.275,0.649v7.385c0,0.23-0.078,0.435-0.232,0.612c-0.154,0.179-0.352,0.282-0.59,0.311l-15.057,1.76
			c0.01,0.067,0.031,0.171,0.066,0.31c0.031,0.14,0.062,0.267,0.084,0.383c0.025,0.115,0.037,0.221,0.037,0.316
			c0,0.154-0.115,0.462-0.346,0.924H29.23c0.249,0,0.464,0.092,0.647,0.273c0.184,0.184,0.273,0.399,0.273,0.649
			s-0.09,0.467-0.273,0.649s-0.398,0.273-0.647,0.273H14.461c-0.25,0-0.467-0.091-0.648-0.273c-0.184-0.183-0.275-0.399-0.275-0.649
			c0-0.135,0.053-0.324,0.158-0.57c0.107-0.244,0.248-0.531,0.428-0.857c0.176-0.327,0.275-0.51,0.295-0.548l-2.553-11.871H8.925
			C8.675,13.538,8.458,13.447,8.274,13.265z M14.079,31.459c-0.359-0.36-0.541-0.796-0.541-1.305c0-0.51,0.182-0.945,0.541-1.306
			c0.361-0.36,0.795-0.541,1.307-0.541c0.51,0,0.943,0.181,1.305,0.541s0.539,0.796,0.539,1.306c0,0.509-0.178,0.944-0.539,1.305
			C16.329,31.82,15.895,32,15.385,32C14.874,32,14.44,31.82,14.079,31.459z M27.002,31.459c-0.359-0.36-0.541-0.796-0.541-1.305
			c0-0.51,0.182-0.945,0.541-1.306s0.795-0.541,1.305-0.541s0.945,0.181,1.306,0.541c0.359,0.36,0.539,0.796,0.539,1.306
			c0,0.509-0.18,0.944-0.539,1.305C29.252,31.82,28.816,32,28.307,32S27.361,31.82,27.002,31.459z"/>
	</g>
</g>
</svg>
