<?xml version="1.0" encoding="utf-8"?>
<!-- Generator: Adobe Illustrator 14.0.0, SVG Export Plug-In . SVG Version: 6.00 Build 43363)  -->
<!DOCTYPE svg PUBLIC "-//W3C//DTD SVG 1.1//EN" "http://www.w3.org/Graphics/SVG/1.1/DTD/svg11.dtd">
<svg version="1.1" id="icon-menu" xmlns="http://www.w3.org/2000/svg" xmlns:xlink="http://www.w3.org/1999/xlink" x="0px" y="0px"
	 width="40px" height="40px" viewBox="0 0 40 40" enable-background="new 0 0 40 40" xml:space="preserve">
<g>
	<path fill="#4B4B4B" d="M14,15.3c-0.717,0-1.3-0.583-1.3-1.3s0.583-1.3,1.3-1.3h12c0.717,0,1.3,0.583,1.3,1.3s-0.583,1.3-1.3,1.3
		H14z"/>
	<path fill="#4B4B4B" d="M14,21.3c-0.717,0-1.3-0.583-1.3-1.3s0.583-1.3,1.3-1.3h12c0.717,0,1.3,0.583,1.3,1.3s-0.583,1.3-1.3,1.3
		H14z"/>
	<path fill="#4B4B4B" d="M14,27.3c-0.717,0-1.3-0.583-1.3-1.3s0.583-1.3,1.3-1.3h12c0.717,0,1.3,0.583,1.3,1.3s-0.583,1.3-1.3,1.3
		H14z"/>
</g>
</svg>
