<?xml version="1.0" encoding="utf-8"?>
<!-- Generator: Adobe Illustrator 14.0.0, SVG Export Plug-In . SVG Version: 6.00 Build 43363)  -->
<!DOCTYPE svg PUBLIC "-//W3C//DTD SVG 1.1//EN" "http://www.w3.org/Graphics/SVG/1.1/DTD/svg11.dtd">
<svg version="1.1" id="icon-my-media" xmlns="http://www.w3.org/2000/svg" xmlns:xlink="http://www.w3.org/1999/xlink" x="0px"
	 y="0px" width="40px" height="40px" viewBox="0 0 40 40" enable-background="new 0 0 40 40" xml:space="preserve">
<g>
	<g>
		<path fill="#4B4B4B" d="M32,12c0,0.552-0.447,1-1,1h-8c-0.553,0-1-0.448-1-1l0,0c0-0.552,0.447-1,1-1h8C31.553,11,32,11.448,32,12
			L32,12z"/>
		<path fill="#4B4B4B" d="M32,16c0,0.552-0.447,1-1,1h-8c-0.553,0-1-0.448-1-1l0,0c0-0.552,0.447-1,1-1h8C31.553,15,32,15.448,32,16
			L32,16z"/>
		<path fill="#4B4B4B" d="M32,20c0,0.553-0.447,1-1,1h-8c-0.553,0-1-0.447-1-1l0,0c0-0.552,0.447-1,1-1h8C31.553,19,32,19.448,32,20
			L32,20z"/>
	</g>
	<circle fill="#4B4B4B" cx="16" cy="18" r="4"/>
	<path fill="#4B4B4B" d="M16,24c-4.42,0-8,3.581-8,8H24C24,27.581,20.416,24,16,24z"/>
</g>
</svg>
