<?xml version="1.0" encoding="utf-8"?>
<!-- Generator: Adobe Illustrator 14.0.0, SVG Export Plug-In . SVG Version: 6.00 Build 43363)  -->
<!DOCTYPE svg PUBLIC "-//W3C//DTD SVG 1.1//EN" "http://www.w3.org/Graphics/SVG/1.1/DTD/svg11.dtd">
<svg version="1.1" id="icon-search" xmlns="http://www.w3.org/2000/svg" xmlns:xlink="http://www.w3.org/1999/xlink" x="0px"
	 y="0px" width="40px" height="40px" viewBox="0 0 40 40" enable-background="new 0 0 40 40" xml:space="preserve">
<g>
	<g>
		<path fill="#4B4B4B" d="M13.924,13.875c1.621-1.621,3.578-2.431,5.874-2.431c2.295,0,4.253,0.81,5.872,2.431
			c1.621,1.62,2.432,3.578,2.432,5.872c0,2.296-0.811,4.253-2.432,5.874c-1.619,1.62-3.577,2.43-5.872,2.43
			c-1.316,0-2.549-0.286-3.696-0.861l-4.152,4.152v-0.05C11.477,31.764,10.92,32,10.28,32c-0.642,0-1.182-0.219-1.621-0.658
			c-0.439-0.438-0.658-0.979-0.658-1.62c0-0.641,0.236-1.198,0.709-1.671H8.659l4.051-3.999c-0.81-1.351-1.216-2.784-1.216-4.305
			C11.494,17.453,12.304,15.495,13.924,13.875z M16.178,23.268c0.995,0.995,2.219,1.492,3.671,1.492c1.45,0,2.683-0.497,3.696-1.492
			c1.012-0.996,1.519-2.221,1.519-3.671s-0.507-2.675-1.519-3.671c-1.014-0.995-2.246-1.494-3.696-1.494
			c-1.452,0-2.676,0.499-3.671,1.494c-0.995,0.996-1.494,2.221-1.494,3.671S15.183,22.271,16.178,23.268z"/>
	</g>
</g>
</svg>
