<?xml version="1.0" encoding="UTF-8"?>
<svg width="20px" height="20px" viewBox="0 0 20 20" version="1.1" xmlns="http://www.w3.org/2000/svg" xmlns:xlink="http://www.w3.org/1999/xlink">
    <!-- Generator: Sketch 44.1 (41455) - http://www.bohemiancoding.com/sketch -->
    <title>icon-home</title>
    <desc>Created with Sketch.</desc>
    <defs></defs>
    <g id="Page-1" stroke="none" stroke-width="1" fill="none" fill-rule="evenodd">
        <g id="SXS-–-Tablet-Portrait-–-Screen-3-–-My-Flight" transform="translate(-24.000000, -24.000000)" fill="#FFFFFF">
            <g id="Header-&amp;-Navigation">
                <g id="icon-home" transform="translate(24.000000, 24.000000)">
                    <path d="M19.6709,8.082 L10.7339,0.262 C10.3279,-0.093 9.6779,-0.086 9.2789,0.277 L0.3119,8.5 C-0.0851,8.863 -0.1061,9.474 0.2679,9.861 L0.4919,10.096 C0.8659,10.485 1.4689,10.53 1.8389,10.2 L2.5089,9.6 L2.5089,17 L2.5089,18.387 L2.5089,19.024 C2.5089,19.563 2.9459,20 3.4859,20 L6.9809,20 C7.5199,20 7.9569,19.563 7.9569,19.024 L7.9569,18.387 L7.9569,17 L7.9569,12.238 L12.4149,12.238 L12.4149,17 L12.4149,18.387 L12.4149,19.024 C12.4079,19.563 12.7939,19.998 13.3329,19.998 L17.0369,19.998 C17.5759,19.998 18.0129,19.563 18.0129,19.024 L18.0129,18.387 L18.0129,17 L18.0129,9.723 C18.0129,9.723 18.1969,9.884 18.4269,10.086 C18.6549,10.285 19.1339,10.125 19.4969,9.727 L19.7489,9.448 C20.1119,9.048 20.0779,8.437 19.6709,8.082" id="Fill-1"></path>
                </g>
            </g>
        </g>
    </g>
</svg>