<svg version="1.1" id="Ebene_1" xmlns="http://www.w3.org/2000/svg" xmlns:xlink="http://www.w3.org/1999/xlink" x="0px" y="0px"
	 width="128px" height="128px" viewBox="0 0 128 128" style="enable-background:new 0 0 128 128;" xml:space="preserve">
<g>
	<path fill="#f1211e" d="M45.596,81.213c2.969-7.144,10.211-11.762,18.453-11.762c8.066,0,15.266,4.594,18.34,11.704
		c0.527,1.218-0.031,2.628-1.25,3.155c-1.215,0.527-2.629-0.034-3.152-1.25c-2.316-5.352-7.785-8.809-13.938-8.809
		c-6.297,0-11.797,3.453-14.02,8.801c-0.383,0.926-1.277,1.48-2.219,1.48c-0.305,0-0.617-0.059-0.918-0.184
		C45.666,83.842,45.088,82.436,45.596,81.213L45.596,81.213z"/>
	<g>
		<path fill="#f1211e" d="M90.893,27.521c5.286,0,9.586,4.298,9.586,9.582v53.789c0,5.286-4.3,9.586-9.586,9.586H37.104
			c-5.284,0-9.582-4.3-9.582-9.586V37.104c0-5.284,4.298-9.582,9.582-9.582H90.893 M90.893,22.521H37.104
			c-8.039,0-14.582,6.543-14.582,14.582v53.789c0,8.043,6.543,14.586,14.582,14.586h53.789c8.043,0,14.586-6.543,14.586-14.586
			V37.104C105.479,29.064,98.936,22.521,90.893,22.521L90.893,22.521z"/>
	</g>
	<path fill="#f1211e" d="M68.128,54.912c0-3.835,3.124-6.96,6.961-6.96c3.84,0,6.961,3.121,6.961,6.96c0,1.106-0.895,2-2,2s-3.328,0.04-4.961,0.04
		s-3.855-0.04-4.961-0.04S68.128,56.018,68.128,54.912L68.128,54.912z"/>
	<path fill="#f1211e" d="M45.948,54.893c0-3.84,3.125-6.961,6.965-6.961c3.836,0,6.961,3.121,6.961,6.961c0,1.102-0.898,2-2,2
		c-1.105,0-8.82,0-9.926,0S45.948,55.994,45.948,54.893L45.948,54.893z"/>
</g>
</svg>