<?xml version="1.0" standalone="no"?>
<!DOCTYPE svg PUBLIC "-//W3C//DTD SVG 1.1//EN" "http://www.w3.org/Graphics/SVG/1.1/DTD/svg11.dtd" >
<svg>
<metadata>
Created by FontForge 20090914 at Wed Apr 27 12:31:37 2016
 By www-data
Typeface &#194;&#169; (Fonts For Peas). 2006. All Rights Reserved  http://www.geocities.com/fontsforpeas Free for personal use, contact for commercial use: fontsforpeas@yahoo.com
</metadata>
<defs>
<font id="SXSHandwriting" horiz-adv-x="20" >
  <font-face 
    font-family="SXS Handwriting"
    font-weight="400"
    font-stretch="normal"
    units-per-em="1000"
    panose-1="3 0 0 0 0 0 0 0 0 0"
    ascent="800"
    descent="-200"
    x-height="547"
    cap-height="738"
    bbox="-230.001 -664 2000 2500"
    underline-thickness="73"
    underline-position="-71"
    unicode-range="U+0020-U+F005"
  />
<missing-glyph 
 />
    <glyph glyph-name=".notdef" 
 />
    <glyph glyph-name="space" unicode=" " horiz-adv-x="439" 
 />
    <glyph glyph-name="space" unicode="&#xa0;" horiz-adv-x="439" 
 />
    <glyph glyph-name="exclam" unicode="!" horiz-adv-x="306" 
d="M224 938c41.333 0 62 -10.667 62 -32l-86 -664l-8 -8h-15c-28.667 0 -47 10.667 -55 32v140c44 354.667 78 532 102 532zM177 94h23c47.333 -10 71 -28.333 71 -55c-11.333 -24 -22 -37 -32 -39h-39c-36 22 -54 37.667 -54 47v16z" />
    <glyph glyph-name="quotedbl" unicode="&#x22;" horiz-adv-x="363" 
d="M156 923c62 0 106.333 -49.333 133 -148c11.333 0 29.666 -36.333 54.999 -109l-8 -8h-23c-79.333 73.333 -136.666 151.333 -171.999 234v16zM31 892c52 0 90.999 -57.333 116.999 -172c18.667 -4.66699 34.334 -36 47.001 -94l-15 -15h-8
c-114.667 114 -172 202.333 -172 265z" />
    <glyph glyph-name="numbersign" unicode="#" horiz-adv-x="590" 
d="M297 586c46.667 -6.66699 70 -29.999 70 -69.999l-47 -102l8 8h63c22 104 40 156 54 156h16c32 0 55.333 -18.333 70 -55l-31 -101h8c19.333 0 40 -15.667 62 -47c0 -10.667 -31 -18.334 -93 -23.001l-32 -125h8c26 -7.33301 39 -15.333 39 -24v-8
c0 -10 -23.333 -23 -70 -39c-16 -104 -37 -156 -63 -156c-46.667 6 -70 16.333 -70 31v8c22 24.667 35 58.667 39 102c-109.333 -23.333 -164 -39 -164 -47c-18 -42 -31 -63 -39 -63h-31l-16 16v39l8 39l-31 31v8c0 16 15.667 24 47 24l39 101l-63 -16h-23l-55 47v24
c5.33301 12 70.333 32.667 195 62c52 120 86 180 102 180zM219 203.001c83.333 0 125.001 13 125.001 39l23 94c-83.333 0 -125 -23.333 -125 -70c-10.667 -2 -18.334 -17.667 -23.001 -47l-8 -8z" />
    <glyph glyph-name="dollar" unicode="$" horiz-adv-x="871" 
d="M688 656h31.002c31.333 -13.333 47 -34 47 -62l-16 -55c68 -18 102 -49.333 102 -94v-7l-24 -24h-8c-38.667 2.66699 -72.334 21 -101.001 55h-16l-78 -117c52 -40 78 -74 78 -102v-23c-26.667 -46 -99.667 -90.333 -219 -133c-22 -62.667 -40 -94 -54 -94h-24l-23 23v55
c-36.667 0 -65.334 18.333 -86.001 55v31l23 24c21.333 -11.333 32 -24.666 32 -39.999c52 0 85.667 31.333 101 94l55 110c-73.333 57.333 -110 93.666 -110 108.999v23c0 20.667 75.667 41.667 227 63c34 72.667 55 109 63 109zM516.002 445v-7c0 -8 10.333 -16 31 -24
l23 39h-7zM8.00195 383l15 -16l-15 -15l-8 7v24h8zM547.002 219h8c36 22 54 37.667 54 47v7l-15 16c-9.33301 0 -25 -23.333 -47 -70z" />
    <glyph glyph-name="percent" unicode="%" horiz-adv-x="871" 
d="M789 981c33.333 0 54.333 -23.334 63 -70.001c-234.667 -286.667 -404 -529 -508 -727l-24 -62l8 -39l-86 -133c-29.333 0 -52.666 15.667 -69.999 47c38.667 182 200 458 484 828v8c-51.333 -33.333 -145 -64.666 -281 -93.999c-38 -73.333 -111 -110 -219 -110h-39
c-57.333 0 -96.333 34 -117 102v16c0 60 65 125 195 195l86 23h24c29.333 0 52.666 -15.667 69.999 -47v-7l-8 -39l31 -39c32.667 0 163 49.333 391 148zM86 707.999l8 -8.00098h8c101.333 10 156 28 164 54v8c-42 18.667 -63 42.334 -63 71.001l8 7h-8
c-78 -57.333 -117 -101.333 -117 -132zM734 472.998c28.667 0 47 -10.332 55 -30.999v-39c32.667 0 51 -31.333 55 -94c-14.667 -69.333 -48.667 -124 -102 -164c-54 -20.667 -95.667 -31 -125 -31c-62.667 23.333 -94 54.666 -94 93.999v39c0 58 65.333 133.333 196 226h15
zM609 207.999v-16h8c70 0 117 54.667 141 164v23c-99.333 -64 -149 -121 -149 -171z" />
    <glyph glyph-name="ampersand" unicode="&#x26;" horiz-adv-x="543" 
d="M445 912l16 -0.000976562c28 0 48.667 -13 62 -39v-31c-26 -68.667 -48.667 -132.167 -68 -190.5s-35.666 -112.166 -48.999 -161.499h-39l-47 39h-7c-71.333 0 -121 -18 -149 -54c2.66699 -16 23.667 -24 63 -24h93l32 8c25.333 0 48.666 -15.667 69.999 -47v-16
c0 -16.667 -88.667 -53 -266 -109c0 -7.33301 -18 -15 -54 -23v-8l39 -8l109 8c40 0 66 -13 78 -39v-8l-70 -133c-41.333 -63.333 -85.666 -209 -132.999 -437l-39 -47h-8c-28.667 0 -49.334 13 -62.001 39l109 414l63 125c-90 0 -152.667 28.667 -188 86v47
c0 16.667 52 42.667 156 78c-62 42.667 -93 81.667 -93 117c26 78 104 117 234 117l39 -8c60 203.333 96.333 305 109 305z" />
    <glyph glyph-name="quotesingle" unicode="'" horiz-adv-x="207" 
d="M188 919c0 -23.333 -13.333 -46.667 -40 -70c-62 -121.333 -103.667 -184 -125 -188l-23 24v15c40.667 161.333 92.667 242 156 242z" />
    <glyph glyph-name="parenleft" unicode="(" horiz-adv-x="465" 
d="M398 1016c31.333 -12.667 46.999 -36 46.999 -70v-8c-137.333 -139.333 -251.666 -329.333 -342.999 -570l-16 -141v-23c0 -118 75.667 -240.667 227 -368l7 -31v-8l-15 -15h-32c-182 142 -273 295.667 -273 461h8l-8 7c0 168.667 106.667 405.667 320 711
c36.667 36.667 62.667 55 78 55z" />
    <glyph glyph-name="parenright" unicode=")" horiz-adv-x="277" 
d="M47 867c64 0 131.667 -119.999 203 -359.999l8 -101v-63c0 -172.667 -67.667 -331.334 -203 -476.001h-16c-26 18 -39 49 -39 93c120 114 180 267.667 180 461v32c0 119.333 -52.333 231.333 -157 336l-7 54z" />
    <glyph glyph-name="asterisk" unicode="*" horiz-adv-x="824" 
d="M539 742l24 -0.00195312c26 -12.667 39 -25.667 39 -39l-47 -273h8c161.333 -65.333 242 -107 242 -125v-16c0 -15.333 -88.667 -33.666 -266 -54.999c-31.333 0 -47 -23.333 -47 -70v-70l16 -63v-8l-24 -23h-23c-31.333 14.667 -70.333 72 -117 172
c-126 -46 -212 -95.667 -258 -149h-47l-23 24l7 8l-7 39v15c76 56.667 141 132.334 195 227.001v16c-140.667 122.667 -211 200.667 -211 234l23 16h8c98.667 0 203 -23.667 313 -71c92 140.667 157 211 195 211zM430 483.998l39 -7l8 70
c-12 -2.66699 -27.667 -23.667 -47 -63zM156 515.998l102 -102c8 0 23.667 21 47 63v7c-67.333 21.333 -117 32 -149 32zM391 437.998l-62.999 -102l47 -63c37.333 0 60.666 41.667 69.999 125l-7 24zM531.001 366.998l-8 -62l110 23v8l-102 39v-8zM273.001 265.998l-15 -32
h15l16 16z" />
    <glyph glyph-name="plus" unicode="+" 
 />
    <glyph glyph-name="comma" unicode="," horiz-adv-x="246" 
d="M180 130c9.33301 0 25 -18.3311 47 -54.998v-23c0 -48.667 -60 -116.334 -180 -203.001h-16c-20.667 4.66699 -31 15 -31 31c44 60.667 79.667 111.667 107 153s46.333 73.666 57 96.999h16z" />
    <glyph glyph-name="hyphen" unicode="-" horiz-adv-x="418" 
d="M250 391c98.667 0 148 -26 148 -78c0 -10.667 -7.66699 -16 -23 -16l-86 8l-250 -31c-24 22 -37 53.333 -39 94l8 7h8z" />
    <glyph glyph-name="period" unicode="." horiz-adv-x="98" 
d="M23 102h7.99902c8.66699 0 24.334 -18.333 47.001 -55v-24l-23 -23h-24c-20.667 8 -31 26.333 -31 55v23z" />
    <glyph glyph-name="slash" unicode="/" 
 />
    <glyph glyph-name="zero" unicode="0" horiz-adv-x="559" 
d="M383 721c70.667 0 122.666 -62.667 155.999 -188v-47c0 -122 -60 -239 -180 -351c-63.333 -47.333 -125.666 -71 -186.999 -71h-31c-70 0 -117 55 -141 165v70c0 73.333 101.667 188 305 344l54 15l8 -8h16v8c-16 0 -24 13 -24 39zM413.999 635l16.001 -24.001v-15
c0 -16 -15.667 -24 -47 -24c-198 -131.333 -297 -240.666 -297 -327.999v-23c6 -52 16.333 -78 31 -78h39c101.333 0 192.666 80.667 273.999 242l31 148l-31 102h-16z" />
    <glyph glyph-name="one" unicode="1" horiz-adv-x="353" 
d="M232 672c-14.667 -14.667 -30.165 -27.502 -46.498 -38.502s-32.333 -19.833 -48 -26.5s-30.667 -10.667 -45 -12s-26.833 0.666992 -37.5 6c-14 8.66699 -19 17.334 -15 26.001s11.333 16.334 22 23.001c7.33301 4.66699 14.5 8.66699 21.5 12s13.167 6 18.5 8
c2.66699 1.33301 5.66699 2.33301 9 3s6.66602 1.66699 9.99902 3c6.66699 0.666992 69 46 187 136c12 3.33301 15.333 -4.66699 10 -24c2.66699 -4 4.83398 -9 6.50098 -15s3.5 -13 5.5 -21c-31.333 -121.333 -99.333 -340 -204 -656c-4 -73.333 -24.667 -110 -62 -110
c0 10.667 -7.66699 16 -23 16l-8 8v23c0 62.667 52 232 156 508c9.33301 22.667 17.666 44.667 24.999 66s13.666 42.333 18.999 63z" />
    <glyph glyph-name="two" unicode="2" horiz-adv-x="574" 
d="M258 666c78 -9.33301 117 -45.666 117 -108.999c0 -106.667 -73 -260.334 -219 -461.001h8c160.667 31.333 267.334 47 320.001 47h16c27.333 0 45.666 -10.667 54.999 -32v-15c0 -14 -107 -35 -321 -63c-24.667 -10.667 -50 -18.5 -76 -23.5s-52.667 -7.5 -80 -7.5
c-41.333 22 -62 45.333 -62 70c182 200.667 273 364.667 273 492h8l-8 32c-55.333 0 -128.333 -39 -219 -117h-31l-39 39v15c92 80.667 178 125 258 133z" />
    <glyph glyph-name="three" unicode="3" horiz-adv-x="465" 
d="M297 775c40 0 66 -13.001 78 -39.001v-15c0 -42.667 -52 -118.334 -156 -227.001l62 8c95.333 0 150 -34 164 -102v-31c0 -97.333 -96.333 -222.333 -289 -375l-70 -23h-31l-47 47v15c11.333 24.667 32 48.334 62 71.001c16 0 24 -13.333 24 -40h15
c112.667 60 198.667 167 258 321v39l-39 8h-15c-68 0 -143.667 -23.667 -227 -71h-31l-39 32v15c146.667 138.667 230 230 250 274v7c-130 -78 -205.667 -117 -227 -117c-26 26.667 -39 50.334 -39 71.001c162.667 88 261.667 132 297 132z" />
    <glyph glyph-name="four" unicode="4" horiz-adv-x="613" 
d="M477 783c41.333 -7.33301 62.001 -23.002 62.001 -47.002c-14.667 -32 -30.334 -72.667 -47.001 -122s-34.667 -107.666 -54 -174.999h39l93 8l24 -47c-13.333 -14 -73.333 -27 -180 -39c-80.667 -210.667 -135.334 -340.667 -164.001 -390h-16
c-22 7.33301 -37.333 20.333 -46 39v23l117 321h-8l-219 -24c-52 10 -78 33.333 -78 70c180.667 138.667 334.334 266.334 461.001 383.001h16zM141.001 407.998h7l188 24l47 164h-8z" />
    <glyph glyph-name="five" unicode="5" horiz-adv-x="691" 
d="M586 744h61.999c11.333 0 19.333 -15.667 24 -47l-391 -117c-124.667 -116.667 -187 -181.667 -187 -195h39c178 0 282 -54.667 312 -164v-32c0 -72.667 -75.333 -148 -226 -226c-57.333 -26 -99 -39 -125 -39h-8c-57.333 10 -86 36 -86 78l23 16l24 -32
c213.333 70 320 153.333 320 250c0 36 -52 59.667 -156 71h-102c-72.667 7.33301 -109 41 -109 101c7.33301 31.333 54.333 86 141 164l-24 71c84.667 20.667 136.667 38.667 156 54l47 -8c142.667 36.667 231.334 55 266.001 55z" />
    <glyph glyph-name="six" unicode="6" horiz-adv-x="551" 
d="M359 713c33.333 -14 51.667 -27 55 -39v-24c-218.667 -180.667 -328 -329 -328 -445v-39h8c98 151.333 202 227 312 227c83.333 -24.667 125 -64 125 -118c0 -72 -59.667 -144.667 -179 -218c-22.667 -13.333 -49.5 -24.5 -80.5 -33.5s-66.833 -16.167 -107.5 -21.5
l-31 8l15 -71l-7 -7h-8c-57.333 0 -86 46.667 -86 140c-31.333 34.667 -47 81.667 -47 141v8c-0 120 96.333 271 289 453c32 26 55.333 39 70 39zM156.001 80c86 0 174.667 49.667 266 149l23 70v8h-23c-87.333 0 -176 -73 -266 -219v-8z" />
    <glyph glyph-name="seven" unicode="7" horiz-adv-x="598" 
d="M422 791c67.333 -16 101 -44.665 101 -85.998v-8c0 -13.333 -41 -93.333 -123 -240c46 4.66699 82.667 5.66699 110 3c46 -8.66699 68.333 -18.334 67 -29.001l-3 -14c-2 -14.667 -54.333 -24.334 -157 -29.001l-69 -25l-28.5 -50l-30.5 -53
c-72.667 -161.333 -114.334 -242 -125.001 -242h-23l-39 39v15c17.333 44 36.5 88.833 57.5 134.5s44.167 93.167 69.5 142.5l-5 1l-43 -1l-14 2c-25.333 3.33301 -44.333 19.666 -57 48.999l3 20c0.666992 8 53.334 15 158.001 21h7l68 121.5l76 126.5l8 24h-8l-352 -63
c-46.667 6.66699 -70 30.334 -70 71.001v8l16 15l39 -8z" />
    <glyph glyph-name="eight" unicode="8" horiz-adv-x="582" 
d="M477 768c57.333 -8 86 -21 86 -39v-24l-16 -16h-78l39 -54v-24c0 -33.333 -21 -77.333 -63 -132c35.333 0 72 -28.667 110 -86v-55c0 -103.333 -86 -215.333 -258 -336c-80.667 -31.333 -145.667 -47 -195 -47c-56 0 -90 39 -102 117v32c0 61.333 65 160 195 296
c-62 22 -93 63.667 -93 125c0 82 109.333 163 328 243h47zM320 604l-22.999 7c-72.667 -40.667 -109 -79.667 -109 -117v-15h46c85.333 0 150.666 52 195.999 156zM78.001 49l-0.000976562 -8.00098l8 -8v-8c124.667 0 244.334 83.333 359.001 250
c26 48.667 39 90.334 39 125.001h-7l-24 8c-124.667 0 -247 -101.333 -367 -304z" />
    <glyph glyph-name="nine" unicode="9" horiz-adv-x="590" 
d="M367 791l86.002 0.000976562c68.667 0 107.667 -47 117 -141c-127.333 -181.333 -278.333 -439 -453 -773c-24 -80.667 -44.667 -122.334 -62 -125.001h-16l-39 39v23c21.333 106 143.666 340.667 366.999 704v7c-70.667 -20.667 -138.334 -31 -203.001 -31
c-94 14 -141 58.333 -141 133v8c19.333 87.333 134 139.333 344 156zM102.002 604.001l-0.00195312 -16l15 -16h47c158.667 0 265.334 44.333 320.001 133l-7 8h-47c-155.333 0 -264.666 -36.333 -327.999 -109z" />
    <glyph glyph-name="colon" unicode=":" horiz-adv-x="121" 
d="M23 570h8c9.33301 0 25 -18 47 -54v-32l-23 -23h-24l-31 31v55zM31 328h24c11.333 0 27 -23.333 47 -70c-11.333 -24 -22 -37 -32 -39h-23l-31 31v63z" />
    <glyph glyph-name="semicolon" unicode=";" horiz-adv-x="270" 
d="M188 435l7 -0.000976562c31.333 -20.667 47 -46.667 47 -78v-8l-23 -23h-31c-16 4.66699 -24 20.334 -24 47.001v39zM188 215.999h14.999c31.333 -18 47 -41.333 47 -70c-39.333 -102 -109.666 -188 -210.999 -258h-8l-31 24z" />
    <glyph glyph-name="less" unicode="&#x3c;" 
 />
    <glyph glyph-name="equal" unicode="=" 
 />
    <glyph glyph-name="greater" unicode="&#x3e;" 
 />
    <glyph glyph-name="question" unicode="?" horiz-adv-x="603" 
d="M419 820c109.333 -9.33301 163.999 -43 163.999 -101c-10.667 -46.667 -120 -148.334 -328 -305.001l-8 -8v-8c12 0 25 -18 39 -54c-8 -20.667 -15.667 -31 -23 -31h-32c-46 30.667 -74.333 64.334 -85 101.001c10.667 23.333 38.5 55.833 83.5 97.5
s108.167 92.5 189.5 152.5c41.333 31.333 62 57.333 62 78h-7c-81.333 0 -172.666 -28.667 -273.999 -86h-15c-29.333 0 -50.333 13 -63 39v24c18 18.667 49.167 36.5 93.5 53.5s101.833 32.833 172.5 47.5h31zM215.999 94c62.667 0 94 -23.667 94 -71l-32 -23h-39l-47 47
v23z" />
    <glyph glyph-name="at" unicode="@" horiz-adv-x="1027" 
d="M438 857h31c129.333 0 288 -78 476 -234c42 -61.333 63 -118.666 63 -171.999v-39c0 -93.333 -39 -182 -117 -266c-99.333 -78 -193.333 -117 -282 -117c-104.667 0 -198.334 78 -281.001 234v24c0 48 52 102.667 156 164l63 15h16c58 0 99.667 -46.667 125 -140v-47
c0 -21.333 -36.667 -37 -110 -47c-44 0 -88.333 23.333 -133 70l-15 -23v-31c58 -94 104.667 -141 140 -141h24c141.333 0 245.333 83.333 312 250l8 70v24c0 158.667 -135.333 268 -406 328h-16c-158 0 -285.667 -122.333 -383 -367l-7 -94v-31
c0 -179.333 91 -328 273 -446l39 -8l141 8l15 -23c0 -17.333 -41.667 -33 -125 -47h-15c-141.333 0 -271.666 114.667 -390.999 344c-26 74 -39 141.667 -39 203c0 221.333 112 395.666 336 522.999zM547 318l8 -8h8l31 16l-8 23z" />
    <glyph glyph-name="A" unicode="A" horiz-adv-x="679" 
d="M508 951l31 -1l24 -23l-1 -31c-31.333 -43.333 -47 -72 -47 -86c10 -36 17.333 -80 22 -132s6.66699 -112.333 6 -181h-8l8 -8v-8l-8 -7l8 -8l-1 -63h40l46 8c21.333 -9.33301 31.666 -17.333 30.999 -24c-30 -46.667 -69 -70 -117 -70c-1.33301 -84 21 -185.667 67 -305
l7 -101l-23 -15c-67.333 0 -113 133 -137 399l-181 -53h-7l-39 31c-96 -191.333 -154.333 -287 -175 -287h-15l-39 47c10.667 90 156.334 367.333 437.001 832zM252 335h8l196 46l1 94l-6 234c-23.333 -30 -51.5 -76 -84.5 -138s-71.167 -140.667 -114.5 -236z" />
    <glyph glyph-name="B" unicode="B" horiz-adv-x="641" 
d="M435 826c63.333 -0.666992 109.665 -42.667 138.998 -126v-16c-1.33301 -40.667 -22.666 -84.667 -63.999 -132c58 -1.33301 94.333 -43.333 109 -126v-16c-1.33301 -103.333 -120 -235 -356 -395l-55 -23c-20.667 0 -36 21 -46 63c1.33301 23.333 59 64.333 173 123
c136.667 121.333 205.334 204 206.001 248v16l-16 16h-47c-46 0 -137.333 -33 -274 -99h-16l-7 8l-81 -335l-8 -8h-24c-26 16 -38.667 34.333 -38 55c8 50.667 22.667 123.167 44 217.5s50 211.5 86 351.5l-39 -7h-8l-39 40v38c48 46 155.333 81.667 322 107h39z
M253.999 694l-41.001 -218c128.667 47.333 220.334 114.333 275.001 201l8 8v31l-62 16z" />
    <glyph glyph-name="C" unicode="C" horiz-adv-x="567" 
d="M427 826c36.667 -18.667 54.668 -42.332 54.001 -70.999c0 -19.333 -31.333 -37.333 -94 -54c-140 -94.667 -240 -229.334 -300 -404.001l-8 -54c-0.666992 -83.333 24.666 -125.333 75.999 -126h16c100.667 -0.666992 216 71.333 346 216c8 0 18 -26.333 30 -79
c-47.333 -93.333 -144.333 -165.333 -291 -216l-62 -15h-47c-70 0.666992 -119 63.667 -147 189v71c2 148 110.333 316.333 325 505c45.333 25.333 79.333 38 102 38z" />
    <glyph glyph-name="D" unicode="D" horiz-adv-x="618" 
d="M155 773c162 -2 289.334 -34.333 382.001 -97c38 -54 58.333 -103.667 61 -149c-0.666992 -116.667 -137.334 -277 -410.001 -481l-134 -53h-15c-16 4 -29 22 -39 54l16 24l-8 54c0.666992 45.333 41.334 222.333 122.001 531v15l-7 -7h-24
c-41.333 1.33301 -62 25 -62 71v8c1.33301 17.333 40.666 27.333 117.999 30zM232.001 663c-43.333 -144.667 -77 -262.833 -101 -354.5s-39 -158.167 -45 -199.5h8c283.333 179.333 425.333 329.333 426 450c-30 67.333 -126 102 -288 104z" />
    <glyph glyph-name="E" unicode="E" horiz-adv-x="672" 
d="M535 824c78 -1.33301 116.667 -27.666 116 -78.999l-31 -16c-113.333 0.666992 -243.666 -19 -390.999 -59l-80 -202l8 -1l453 59l8 -8v-62c-1.33301 -24 -163.333 -54 -486 -90c-31.333 -8 -47.333 -54.667 -48 -140c0 -73.333 39 -110 117 -110l211 29l7 -8v-8
c0 -72.667 -81 -108.334 -243 -107.001c-98.667 0.666992 -155.334 74 -170.001 220l1 24l8 86l-15 46v16l55 46l64 180c-22.667 0 -38 23.333 -46 70c0.666992 48.667 154.667 86.667 462 114z" />
    <glyph glyph-name="F" unicode="F" horiz-adv-x="605" 
d="M664 838c62 -5.33301 92.999 -31.668 92.999 -79.001c-8 -20.667 -16 -31 -24 -31l-47 16c-266 -41.333 -399 -84.333 -399 -129l-65 -219h16c104.667 40.667 198.667 60.667 282 60l54 -24c0 -47.333 -36.667 -70.333 -110 -69l-297 -107
c-57.333 -197.333 -97.666 -296 -120.999 -296l-15 1l-31 31v24c139.333 398.667 209 632.334 209 701.001l32 70h24l23 -24c198.667 50 324 75 376 75z" />
    <glyph glyph-name="G" unicode="G" horiz-adv-x="639" 
d="M458 823l23.002 0.00390625c13.333 0 23.666 -21 30.999 -63v-23c0 -7.33301 -39.333 -20 -118 -38c-210 -148.667 -315.333 -291.334 -316 -428.001c0 -64.667 51.667 -101.334 155 -110.001c140.667 -0.666992 211.334 19.666 212.001 60.999l87 194l-15 1l-289 -37
l-31 62c0 32 52.333 47.333 157 46c25.333 13.333 90.333 20.666 195 21.999c46.667 -0.666992 69.667 -32 69 -94c0 -26.667 -24 -94.334 -72 -203.001c-13.333 -36 -29.833 -70 -49.5 -102s-42.834 -62.667 -69.501 -92c-26 6 -38.667 27 -38 63l-196 -15
c-97.333 0.666992 -161.666 74.334 -192.999 221.001v24c1.33301 140 109.666 295 324.999 465c65.333 30.667 109.666 46 132.999 46z" />
    <glyph glyph-name="H" unicode="H" horiz-adv-x="737" 
d="M679 822c13.333 0 26.001 -23.333 38.001 -70l-113 -398c10.667 0 16 -7.66699 16 -23l-48 -55l-88 -311h-31l-32 39l1 102c16 0 24 23.333 24 70l33 94l-313 -44l-8 7c-56.667 -157.333 -94 -240.333 -112 -249h-7c-16 5.33301 -29 24 -39 56
c40.667 140 117.667 321.333 231 544c50 140 84.667 210 104 210h8c17.333 -6 32.666 -29.333 45.999 -70l-176 -390h8c198.667 20 298 34.667 298 44c34.667 134 62.667 237.833 84 311.5s36 118.167 44 133.5z" />
    <glyph glyph-name="I" unicode="I" horiz-adv-x="322" 
d="M249 738h14.999c26.667 -12 39.334 -35.667 38.001 -71c0 -18 -17.333 -78 -52 -180s-86.667 -247 -156 -435c-8 -57.333 -24 -86 -48 -86c-18.667 0 -34 21 -46 63l192 569c20 93.333 39 140 57 140z" />
    <glyph glyph-name="J" unicode="J" horiz-adv-x="868" 
d="M802 752c30.667 -18.667 45.998 -49.999 45.998 -93.999c-2 -194.667 -74.333 -397.334 -217 -608.001c-57.333 -61.333 -125.333 -92 -204 -92c-73.333 0.666992 -192.333 74.667 -357 222c-46.667 26.667 -70 55.667 -70 87c10.667 23.333 21.334 36.333 32.001 39
c78 -12 117 -25.333 117 -40v-8l-16 -24c140 -115.333 230.667 -173.333 272 -174h23c158 -1.33301 269 182.667 333 552c0.666992 93.333 14.334 140 41.001 140z" />
    <glyph glyph-name="K" unicode="K" horiz-adv-x="935" 
d="M226 802c28.667 -0.666992 46.6641 -29.666 53.9971 -86.999l-1 -70c0 -51.333 -16.333 -132 -49 -242h16c75.333 44 158 95.333 248 154l294 201l71 38h8c25.333 -12 38 -38 38 -78c-4 -22 -67 -63.333 -189 -124c-181.333 -133.333 -309.333 -215.333 -384 -246
c46.667 -62.667 230.667 -140 552 -232l31 -24v-31l-24 -23c-71.333 1.33301 -156.166 19.166 -254.499 53.499s-210.833 86.166 -337.5 155.499c-56.667 42 -85 73.333 -85 94h-7c-60 -213.333 -110.667 -340.666 -152 -381.999l-24 1c-20.667 8 -31 26.333 -31 55
c128.667 294 193.334 535.333 194.001 724v8c0.666992 28 11.334 46.333 32.001 55z" />
    <glyph glyph-name="L" unicode="L" horiz-adv-x="621" 
d="M250 826l16 0.000976562c31.333 -18 47 -41.333 47 -70l-211 -570l-24 -94h16c186 72.667 329 109 429 109h47c21.333 -8 32 -26.333 32 -55v-7c0 -14.667 -65.333 -30.334 -196 -47.001c-182 -68 -294 -102 -336 -102c-46.667 8.66699 -70 34.667 -70 78v47
c0 49.333 65 242 195 578c20 88.667 38.333 133 55 133z" />
    <glyph glyph-name="M" unicode="M" horiz-adv-x="824" 
d="M219 779l14.999 -0.00195312c31.333 -17.333 47 -40.666 47 -69.999v-8l-8 -31c40.667 -101.333 77.334 -255 110.001 -461l148 240.5c46.667 79 91 157.833 133 236.5l70 85h24c15.333 0 31 -31 47 -93l-86 -555l8 -39v-16h7l24 8l8 -8v-54c-6 -16 -21.667 -24 -47 -24
c-47.333 22 -71 71.667 -71 149c0 36.667 4 88 12 154s19.667 147.333 35 244v8h-7c-151.333 -276 -237.333 -414 -258 -414l-55 -8c-42.667 0 -87 135.333 -133 406h-15c-68 -199.333 -102 -313.666 -102 -342.999l8 -24c-41.333 -109.333 -70 -164 -86 -164h-8l-39 39v16
c0 60.667 60 269 180 625l-8 31v8z" />
    <glyph glyph-name="N" unicode="N" horiz-adv-x="785" 
d="M711 865l8 0.00195312c31.333 -18 47 -41.333 47 -70c-74 -280.667 -144.333 -486.334 -211 -617.001l-8 -39l8 -32h-8l8 -23c-21.333 -57.333 -50 -86 -86 -86h-24c-28.667 0 -80.667 122.333 -156 367l-55 125c-8.66699 0 -45 -88.333 -109 -265
c-7.33301 0 -25.666 -49.667 -54.999 -149l-23 -15h-16l-31 39v23c0 22 57.333 186 172 492l-24 86l24 31h16l7 -7h8c0 13.333 10.333 21 31 23c36.667 -14.667 55 -38 55 -70l-16 -86c75.333 -162.667 130.333 -311.334 165 -446.001h7
c93.333 192 171.666 418.667 234.999 680c0 15.333 10.333 28.333 31 39z" />
    <glyph glyph-name="O" unicode="O" horiz-adv-x="551" 
d="M305 717l47 0.000976562c83.333 0 143 -78.333 179 -235v-15c0 -170 -88.333 -321 -265 -453c-60 -26 -101.667 -39 -125 -39c-94 0 -141 72.667 -141 218c0 73.333 67.667 229.666 203 468.999c41.333 36.667 75.333 55 102 55zM367 623.001
c-192.667 -170 -289 -329 -289 -477c0 -35.333 13 -61.333 39 -78c88.667 0 174.667 60 258 180c57.333 94.667 86 165 86 211v55c0 44 -31.333 80.333 -94 109z" />
    <glyph glyph-name="P" unicode="P" horiz-adv-x="691" 
d="M445 764c127.333 0 203.001 -49.666 227.001 -148.999v-39c0 -110.667 -161.333 -214.667 -484 -312h-32l-8 7c-36 -99.333 -62 -198 -78 -296l-31 -16c-26 7.33301 -39 25.666 -39 54.999v31c0 60 57.333 239.667 172 539c-12.667 0 -23 23.333 -31 70
c35.333 73.333 136.666 110 303.999 110zM195.001 365.001c107.333 22.667 222 74.666 344 155.999c36 30.667 57 59.334 63 86.001c0 26.667 -39.333 45 -118 55c-135.333 0 -203 -18.333 -203 -55z" />
    <glyph glyph-name="Q" unicode="Q" horiz-adv-x="645" 
d="M367 693h46.999c60 0 122.667 -59.667 188 -179c15.333 -36 23 -72.667 23 -110c0 -168 -88.667 -290.333 -266 -367c-25.333 -146 -48.666 -219 -69.999 -219h-8c-20.667 8 -31 29 -31 63l23 133h-7l-86 -8c-106 0 -166 70.333 -180 211v23c0 144.667 86 288 258 430
c20 8 39 13.833 57 17.5s35.333 5.5 52 5.5zM397.999 615c-4.66699 -12 -46.333 -30.001 -125 -54.001c-135.333 -127.333 -203 -247.333 -203 -360c10.667 -67.333 42 -101 94 -101h31c57.333 0 86 7.66699 86 23v23c0 61.333 -5 103 -15 125c5.33301 47.333 13 71 23 71h8
c41.333 -38 62 -95.333 62 -172v-24c136 56.667 204 155.667 204 297c0 52.667 -44.333 107.334 -133 164.001z" />
    <glyph glyph-name="R" unicode="R" horiz-adv-x="676" 
d="M555 725h7.99805c62 0 93 -34 93 -102v-8c0 -70.667 -109.333 -164.334 -328 -281.001v-8c98 -105.333 150 -209.333 156 -312l-31 -16c-27.333 28.667 -53.333 78 -78 148c-52.667 88.667 -125.667 133 -219 133c-53.333 -208 -89.666 -312 -108.999 -312h-8
c-26 12.667 -39 33.334 -39 62.001l195 633c0 23.333 10.667 39 32 47h15l31 -31c50 15.333 98.333 27 145 35s92.334 12 137.001 12zM202.998 373c139.333 59.333 261.668 140 367.001 242v8h-7c-120.667 0 -222.334 -26 -305.001 -78z" />
    <glyph glyph-name="S" unicode="S" horiz-adv-x="598" 
d="M492 740c41.333 0 69.998 -31.333 85.998 -94c-8 -20.667 -15.667 -31 -23 -31h-24l-23 16h-24c-125.333 0 -255.333 -47 -390 -141l-16 -23v-8c0 -25.333 120 -51.333 360 -78c83.333 -30 125 -77 125 -141c0 -87.333 -151.333 -178.333 -454 -273h-23
c-13.333 0 -23.666 20.667 -30.999 62c2.66699 31.333 10.334 47 23.001 47l24 -15c208 72 335.333 137 382 195c-17.333 34 -142.333 60 -375 78c-72.667 30 -109 79.333 -109 148c0 92.667 138 176 414 250z" />
    <glyph glyph-name="T" unicode="T" horiz-adv-x="624" 
d="M797 693l16 -14.999v-24l-8 -8v-7l8 -8c0 -19.333 -135.667 -42.666 -407 -69.999c-150.667 -284.667 -226 -472.334 -226 -563.001l-32 -16c-26 6 -39 27 -39 63c0 85.333 49.667 223.333 149 414l31 86l-258 -31c-20.667 21.333 -31 42 -31 62
c-0 28.667 10.333 47 31 55l24 -8c157.333 18.667 297.5 33.667 420.5 45s230.167 19.666 321.5 24.999z" />
    <glyph glyph-name="U" unicode="U" horiz-adv-x="738" 
d="M242 678l7.99805 0.00195312c16 0 29 -23.667 39 -71l-203 -421l-8 -55v-47c203.333 0 380.333 156.333 531 469c27.333 83.333 48.333 125 63 125h16c20.667 -9.33301 31 -27.666 31 -54.999v-8c0 -15.333 -80.667 -213.333 -242 -594c-42 -140 -68.333 -210 -79 -210
h-15c-20.667 10 -31 25.333 -31 46c0 22 7 57.667 21 107s35.667 112.666 65 189.999c-127.333 -109.333 -244.666 -164 -351.999 -164c-57.333 11.333 -86 55.666 -86 132.999s65 244 195 500c8.66699 23.333 24.334 41.666 47.001 54.999z" />
    <glyph glyph-name="V" unicode="V" horiz-adv-x="551" 
d="M477 717h15c26 -13.333 39 -34.333 39 -63v-8l-156 -273l-234 -430l-55 -23c-42 54 -63 103.333 -63 148l8 336l-31 203c10 24 20.333 37 31 39h16c34.667 0 58 -78 70 -234l-15 -320v-8h7l336 609z" />
    <glyph glyph-name="W" unicode="W" horiz-adv-x="879" 
d="M828 740c20.667 -21.333 31 -42.001 31 -62.001v-24c0 -32.667 -15.333 -71.667 -46 -117c-105.333 -396 -212.333 -594 -321 -594h-31c-62.667 46 -94 145 -94 297l8 180c-60.667 -103.333 -114.167 -188.5 -160.5 -255.5s-86.5 -117.167 -120.5 -150.5
c-24.667 -21.333 -48.334 -32 -71.001 -32c-15.333 20.667 -23 44.334 -23 71.001v39c0 23.333 7.16699 80.333 21.5 171s35.833 216 64.5 376l23 15h24c12 0 25 -20.667 39 -62l-94 -461c25.333 12 124.333 160.333 297 445l16 16h23c26 -22 39 -56 39 -102l-8 -312
c8.66699 -88.667 21.667 -133 39 -133c82.667 0 184.334 226.667 305.001 680z" />
    <glyph glyph-name="X" unicode="X" horiz-adv-x="660" 
d="M266 725h7c26.667 -12 40 -38.333 40 -79v-85l7 -157l266 227h23c21.333 -8 32 -26.333 32 -55v-23l-313 -266v-70c0 -124 21 -202.333 63 -235c-6 -30.667 -14 -46 -24 -46h-23c-48.667 22 -80 118.333 -94 289c-10.667 0 -73 -60 -187 -180l-40 -16l-23 32v39
c92 110 175.333 190.667 250 242c-8 56.667 -13.833 109.667 -17.5 159s-5.5 95.333 -5.5 138c0 45.333 13 74 39 86z" />
    <glyph glyph-name="Y" unicode="Y" horiz-adv-x="676" 
d="M70 740h16.001c35.333 0 56 -99 62 -297l8 -7c0 -16 5.33301 -24 16 -24h31c34 0 135.667 78 305 234c59.333 47.333 98.333 71 117 71c20.667 -21.333 31 -42.333 31 -63v-8c0 -33.333 -39 -67 -117 -101c-254 -194 -392 -334.667 -414 -422
c-10.667 0 -18.334 -26 -23.001 -78c-21.333 -31.333 -45 -47 -71 -47c-14 0 -24.333 18.333 -31 55c0 28 47 121.667 141 281h-8c-33.333 0 -67.333 117.333 -102 352c10.667 32 23.667 50 39 54z" />
    <glyph glyph-name="Z" unicode="Z" horiz-adv-x="730" 
d="M648 701c42 -7.33301 63.002 -30.667 63.002 -70c0 -35.333 -99 -137 -297 -305l-258 -258c96 16 223.667 24 383 24h55c46.667 0 70 -21 70 -63v-23l-16 -24l-117 8h-93c-112 0 -242.333 -13 -391 -39c-31.333 11.333 -47 32.333 -47 63c0 30 93.667 129 281 297
c36 42.667 130 133.667 282 273h-16c-74.667 -8 -137.834 -15.833 -189.501 -23.5s-92.834 -15.5 -123.501 -23.5c-30.667 10.667 -46 31.667 -46 63c0 28 13 48.667 39 62l23 -8z" />
    <glyph glyph-name="bracketleft" unicode="[" horiz-adv-x="332" 
d="M63 875h226.001c16 0 24 -10.333 24 -31c-4 -52 -19.667 -78 -47 -78l-164 15l-8 -8l8 -54v-63l-8 -8l8 -7v-8l-16 -508c33.333 -15.333 69.666 -23 108.999 -23l32 7l31 -15c0 -46.667 -15.667 -78 -47 -94c-124 6 -194.333 24.333 -211 55l23 406l-7 39h7l-7 23l7 24
l-15 250c0 26 18.333 52 55 78z" />
    <glyph glyph-name="backslash" unicode="\" 
 />
    <glyph glyph-name="bracketright" unicode="]" horiz-adv-x="332" 
d="M23 883l227 0.000976562c36.667 -28 55 -51.333 55 -70l-16 -258l8 -39h-8l8 -8l-8 -39l24 -414c-54 -31.333 -124.333 -47 -211 -47c-31.333 15.333 -47 46.666 -47 93.999l23 15l55 -8c62.667 7.33301 94 18 94 32l-16 507h8l-8 8v71l8 54l-8 8h-8l-172 -16
c-20.667 20.667 -31 52 -31 94z" />
    <glyph glyph-name="asciicircum" unicode="^" 
 />
    <glyph glyph-name="underscore" unicode="_" 
 />
    <glyph glyph-name="grave" unicode="`" 
 />
    <glyph glyph-name="a" unicode="a" horiz-adv-x="826" 
d="M445 740l54.998 0.00195312c20.667 -8 31 -26 31 -54v-8h-47c-161.333 -88.667 -283.666 -247.667 -366.999 -477l-8 -39c0 -32.667 13 -61.334 39 -86.001c140.667 95.333 229.334 204.666 266.001 327.999c0 20 6.33301 46.167 19 78.5s32.334 71.5 59.001 117.5h8
c33.333 0 56.666 -10.667 69.999 -32l-86 -281l-8 -117c0 -72 23.333 -121.667 70 -149l266 79v-16c-78.667 -88.667 -162 -133 -250 -133c-94 0 -154 73 -180 219c-104 -109.333 -174.333 -164 -211 -164h-39c-72.667 33.333 -109 88 -109 164
c0 147.333 109.333 319.333 328 516c40 36 71.333 54 94 54z" />
    <glyph glyph-name="b" unicode="b" horiz-adv-x="582" 
d="M227 912l6.99902 0.000976562c39.333 -6 60.333 -16.333 63 -31v-31c0 -11.333 -12.333 -60.5 -37 -147.5l-112 -376.5c150 203.333 251.667 305 305 305h24c57.333 0 86 -39 86 -117c-34 -189.333 -94 -338 -180 -446c-54 -52 -98.333 -78 -133 -78
c-57.333 14 -86 40 -86 78c0 39.333 39 78.666 117 117.999h8c6.66699 -36.667 14.667 -55 24 -55c104 174 156 312 156 414h-8c-150 -136 -249 -258.333 -297 -367c-47.333 -97.333 -78.666 -149.666 -93.999 -156.999h-15c-32.667 17.333 -51 35.666 -55 54.999
c21.333 112 49.333 236 84 372s77 285.333 127 448z" />
    <glyph glyph-name="c" unicode="c" horiz-adv-x="590" 
d="M391 670c62 -12 93.001 -27.667 93.001 -47v-39l-31 -23l-47 15c-208 -103.333 -312 -233.333 -312 -390c0 -52 20.667 -93.667 62 -125c81.333 0 211.666 75.333 390.999 226h8l15 -16c0 -93.333 -109.333 -187 -328 -281l-70 -8c-114.667 24.667 -172 108 -172 250
c0 164.667 125 310.667 375 438h16z" />
    <glyph glyph-name="d" unicode="d" horiz-adv-x="752" 
d="M642 818h6.99902c46 0 72.333 -28.667 79 -86c0 -119.333 -68 -288.333 -204 -507c-30.667 -108.667 -46 -189.667 -46 -243l23 -62c-10 -24 -20.333 -37 -31 -39h-8c-46 0 -72 33.667 -78 101v47l8 55c-89.333 -57.333 -154.666 -86 -195.999 -86
c-100 0 -157.333 65 -172 195c0 190 120 325.667 360 407l101 15l55 -8c41.333 124 75.333 194.333 102 211zM117.999 178c0 -38 15.667 -72.001 47 -102.001c79.333 0 168 60 266 180l78 273h-8c-130 0 -247.333 -72.667 -352 -218
c-20.667 -51.333 -31 -95.666 -31 -132.999z" />
    <glyph glyph-name="e" unicode="e" horiz-adv-x="566" 
d="M406 701l23.999 0.000976562c78 -10 117 -43.667 117 -101v-8c0 -87.333 -65 -147.333 -195 -180h-16c-31.333 0 -57.333 21 -78 63v7c0 13.333 10.333 21.333 31 24l47 -8c78 32 117 68.333 117 109l8 8h-16c-115.333 0 -227.333 -117 -336 -351
c-10 -20 -15 -48.667 -15 -86c0 -56 18 -90 54 -102c54.667 0 179.667 57.333 375 172l8 -8v-8c0 -80.667 -106.667 -156 -320 -226l-39 -8c-91.333 0 -148.666 67.667 -171.999 203c0 123.333 80.667 266.666 242 429.999c65.333 46.667 120 70 164 70z" />
    <glyph glyph-name="f" unicode="f" horiz-adv-x="707" 
d="M533 1076l54 -0.000976562c68 -14 102 -45.333 102 -94c0 -20.667 -10.333 -36 -31 -46h-39v62h-24c-117.333 0 -216.333 -169.333 -297 -508c99.333 36.667 175 55 227 55c52 -4 78 -12 78 -24v-15c0 -16.667 -57.333 -35 -172 -55l-164 -70l-133 -461l-8 -8h-15
c-28 0 -49 13 -63 39v8c0 25.333 36.667 153 110 383h-8l-47 -8h-16c-28.667 0 -52 15.667 -70 47v23c0 8.66699 57.333 24.334 172 47.001c120 390.667 206 586 258 586c34 26 62.667 39 86 39z" />
    <glyph glyph-name="g" unicode="g" horiz-adv-x="611" 
d="M547 553c41.333 -14 61.999 -27 61.999 -39v-8l-195 -570c-95.333 -318 -217.666 -477 -366.999 -477c-73.333 17.333 -110 43.333 -110 78l8 8h8l63 -16h7c122 0 247 216.333 375 649c-120 -109.333 -205.667 -164 -257 -164h-63c-28 0 -54 39 -78 117
c0 114 119.667 244 359 390l39 8h32c22 0 48 -13 78 -39c0 28 13 49 39 63zM93.999 100v-7.99902h8c144.667 52 269.667 164 375 336l-39 15c-136 -52.667 -237.667 -133.334 -305 -242.001c-26 -33.333 -39 -67 -39 -101z" />
    <glyph glyph-name="h" unicode="h" horiz-adv-x="686" 
d="M406 943c47.333 -10 71 -23 71 -39v-15l-289 -610v-8h7c111.333 132 200 215.333 266 250l39 8c46.667 -8 70 -31.333 70 -70l-54 -305v-39l7 -39c24 0 81.333 28.667 172 86l8 -8c0 -72 -52 -124 -156 -156h-16c-58 0 -94.333 57.333 -109 172l47 250
c-171.333 -151.333 -304.333 -302.333 -399 -453h-23c-9.33301 0 -25 18 -47 54c-0 80.667 130.333 385.667 391 915l7 7h8z" />
    <glyph glyph-name="i" unicode="i" horiz-adv-x="340" 
d="M227 943h14.999c28.667 0 54.667 -18 78 -54v-16c0 -8.66699 -23.333 -27 -70 -55h-31c-16 6 -24 21.667 -24 47c10.667 52 21.334 78 32.001 78zM163.999 592c46.667 0 70 -21 70 -63l-156 -500c0 -20.667 -10.333 -31 -31 -31c-31.333 0 -47 10.333 -47 31
c0 66.667 47 244 141 532c2 20.667 9.66699 31 23 31z" />
    <glyph glyph-name="j" unicode="j" horiz-adv-x="580" 
d="M262 959l14.999 -0.000976562c30 0 56 -18.333 78 -55v-15c0 -8.66699 -23.333 -27 -70 -55h-31c-16 4.66699 -24 20.334 -24 47.001c10.667 52 21.334 78 32.001 78zM261.999 614.999h8c29.333 0 52.666 -15.667 69.999 -47v-78c0 -28 -2.5 -63.333 -7.5 -106
s-12.833 -93.334 -23.5 -152.001h7l274 47l8 -8v-7c0 -54.667 -91.333 -94 -274 -118c0 -10 -15.667 -15 -47 -15c-96 -375.333 -200 -563 -312 -563h-47c-65.333 0 -114.666 52.333 -147.999 157v54c0 182.667 130 320.667 390 414c36.667 0 55 28.667 55 86
c20.667 70.667 31 151.334 31 242.001l-8 63c8 20.667 16 31 24 31zM-145.001 -283.001c8 -47.333 26.333 -70.999 55 -70.999c92 0 178 151.333 258 454c-208.667 -78.667 -313 -206.334 -313 -383.001z" />
    <glyph glyph-name="k" unicode="k" horiz-adv-x="871" 
d="M367 881c28.667 0 49.667 -13.001 63 -39.001v-24c0 -36.667 -57.333 -185 -172 -445l221.5 171.5c64.333 51.667 120.5 98.834 168.5 141.501l32 7c36 -10 54 -30.667 54 -62c-64.667 -60 -133.834 -118.333 -207.501 -175s-152.834 -113 -237.501 -169v-8
c18 0 111.667 -65 281 -195l86 -23h39c34.667 0 79 31 133 93c16 -5.33301 24 -21 24 -47v-15c0 -49.333 -44.333 -86 -133 -110h-16c-107.333 0 -232.333 65.333 -375 196c-23.333 20.667 -59.666 31 -108.999 31h-31l-16 -39l16 -16c0 -71.333 -44.333 -152 -133 -242
c-23.333 8.66699 -41.666 24.334 -54.999 47.001v16c62.667 164 94 262.667 94 296c22 12 53.333 77.333 94 196c98.667 207.333 148 342.666 148 405.999l8 8h23z" />
    <glyph glyph-name="l" unicode="l" horiz-adv-x="371" 
d="M281 865c26 0 49.667 -15.668 71 -47.001c-41.333 -173.333 -122.333 -415.333 -243 -726c-22.667 -88.667 -40.667 -133 -54 -133c-36.667 2.66699 -55 18.334 -55 47.001c0 50 75.667 284.333 227 703c12 104 30 156 54 156z" />
    <glyph glyph-name="m" unicode="m" horiz-adv-x="988" 
d="M492 654c78 0 116.999 -59.668 116.999 -179.001c-8.66699 -90.667 -19 -150.667 -31 -180v-8h8c12 46 95.333 137.333 250 274l23 15c43.333 0 69.666 -28.667 78.999 -86l-71 -320c0 -50.667 23.667 -89.667 71 -117l7 8h8l16 -16v-8c-8.66699 -20.667 -27 -31 -55 -31
c-88.667 45.333 -133 113 -133 203l55 234c-130.667 -132 -227 -264.667 -289 -398l-47 -55c-41.333 18 -62 46.667 -62 86c0 17.333 6.33301 57.833 19 121.5s32.334 150.834 59.001 261.501l7 70l-7 39c-125.333 -42 -261 -187.667 -407 -437
c-17.333 -68 -32.666 -102 -45.999 -102h-16c-31.333 18 -47 41.667 -47 71l148 500l24 15c46.667 -16 70 -34 70 -54l-23 -102c128 128.667 219 193.667 273 195z" />
    <glyph glyph-name="n" unicode="n" horiz-adv-x="645" 
d="M531 545l24 -0.00390625c28.667 0 52 -15.667 70 -47v-16c0 -43.333 -44.333 -176 -133 -398l-15 -70v-39l39 7l7 -7v-32l-39 -31h-23c-46.667 22 -70 61 -70 117c0 55.333 46.667 196 140 422h-15c-48 -23.333 -109.5 -73.166 -184.5 -149.499
s-164.5 -180.166 -268.5 -311.499h-8c-36.667 14.667 -55 38.334 -55 71.001v7c0 32.667 54.667 168.334 164 407.001c2.66699 30.667 10.667 46 24 46h39l39 -39v-7c0 -24 -21 -81.333 -63 -172c146 147.333 255.333 228 328 242z" />
    <glyph glyph-name="o" unicode="o" horiz-adv-x="434" 
d="M258 623l15 0.000976562c64 0 111 -41.667 141 -125v-62c0 -160 -70.333 -298.333 -211 -415c-24 -12.667 -45 -22.334 -63 -29.001s-33.333 -10 -46 -10c-62.667 28 -94 77.667 -94 149v8c-0 78 23.333 153.333 70 226l-7 55c0 90 65 157.667 195 203zM281 537.001
c0 -20 -31.001 -72 -93.001 -156c-30 -44 -53.167 -86.667 -69.5 -128s-27.166 -82 -32.499 -122v-55c80.667 0 158.667 93.667 234 281l16 125v8c0 27.333 -7.66699 43 -23 47h-32z" />
    <glyph glyph-name="p" unicode="p" horiz-adv-x="637" 
d="M250 600c46.667 0 69.999 -26.332 69.999 -78.999c56.667 52.667 119.334 79 188.001 79c50.667 0 87 -41.667 109 -125v-32c0 -88 -67.667 -160.667 -203 -218l-109 -16h-24l-54 8c-63.333 -170 -110.333 -318.667 -141 -446l-23 -15h-8
c-36.667 16.667 -55 55.667 -55 117c-0 59.333 49.333 194.666 148 405.999l-7 8v24c23.333 0 52 93.667 86 281l7 8h16zM272.999 303.001l-0.000976562 -16c172 36.667 258 101.667 258 195v24h-23c-75.333 0 -153.666 -67.667 -234.999 -203z" />
    <glyph glyph-name="q" unicode="q" horiz-adv-x="636" 
d="M406 648c47.333 -6 71 -29.333 71 -70v-8c0 -15.333 -10.667 -23 -32 -23l-31 8c-88.667 -55.333 -185 -159.666 -289 -312.999c-20.667 -51.333 -31 -90.333 -31 -117c5.33301 -31.333 13 -47 23 -47c146 32 219 107.667 219 227c35.333 140.667 61.333 211 78 211h16
c41.333 -16 62 -42 62 -78c0 -94.667 -31.333 -196.334 -94 -305.001l-15 -78c165.333 93.333 259 140 281 140h16l15 -15c0 -46 -106.667 -121.667 -320 -227l-8 -8v-23c130.667 -214.667 196 -373.667 196 -477v-23c0 -57.333 -34 -86 -102 -86
c-121.333 0 -189 140.667 -203 422l8 156c-30.667 0 -49 21 -55 63c0 11.333 23.333 19 70 23l8 55c-66.667 -36.667 -116 -55 -148 -55c-94 24.667 -141 71.667 -141 141c0 118 119.667 287 359 507h47zM352 -211v-47c0 -169.333 31 -281.333 93 -336
c13.333 0 24 18.333 32 55c0 46.667 -39.333 156 -118 328h-7z" />
    <glyph glyph-name="r" unicode="r" horiz-adv-x="520" 
d="M109 602c47.333 0 70.999 -20.999 70.999 -62.999l-32 -141v-7h8c72 130 150.333 195 235 195h39c46.667 -10 70 -23 70 -39c-13.333 -17.333 -62.666 -38.333 -147.999 -63c-126.667 -124.667 -210 -278.334 -250 -461.001c-4 -26 -12 -39 -24 -39h-31
c-31.333 18 -47 41.667 -47 71v39c0 47.333 26 214 78 500l8 8h23z" />
    <glyph glyph-name="s" unicode="s" horiz-adv-x="504" 
d="M331 609h23c70.667 0 112.334 -36.333 125.001 -109c-4.66699 -20.667 -15 -31 -31 -31c-26 0 -49.333 18 -70 54h-16c-166.667 -44 -250 -98.667 -250 -164c13.333 -38.667 96.666 -93.334 249.999 -164.001c62.667 -60.667 94 -104.667 94 -132v-40
c0 -81.333 -93.667 -162 -281 -242h-16c-36.667 22.667 -55 43.667 -55 63c26 52 54.667 78 86 78l8 -39c114.667 62.667 172 127.667 172 195c0 34 -93.667 96.667 -281 188c-36.667 36.667 -60 78.334 -70 125.001c0 86 104 158.667 312 218z" />
    <glyph glyph-name="t" unicode="t" horiz-adv-x="715" 
d="M414 1109c46.667 0 69.999 -20.667 69.999 -62c-23.333 -60.667 -46 -125.167 -68 -193.5s-43.333 -141.833 -64 -220.5l289 78h15l39 -31v-32c0 -21.333 -104 -52.333 -312 -93c-52 0 -78 -31.333 -78 -94l-110 -461l-7 -8h-8c-47.333 10 -71 23 -71 39l110 508
c-13.333 -5.33301 -31.666 -9.33301 -54.999 -12s-52 -4 -86 -4c-28.667 0 -54.667 18.333 -78 55v16l23 23l47 -8l180 16c82 322.667 136.667 484 164 484z" />
    <glyph glyph-name="u" unicode="u" horiz-adv-x="629" 
d="M195 672c31.333 0 54.999 -18.332 70.999 -54.999c-114.667 -239.333 -172 -403.333 -172 -492v-23h8c184.667 143.333 304.334 278.666 359.001 405.999l70 109h16c31.333 0 52 -15.667 62 -47c-93.333 -200.667 -140 -369.667 -140 -507
c0 -42.667 15.667 -76.667 47 -102v-8l-24 -23h-23c-57.333 31.333 -86 78 -86 140v71l8 93c-144 -150.667 -238 -226 -282 -226h-23c-57.333 30 -86 76.667 -86 140c-0 78.667 57.333 250.667 172 516l8 8h15z" />
    <glyph glyph-name="v" unicode="v" horiz-adv-x="512" 
d="M398 750h15.998c47.333 0 73.333 -31.333 78 -94l-23 -15l-24 15c-54.667 -93.333 -106 -191.166 -154 -293.499s-93 -210.166 -135 -323.499c0 -26.667 -13 -47.334 -39 -62.001h-15c-52 10 -86 114 -102 312l8 141l-8 265l23 16c57.333 -8 86 -36.667 86 -86l-15 -344
l8 -93v-8c8.66699 2 50.334 93 125.001 273c36 71.333 68.333 131.666 97 180.999s53.334 88 74.001 116z" />
    <glyph glyph-name="w" unicode="w" horiz-adv-x="895" 
d="M813 719c24 0 44.667 -20.9971 62 -62.9971c-117.333 -364 -203.333 -575 -258 -633c-43.333 -46.667 -90 -70 -140 -70c-94 52.667 -141 138.667 -141 258v70l8 39c-126.667 -218.667 -215.334 -328 -266.001 -328c-52 28.667 -78 62.667 -78 102v15
c0 29.333 7.66699 84.166 23 164.499s39 187.166 71 320.499c0 20.667 5 31 15 31h39c31.333 -12.667 47 -33.334 47 -62.001c-34 -128 -59.333 -228.167 -76 -300.5s-25 -118.166 -25 -137.499c35.333 42 76.333 99.833 123 173.5s99.334 164.167 158.001 271.5
c14.667 36.667 33 55 55 55c32.667 -14 50.667 -27 54 -39v-47c-20.667 -88.667 -36.167 -161.334 -46.5 -218.001s-15.5 -98.667 -15.5 -126c12 -104 30.333 -156 55 -156c42 0 94 70.333 156 211c82.667 221.333 134.667 375 156 461z" />
    <glyph glyph-name="x" unicode="x" horiz-adv-x="621" 
d="M523 688l8 0.00195312c47.333 0 71 -21 71 -63v-8c-82.667 -77.333 -151.667 -146.5 -207 -207.5s-98.333 -114.167 -129 -159.5v-16c0 -138 46.667 -242 140 -312c-5.33301 -16 -21 -24 -47 -24c-66 29.333 -120.667 99.666 -164 210.999l-7 39h-8
c-58.667 -96.667 -97.667 -151.334 -117 -164.001h-24l-39 39c-0 37.333 57.333 123.333 172 258l-16 328c4 42 12 63 24 63h15c28.667 0 49.667 -13 63 -39v-86l-8 -31l8 -24l-8 -8l8 -86h8c11.333 39.333 97 136 257 290z" />
    <glyph glyph-name="y" unicode="y" horiz-adv-x="637" 
d="M195 602l7.99902 -0.00195312c52 -8 78 -31.667 78 -71l-70 -297v-62c0 -38.667 7.66699 -83 23 -133h16c12.667 0.666992 75.334 118 188.001 352c54.667 108.667 91 166 109 172c28.667 0 52 -15.667 70 -47v-16l-94 -187c-44 -153.333 -101 -260.333 -171 -321
c-72 -112.667 -130.5 -217.5 -175.5 -314.5s-77.833 -187.5 -98.5 -271.5l-8 -8h-7c-17.333 0 -38.333 21 -63 63c-0 70.667 70.333 237.334 211 500.001v8c-62.667 54.667 -94 135.334 -94 242.001v16c32 250 58 375 78 375z" />
    <glyph glyph-name="z" unicode="z" horiz-adv-x="511" 
d="M415 547c41.333 -20 61.999 -46 61.999 -78c0 -51.333 -60 -145 -180 -281c73.333 0 115 -44.333 125 -133c0 -134 -114.333 -342.333 -343 -625c-58 -52 -115.333 -78 -172 -78c-54.667 26.667 -86 50 -94 70l16 15l39 -7h15c98.667 0 236.667 171.667 414 515
c21.333 44 32 88.333 32 133v24c-46 0 -114 -34 -204 -102h-15c-31.333 32.667 -47 58.667 -47 78c192 200 291 320 297 360c-39.333 -19.333 -77.166 -40 -113.499 -62s-71.5 -45.667 -105.5 -71h-23c-31.333 25.333 -47 54 -47 86c176 104 290.667 156 344 156z" />
    <glyph glyph-name="braceleft" unicode="{" horiz-adv-x="535" 
d="M391 1183l23.002 -0.000976562c68 -18 102 -52 102 -102c-8 -20.667 -16 -31 -24 -31c-18.667 0 -39.334 10.333 -62.001 31h-8c-146 0 -219 -70.333 -219 -211c31.333 -111.333 47 -189.333 47 -234c0 -78 -34 -117 -102 -117l24 -86v-47
c0 -23.333 -26 -117.333 -78 -282l-8 -93v-78c0 -47.333 23.333 -71 70 -71h71c15.333 -5.33301 23 -21 23 -47v-23c0 -15.333 -20.667 -25.666 -62 -30.999c-108 0 -168 72.667 -180 218l-8 55c0 76.667 31.333 207 94 391v23c0 29.333 -28.667 58 -86 86v63l23 23l24 -8
c78 0 117 18.333 117 55v47c-26.667 81.333 -42.334 149 -47.001 203c0 121.333 44.333 199.333 133 234c52.667 21.333 97 32 133 32z" />
    <glyph glyph-name="bar" unicode="|" 
 />
    <glyph glyph-name="braceright" unicode="}" horiz-adv-x="535" 
d="M102 1188l22.9971 -0.000976562c161.333 -22.667 242 -75 242 -157l24 -109c-3.33301 -28 -8.66602 -58.833 -15.999 -92.5s-17.666 -70.5 -30.999 -110.5v-47c0 -36.667 39 -55 117 -55l31 8l16 -23v-55l-70 -55l-16 -54l78 -274l16 -133
c0 -176.667 -65.333 -265 -196 -265c-36 6.66699 -54 17 -54 31v23c2.66699 31.333 10.334 47 23.001 47h70c47.333 0 71 23.333 71 70v79c0 79.333 -26 186 -78 320l-8 55v47l23 85c-67.333 0 -101 41.667 -101 125c0 16.667 3.83301 44.334 11.5 83.001
s19.5 89.334 35.5 152.001c-14 114.667 -48 172 -102 172c0 13.333 -39 23.666 -117 30.999h-8c-21.333 -20.667 -42.333 -31 -63 -31c-7.33301 0 -15 10.333 -23 31c18.667 68 52.667 102 102 102z" />
    <glyph glyph-name="asciitilde" unicode="~" 
 />
    <glyph glyph-name="exclamdown" unicode="&#xa1;" 
 />
    <glyph glyph-name="cent" unicode="&#xa2;" 
 />
    <glyph glyph-name="sterling" unicode="&#xa3;" 
 />
    <glyph glyph-name="currency" unicode="&#xa4;" 
 />
    <glyph glyph-name="yen" unicode="&#xa5;" 
 />
    <glyph glyph-name="brokenbar" unicode="&#xa6;" 
 />
    <glyph glyph-name="section" unicode="&#xa7;" 
 />
    <glyph glyph-name="dieresis" unicode="&#xa8;" 
 />
    <glyph glyph-name="copyright" unicode="&#xa9;" 
 />
    <glyph glyph-name="ordfeminine" unicode="&#xaa;" 
 />
    <glyph glyph-name="guillemotleft" unicode="&#xab;" 
 />
    <glyph glyph-name="logicalnot" unicode="&#xac;" 
 />
    <glyph glyph-name="registered" unicode="&#xae;" 
 />
    <glyph glyph-name="macron" unicode="&#xaf;" 
 />
    <glyph glyph-name="degree" unicode="&#xb0;" 
 />
    <glyph glyph-name="plusminus" unicode="&#xb1;" 
 />
    <glyph glyph-name="uni00B2" unicode="&#xb2;" 
 />
    <glyph glyph-name="uni00B3" unicode="&#xb3;" 
 />
    <glyph glyph-name="acute" unicode="&#xb4;" 
 />
    <glyph glyph-name="mu" unicode="&#xb5;" 
 />
    <glyph glyph-name="paragraph" unicode="&#xb6;" 
 />
    <glyph glyph-name="periodcentered" unicode="&#xb7;" 
 />
    <glyph glyph-name="cedilla" unicode="&#xb8;" 
 />
    <glyph glyph-name="uni00B9" unicode="&#xb9;" 
 />
    <glyph glyph-name="ordmasculine" unicode="&#xba;" 
 />
    <glyph glyph-name="guillemotright" unicode="&#xbb;" 
 />
    <glyph glyph-name="onequarter" unicode="&#xbc;" 
 />
    <glyph glyph-name="onehalf" unicode="&#xbd;" 
 />
    <glyph glyph-name="threequarters" unicode="&#xbe;" 
 />
    <glyph glyph-name="questiondown" unicode="&#xbf;" 
 />
    <glyph glyph-name="Agrave" unicode="&#xc0;" 
 />
    <glyph glyph-name="Aacute" unicode="&#xc1;" 
 />
    <glyph glyph-name="Acircumflex" unicode="&#xc2;" 
 />
    <glyph glyph-name="Atilde" unicode="&#xc3;" 
 />
    <glyph glyph-name="Adieresis" unicode="&#xc4;" horiz-adv-x="679" 
d="M335 995h16c29.333 0 55.333 -18.333 78 -55v-15c0 -8.66699 -23.667 -27 -71 -55h-31c-15.333 5.33301 -23 21 -23 47c10 52 20.333 78 31 78zM651 1002l16 -2.99902c28 -6.66699 49.333 -30.334 64 -71.001l-4 -15c-0.666992 -8 -27.667 -20.667 -81 -38l-30 7
c-14 8.66699 -18 25.667 -12 51c21.333 48.667 37 71.667 47 69zM508 951.001l31 -1l24 -23l-1 -31c-31.333 -43.333 -47 -72 -47 -86c10 -36 17.333 -80 22 -132s6.66699 -112.333 6 -181h-8l8 -8v-8l-8 -7l8 -8l-1 -63h40l46 8c21.333 -9.33301 31.666 -17.333 30.999 -24
c-30 -46.667 -69 -70 -117 -70c-1.33301 -84 21 -185.667 67 -305l7 -101l-23 -15c-67.333 0 -113 133 -137 399l-181 -53h-7l-39 31c-96 -191.333 -154.333 -287 -175 -287h-15l-39 47c10.667 90 156.334 367.333 437.001 832zM252 335.001h8l196 46l1 94l-6 234
c-23.333 -30 -51.5 -76 -84.5 -138s-71.167 -140.667 -114.5 -236z" />
    <glyph glyph-name="Aring" unicode="&#xc5;" 
 />
    <glyph glyph-name="AE" unicode="&#xc6;" 
 />
    <glyph glyph-name="Ccedilla" unicode="&#xc7;" horiz-adv-x="567" 
d="M69 -214c20 16 46.5 42.5 79.5 79.5s72.833 84.833 119.5 143.5c15.333 4 28.333 -3.33301 39 -22l4 -15c-54 -138.667 -104 -214 -150 -226l-23 -6c-40 10.667 -61.667 21 -65 31zM427 826c36.667 -18.667 54.668 -42.332 54.001 -70.999
c0 -19.333 -31.333 -37.333 -94 -54c-140 -94.667 -240 -229.334 -300 -404.001l-8 -54c-0.666992 -83.333 24.666 -125.333 75.999 -126h16c100.667 -0.666992 216 71.333 346 216c8 0 18 -26.333 30 -79c-47.333 -93.333 -144.333 -165.333 -291 -216l-62 -15h-47
c-70 0.666992 -119 63.667 -147 189v71c2 148 110.333 316.333 325 505c45.333 25.333 79.333 38 102 38z" />
    <glyph glyph-name="Egrave" unicode="&#xc8;" 
 />
    <glyph glyph-name="Eacute" unicode="&#xc9;" 
 />
    <glyph glyph-name="Ecircumflex" unicode="&#xca;" 
 />
    <glyph glyph-name="Edieresis" unicode="&#xcb;" 
 />
    <glyph glyph-name="Igrave" unicode="&#xcc;" 
 />
    <glyph glyph-name="Iacute" unicode="&#xcd;" 
 />
    <glyph glyph-name="Icircumflex" unicode="&#xce;" 
 />
    <glyph glyph-name="Idieresis" unicode="&#xcf;" 
 />
    <glyph glyph-name="Eth" unicode="&#xd0;" 
 />
    <glyph glyph-name="Ntilde" unicode="&#xd1;" 
 />
    <glyph glyph-name="Ograve" unicode="&#xd2;" 
 />
    <glyph glyph-name="Oacute" unicode="&#xd3;" 
 />
    <glyph glyph-name="Ocircumflex" unicode="&#xd4;" 
 />
    <glyph glyph-name="Otilde" unicode="&#xd5;" 
 />
    <glyph glyph-name="Odieresis" unicode="&#xd6;" horiz-adv-x="551" 
d="M325 959h16c29.333 0 55.333 -18.333 78 -55v-15c0 -8.66699 -23.333 -27 -70 -55h-32c-15.333 5.33301 -23 21 -23 47c10 52 20.333 78 31 78zM543 959l16 -0.000976562c29.333 0 55.333 -18.333 78 -55v-15c0 -8.66699 -23.333 -27 -70 -55h-31
c-16 4.66699 -24 20.334 -24 47.001c10 52 20.333 78 31 78zM305 716.999l47 0.000976562c83.333 0 143 -78.333 179 -235v-15c0 -170 -88.333 -321 -265 -453c-60 -26 -101.667 -39 -125 -39c-94 0 -141 72.667 -141 218c0 73.333 67.667 229.666 203 468.999
c41.333 36.667 75.333 55 102 55zM367 623c-192.667 -170 -289 -329 -289 -477c0 -35.333 13 -61.333 39 -78c88.667 0 174.667 60 258 180c57.333 94.667 86 165 86 211v55c0 44 -31.333 80.333 -94 109z" />
    <glyph glyph-name="multiply" unicode="&#xd7;" 
 />
    <glyph glyph-name="Oslash" unicode="&#xd8;" 
 />
    <glyph glyph-name="Ugrave" unicode="&#xd9;" 
 />
    <glyph glyph-name="Uacute" unicode="&#xda;" 
 />
    <glyph glyph-name="Ucircumflex" unicode="&#xdb;" 
 />
    <glyph glyph-name="Udieresis" unicode="&#xdc;" horiz-adv-x="738" 
d="M325 959h16c29.333 0 55.333 -18.333 78 -55v-15c0 -8.66699 -23.333 -27 -70 -55h-32c-15.333 5.33301 -23 21 -23 47c10 52 20.333 78 31 78zM700 959l14.999 -0.000976562c30 0 56 -18.333 78 -55v-15c0 -8.66699 -23.333 -27 -70 -55h-31
c-16 4.66699 -24 20.334 -24 47.001c10.667 52 21.334 78 32.001 78zM241.999 677.999l7.99805 0.00195312c16 0 29 -23.667 39 -71l-203 -421l-8 -55v-47c203.333 0 380.333 156.333 531 469c27.333 83.333 48.333 125 63 125h16c20.667 -9.33301 31 -27.666 31 -54.999v-8
c0 -15.333 -80.667 -213.333 -242 -594c-42 -140 -68.333 -210 -79 -210h-15c-20.667 10 -31 25.333 -31 46c0 22 7 57.667 21 107s35.667 112.666 65 189.999c-127.333 -109.333 -244.666 -164 -351.999 -164c-57.333 11.333 -86 55.666 -86 132.999s65 244 195 500
c8.66699 23.333 24.334 41.666 47.001 54.999z" />
    <glyph glyph-name="Yacute" unicode="&#xdd;" 
 />
    <glyph glyph-name="Thorn" unicode="&#xde;" 
 />
    <glyph glyph-name="germandbls" unicode="&#xdf;" horiz-adv-x="792" 
d="M585 771l33.0039 -0.000976562c40.667 0 66.667 -13 78 -39v-16c0 -42 -52 -117.333 -156 -226l63 8c94 0 148.667 -34 164 -102v-31c0 -96 -96.333 -202.333 -289 -319l-71 -24h-31l-47 47v16c12.667 26 33.667 49.333 63 70c15.333 0 24.666 -5.66699 27.999 -17
c118.667 6.66699 208 87.334 268 242.001v39l-39 8h-15c-68.667 0 -144.334 -23.333 -227.001 -70h-31l-39 31v16c74 69.333 131.667 126.833 173 172.5s67 79.167 77 100.5v8l-120 -15c-88.667 -30 -145 -90 -169 -180l-31 -109l-133 -461l-8 -8h-16
c-28.667 0 -49.334 13 -62.001 39v8c0 27.333 36.333 155 109 383l31 109c38 151.333 83 227 135 227c33.333 58 120.666 89 261.999 93z" />
    <glyph glyph-name="agrave" unicode="&#xe0;" 
 />
    <glyph glyph-name="aacute" unicode="&#xe1;" 
 />
    <glyph glyph-name="acircumflex" unicode="&#xe2;" horiz-adv-x="809" 
d="M592 746c-10 38.667 -31 90.333 -63 155l-65 -33l-84 -43c-11.333 4 -16 16.333 -14 37l4 15c80 78 138 111.333 174 100v-1l10 -1l2 -2l5 -2l6 -9c65.333 -64 94 -118.333 86 -163l-4 -23c-18.667 -23.333 -32.667 -34 -42 -32zM422 739.999l54.999 0.00292969
c20.667 -8 31 -26 31 -54v-8h-47c-161.333 -88.667 -283.666 -247.667 -366.999 -477l-8 -39c0 -32.667 13 -61.334 39 -86.001c140.667 95.333 229.334 204.666 266.001 327.999c0 39.333 26 104.666 78 195.999h8c33.333 0 56.666 -10.667 69.999 -32l-86 -281l-8 -117
c0 -72 23.333 -121.667 70 -149l266 79v-16c-78.667 -88.667 -162 -133 -250 -133c-94 0 -154 73 -180 219c-104 -109.333 -174.333 -164 -211 -164h-39c-72.667 33.333 -109 88 -109 164c-0 147.333 109.333 319.333 328 516c40 36 71.333 54 94 54z" />
    <glyph glyph-name="atilde" unicode="&#xe3;" 
 />
    <glyph glyph-name="adieresis" unicode="&#xe4;" horiz-adv-x="809" 
d="M301 959l15 -0.000976562c30 0 56.333 -18.333 79 -55v-15c0 -8.66699 -23.667 -27 -71 -55h-31c-15.333 4.66699 -23 20.334 -23 47.001c10 52 20.333 78 31 78zM577 958.999l14.999 -0.000976562c29.333 0 55.333 -18.333 78 -55v-15c0 -8.66699 -23.333 -27 -70 -55
h-31c-16 4.66699 -24 20.334 -24 47.001c10.667 52 21.334 78 32.001 78zM421.999 739.998l54.999 0.00292969c20.667 -8 31 -26 31 -54v-8h-47c-161.333 -88.667 -283.666 -247.667 -366.999 -477l-8 -39c0 -32.667 13 -61.334 39 -86.001
c140.667 95.333 229.334 204.666 266.001 327.999c0 39.333 26 104.666 78 195.999h8c33.333 0 56.666 -10.667 69.999 -32l-86 -281l-8 -117c0 -72 23.333 -121.667 70 -149l266 79v-16c-78.667 -88.667 -162 -133 -250 -133c-94 0 -154 73 -180 219
c-104 -109.333 -174.333 -164 -211 -164h-39c-72.667 33.333 -109 88 -109 164c0 147.333 109.333 319.333 328 516c40 36 71.333 54 94 54z" />
    <glyph glyph-name="aring" unicode="&#xe5;" 
 />
    <glyph glyph-name="ae" unicode="&#xe6;" 
 />
    <glyph glyph-name="ccedilla" unicode="&#xe7;" horiz-adv-x="590" 
d="M128 -221c36.667 36.667 96.999 101 180.999 193c14.667 4 27.334 -3.33301 38.001 -22l4 -15c-44 -114 -89.667 -177 -137 -189l-22 -6c-36.667 6.66699 -56.667 14.667 -60 24zM390.999 670c62 -12 93.001 -27.667 93.001 -47v-39l-31 -23l-47 15
c-208 -103.333 -312 -233.333 -312 -390c0 -52 20.667 -93.667 62 -125c81.333 0 211.666 75.333 390.999 226h8l15 -16c0 -93.333 -109.333 -187 -328 -281l-70 -8c-114.667 24.667 -172 108 -172 250c0 164.667 125 310.667 375 438h16z" />
    <glyph glyph-name="egrave" unicode="&#xe8;" 
 />
    <glyph glyph-name="eacute" unicode="&#xe9;" 
 />
    <glyph glyph-name="ecircumflex" unicode="&#xea;" 
 />
    <glyph glyph-name="edieresis" unicode="&#xeb;" 
 />
    <glyph glyph-name="igrave" unicode="&#xec;" 
 />
    <glyph glyph-name="iacute" unicode="&#xed;" 
 />
    <glyph glyph-name="icircumflex" unicode="&#xee;" horiz-adv-x="348" 
d="M164 592c46.667 0 70 -21 70 -63l-156 -500c0 -20.667 -10.333 -31 -31 -31c-31.333 0 -47 10.333 -47 31c0 66.667 47 244 141 532c2 20.667 9.66699 31 23 31zM320 659c-10.667 40.667 -31.667 92 -63 154l-65 -32.5l-84 -42.5c-11.333 3.33301 -16 15.333 -14 36l4 16
c80 78 138 111 174 99l10 -2l13 -12c65.333 -64.667 94 -119 86 -163l-4 -23c-19.333 -24 -33.333 -35 -42 -33zM164 592c46.667 0 70 -21 70 -63l-156 -500c0 -20.667 -10.333 -31 -31 -31c-31.333 0 -47 10.333 -47 31c0 66.667 47 244 141 532c2 20.667 9.66699 31 23 31
z" />
    <glyph glyph-name="idieresis" unicode="&#xef;" 
 />
    <glyph glyph-name="eth" unicode="&#xf0;" 
 />
    <glyph glyph-name="ntilde" unicode="&#xf1;" 
 />
    <glyph glyph-name="ograve" unicode="&#xf2;" 
 />
    <glyph glyph-name="oacute" unicode="&#xf3;" 
 />
    <glyph glyph-name="ocircumflex" unicode="&#xf4;" 
 />
    <glyph glyph-name="otilde" unicode="&#xf5;" 
 />
    <glyph glyph-name="odieresis" unicode="&#xf6;" horiz-adv-x="434" 
d="M227 841l14.999 -0.000976562c29.333 0 55.333 -18.333 78 -55v-15c0 -8.66699 -23.333 -27 -70 -55h-31c-16 4.66699 -24 20.334 -24 47.001c10.667 52 21.334 78 32.001 78zM398.999 840.999l16 -0.000976562c29.333 0 55.333 -18.333 78 -55v-15
c0 -8.66699 -23.667 -27 -71 -55h-31c-15.333 4.66699 -23 20.334 -23 47.001c10 52 20.333 78 31 78zM257.999 622.998l15 0.000976562c64 0 111 -41.667 141 -125v-62c0 -160 -70.333 -298.333 -211 -415c-24 -12.667 -45 -22.334 -63 -29.001s-33.333 -10 -46 -10
c-62.667 28 -94 77.667 -94 149v8c0 78 23.333 153.333 70 226l-7 55c0 90 65 157.667 195 203zM280.999 536.999c0 -20 -31.001 -72 -93.001 -156c-30 -44 -53.167 -86.667 -69.5 -128s-27.166 -82 -32.499 -122v-55c80.667 0 158.667 93.667 234 281l16 125v8
c0 27.333 -7.66699 43 -23 47h-32z" />
    <glyph glyph-name="divide" unicode="&#xf7;" 
 />
    <glyph glyph-name="oslash" unicode="&#xf8;" 
 />
    <glyph glyph-name="ugrave" unicode="&#xf9;" 
 />
    <glyph glyph-name="uacute" unicode="&#xfa;" 
 />
    <glyph glyph-name="ucircumflex" unicode="&#xfb;" 
 />
    <glyph glyph-name="udieresis" unicode="&#xfc;" horiz-adv-x="629" 
d="M301 959l15 -0.000976562c30 0 56.333 -18.333 79 -55v-15c0 -8.66699 -23.667 -27 -71 -55h-31c-15.333 4.66699 -23 20.334 -23 47.001c10 52 20.333 78 31 78zM577 958.999l14.999 -0.000976562c29.333 0 55.333 -18.333 78 -55v-15c0 -8.66699 -23.333 -27 -70 -55
h-31c-16 4.66699 -24 20.334 -24 47.001c10.667 52 21.334 78 32.001 78zM194.999 671.998c31.333 0 54.999 -18.332 70.999 -54.999c-114.667 -239.333 -172 -403.333 -172 -492v-23h8c184.667 143.333 304.334 278.666 359.001 405.999l70 109h16
c31.333 0 52 -15.667 62 -47c-93.333 -200.667 -140 -369.667 -140 -507c0 -42.667 15.667 -76.667 47 -102v-8l-24 -23h-23c-57.333 31.333 -86 78 -86 140v71l8 93c-144 -150.667 -238 -226 -282 -226h-23c-57.333 30 -86 76.667 -86 140c0 78.667 57.333 250.667 172 516
l8 8h15z" />
    <glyph glyph-name="yacute" unicode="&#xfd;" 
 />
    <glyph glyph-name="thorn" unicode="&#xfe;" 
 />
    <glyph glyph-name="ydieresis" unicode="&#xff;" 
 />
    <glyph glyph-name="Amacron" unicode="&#x100;" 
 />
    <glyph glyph-name="amacron" unicode="&#x101;" 
 />
    <glyph glyph-name="Abreve" unicode="&#x102;" 
 />
    <glyph glyph-name="abreve" unicode="&#x103;" 
 />
    <glyph glyph-name="Aogonek" unicode="&#x104;" 
 />
    <glyph glyph-name="aogonek" unicode="&#x105;" 
 />
    <glyph glyph-name="Cacute" unicode="&#x106;" 
 />
    <glyph glyph-name="cacute" unicode="&#x107;" 
 />
    <glyph glyph-name="Ccircumflex" unicode="&#x108;" 
 />
    <glyph glyph-name="ccircumflex" unicode="&#x109;" 
 />
    <glyph glyph-name="Cdotaccent" unicode="&#x10a;" 
 />
    <glyph glyph-name="cdotaccent" unicode="&#x10b;" 
 />
    <glyph glyph-name="Ccaron" unicode="&#x10c;" 
 />
    <glyph glyph-name="ccaron" unicode="&#x10d;" 
 />
    <glyph glyph-name="Dcaron" unicode="&#x10e;" 
 />
    <glyph glyph-name="dcaron" unicode="&#x10f;" 
 />
    <glyph glyph-name="Dcroat" unicode="&#x110;" 
 />
    <glyph glyph-name="dcroat" unicode="&#x111;" 
 />
    <glyph glyph-name="Emacron" unicode="&#x112;" 
 />
    <glyph glyph-name="emacron" unicode="&#x113;" 
 />
    <glyph glyph-name="Ebreve" unicode="&#x114;" 
 />
    <glyph glyph-name="ebreve" unicode="&#x115;" 
 />
    <glyph glyph-name="Edotaccent" unicode="&#x116;" 
 />
    <glyph glyph-name="edotaccent" unicode="&#x117;" 
 />
    <glyph glyph-name="Eogonek" unicode="&#x118;" 
 />
    <glyph glyph-name="eogonek" unicode="&#x119;" 
 />
    <glyph glyph-name="Ecaron" unicode="&#x11a;" 
 />
    <glyph glyph-name="ecaron" unicode="&#x11b;" 
 />
    <glyph glyph-name="Gcircumflex" unicode="&#x11c;" 
 />
    <glyph glyph-name="gcircumflex" unicode="&#x11d;" 
 />
    <glyph glyph-name="Gbreve" unicode="&#x11e;" horiz-adv-x="639" 
d="M519 1024c9.33301 -1.33301 20 -15.667 32 -43l-3 -23c0.666992 -31.333 -38.333 -69.333 -117 -114c-1.33301 -1.33301 -2.83301 -2.5 -4.5 -3.5s-3.16699 -2.16699 -4.5 -3.5l-5 -1l-2 -1l-10 1h-1c-37.333 -2 -76 39.333 -116 124v16c4 20 11.667 30.333 23 31l51 -50
c16.667 -16 32.667 -30.667 48 -44c42.667 40.667 73.667 78 93 112zM496 822.999l23 -0.99707c12.667 0 22.667 -20.667 30 -62v-24c0 -6 -43.667 -12.667 -131 -20c-226 -158.667 -339.333 -307 -340 -445c0 -64.667 51.667 -101.334 155 -110.001
c140.667 -0.666992 211.334 19.666 212.001 60.999l87 194l-15 1l-289 -37l-31 62c0 32 52.333 47.333 157 46c25.333 13.333 90.333 20.666 195 21.999c46.667 -0.666992 69.667 -32 69 -94c0 -26.667 -24 -94.334 -72 -203.001c-13.333 -36 -29.833 -70 -49.5 -102
s-42.834 -62.667 -69.501 -92c-26 6 -38.667 27 -38 63l-196 -15c-97.333 0.666992 -161.666 74.334 -192.999 221.001v24c1.33301 140 109.666 295 324.999 465c90 30.667 147 46 171 46z" />
    <glyph glyph-name="gbreve" unicode="&#x11f;" horiz-adv-x="611" 
d="M595 843c10 0 20.667 -14.333 32 -43l-2 -23c1.33301 -31.333 -38 -69 -118 -113l-4 -4l-4 -4h-5l-3 -1l-10 1v-1c-38 -1.33301 -77 40 -117 124v16c4 20.667 12 31 24 31l51 -49.5l48 -44.5c41.333 39.333 72.333 77 93 113zM547 553c41.333 -14 61.999 -27 61.999 -39
v-8l-195 -570c-95.333 -318 -217.666 -477 -366.999 -477c-73.333 17.333 -110 43.333 -110 78l8 8h8l63 -16h7c122 0 247 216.333 375 649c-120 -109.333 -205.667 -164 -257 -164h-63c-28 0 -54 39 -78 117c0 114 119.667 244 359 390l39 8h32c22 0 48 -13 78 -39
c0 28 13 49 39 63zM93.999 100v-7.99902h8c144.667 52 269.667 164 375 336l-39 15c-136 -52.667 -237.667 -133.334 -305 -242.001c-26 -33.333 -39 -67 -39 -101z" />
    <glyph glyph-name="Gdotaccent" unicode="&#x120;" 
 />
    <glyph glyph-name="gdotaccent" unicode="&#x121;" 
 />
    <glyph glyph-name="Gcommaaccent" unicode="&#x122;" 
 />
    <glyph glyph-name="gcommaaccent" unicode="&#x123;" 
 />
    <glyph glyph-name="Hcircumflex" unicode="&#x124;" 
 />
    <glyph glyph-name="hcircumflex" unicode="&#x125;" 
 />
    <glyph glyph-name="Hbar" unicode="&#x126;" 
 />
    <glyph glyph-name="hbar" unicode="&#x127;" 
 />
    <glyph glyph-name="Itilde" unicode="&#x128;" 
 />
    <glyph glyph-name="itilde" unicode="&#x129;" 
 />
    <glyph glyph-name="Imacron" unicode="&#x12a;" 
 />
    <glyph glyph-name="imacron" unicode="&#x12b;" 
 />
    <glyph glyph-name="Ibreve" unicode="&#x12c;" 
 />
    <glyph glyph-name="ibreve" unicode="&#x12d;" 
 />
    <glyph glyph-name="Iogonek" unicode="&#x12e;" 
 />
    <glyph glyph-name="iogonek" unicode="&#x12f;" 
 />
    <glyph glyph-name="Idotaccent" unicode="&#x130;" horiz-adv-x="338" 
d="M249 738h14.999c26.667 -12 39.334 -35.667 38.001 -71c0 -18 -17.333 -78 -52 -180s-86.667 -247 -156 -435c-8 -57.333 -24 -86 -48 -86c-18.667 0 -34 21 -46 63l192 569c20 93.333 39 140 57 140zM334.999 995h16c29.333 0 55.333 -18.333 78 -55v-15
c0 -8.66699 -23.667 -27 -71 -55h-31c-15.333 5.33301 -23 21 -23 47c10 52 20.333 78 31 78z" />
    <glyph glyph-name="dotlessi" unicode="&#x131;" horiz-adv-x="340" 
d="M164 592c46.667 0 70 -21 70 -63l-156 -500c0 -20.667 -10.333 -31 -31 -31c-31.333 0 -47 10.333 -47 31c0 66.667 47 244 141 532c2 20.667 9.66699 31 23 31z" />
    <glyph glyph-name="IJ" unicode="&#x132;" 
 />
    <glyph glyph-name="ij" unicode="&#x133;" 
 />
    <glyph glyph-name="Jcircumflex" unicode="&#x134;" 
 />
    <glyph glyph-name="jcircumflex" unicode="&#x135;" 
 />
    <glyph glyph-name="Kcommaaccent" unicode="&#x136;" 
 />
    <glyph glyph-name="kcommaaccent" unicode="&#x137;" 
 />
    <glyph glyph-name="kgreenlandic" unicode="&#x138;" 
 />
    <glyph glyph-name="Lacute" unicode="&#x139;" 
 />
    <glyph glyph-name="lacute" unicode="&#x13a;" 
 />
    <glyph glyph-name="Lcommaaccent" unicode="&#x13b;" 
 />
    <glyph glyph-name="lcommaaccent" unicode="&#x13c;" 
 />
    <glyph glyph-name="Lcaron" unicode="&#x13d;" 
 />
    <glyph glyph-name="lcaron" unicode="&#x13e;" 
 />
    <glyph glyph-name="Ldot" unicode="&#x13f;" 
 />
    <glyph glyph-name="ldot" unicode="&#x140;" 
 />
    <glyph glyph-name="Lslash" unicode="&#x141;" 
 />
    <glyph glyph-name="lslash" unicode="&#x142;" 
 />
    <glyph glyph-name="Nacute" unicode="&#x143;" 
 />
    <glyph glyph-name="nacute" unicode="&#x144;" 
 />
    <glyph glyph-name="Ncommaaccent" unicode="&#x145;" 
 />
    <glyph glyph-name="ncommaaccent" unicode="&#x146;" 
 />
    <glyph glyph-name="Ncaron" unicode="&#x147;" 
 />
    <glyph glyph-name="ncaron" unicode="&#x148;" 
 />
    <glyph glyph-name="napostrophe" unicode="&#x149;" 
 />
    <glyph glyph-name="Eng" unicode="&#x14a;" 
 />
    <glyph glyph-name="eng" unicode="&#x14b;" 
 />
    <glyph glyph-name="Omacron" unicode="&#x14c;" 
 />
    <glyph glyph-name="omacron" unicode="&#x14d;" 
 />
    <glyph glyph-name="Obreve" unicode="&#x14e;" 
 />
    <glyph glyph-name="obreve" unicode="&#x14f;" 
 />
    <glyph glyph-name="Ohungarumlaut" unicode="&#x150;" 
 />
    <glyph glyph-name="ohungarumlaut" unicode="&#x151;" 
 />
    <glyph glyph-name="OE" unicode="&#x152;" 
 />
    <glyph glyph-name="oe" unicode="&#x153;" 
 />
    <glyph glyph-name="Racute" unicode="&#x154;" 
 />
    <glyph glyph-name="racute" unicode="&#x155;" 
 />
    <glyph glyph-name="Rcommaaccent" unicode="&#x156;" 
 />
    <glyph glyph-name="rcommaaccent" unicode="&#x157;" 
 />
    <glyph glyph-name="Rcaron" unicode="&#x158;" 
 />
    <glyph glyph-name="rcaron" unicode="&#x159;" 
 />
    <glyph glyph-name="Sacute" unicode="&#x15a;" 
 />
    <glyph glyph-name="sacute" unicode="&#x15b;" 
 />
    <glyph glyph-name="Scircumflex" unicode="&#x15c;" 
 />
    <glyph glyph-name="scircumflex" unicode="&#x15d;" 
 />
    <glyph glyph-name="Scedilla" unicode="&#x15e;" horiz-adv-x="598" 
d="M179 -197c62.667 14 130.333 81.333 203 202c15.333 4 28.333 -3.33301 39 -22v-9c-36 -130.667 -83 -202.667 -141 -216l-32 -2c-41.333 12 -63 22.667 -65 32zM491.999 740c41.333 0 70 -31.333 86 -94c-8 -20.667 -15.667 -31 -23 -31h-24l-23 16h-24
c-125.333 0 -255.333 -47 -390 -141l-16 -23v-8c0 -25.333 120 -51.333 360 -78c83.333 -30 125 -81.667 125 -155c-34.667 -118.667 -186 -201.667 -454 -249h-23c-13.333 0 -23.666 20.667 -30.999 62c3.33301 31.333 11 47 23 47l24 -16
c213.333 43.333 340.666 105.333 381.999 186c-17.333 34 -142.333 60 -375 78c-72.667 30 -109 79.333 -109 148c0 92.667 138 176 414 250z" />
    <glyph glyph-name="scedilla" unicode="&#x15f;" horiz-adv-x="480" 
d="M129 -324c68 35.333 123.333 96 166 182c15.333 4 28 -3.33301 38 -22l4 -15c-34 -106.667 -74.667 -166 -122 -178l-22 -7c-37.333 8 -57.333 16.333 -60 25zM313 609l23 -0.000976562c70.667 0 112.334 -36.333 125.001 -109c-4.66699 -20.667 -15 -31 -31 -31
c-26.667 0 -50.334 18 -71.001 54h-15c-166.667 -44 -250 -98.667 -250 -164c12 -38 95.333 -92.667 250 -164c62.667 -61.333 94 -105.333 94 -132v-40c0 -81.333 -100.667 -140 -302 -176h-15c-36.667 22 -55 42.667 -55 62c26 52 54.667 78 86 78l8 -39
c142 6 206 49.333 192 130c0 34 -94 96.667 -282 188c-36.667 38 -60 79.667 -70 125c-0 86.667 104.333 159.334 313 218.001z" />
    <glyph glyph-name="Scaron" unicode="&#x160;" 
 />
    <glyph glyph-name="scaron" unicode="&#x161;" 
 />
    <glyph glyph-name="Tcommaaccent" unicode="&#x162;" 
 />
    <glyph glyph-name="tcommaaccent" unicode="&#x163;" 
 />
    <glyph glyph-name="Tcaron" unicode="&#x164;" 
 />
    <glyph glyph-name="tcaron" unicode="&#x165;" 
 />
    <glyph glyph-name="Tbar" unicode="&#x166;" 
 />
    <glyph glyph-name="tbar" unicode="&#x167;" 
 />
    <glyph glyph-name="Utilde" unicode="&#x168;" 
 />
    <glyph glyph-name="utilde" unicode="&#x169;" 
 />
    <glyph glyph-name="Umacron" unicode="&#x16a;" 
 />
    <glyph glyph-name="umacron" unicode="&#x16b;" 
 />
    <glyph glyph-name="Ubreve" unicode="&#x16c;" 
 />
    <glyph glyph-name="ubreve" unicode="&#x16d;" 
 />
    <glyph glyph-name="Uring" unicode="&#x16e;" 
 />
    <glyph glyph-name="uring" unicode="&#x16f;" 
 />
    <glyph glyph-name="Uhungarumlaut" unicode="&#x170;" 
 />
    <glyph glyph-name="uhungarumlaut" unicode="&#x171;" 
 />
    <glyph glyph-name="Uogonek" unicode="&#x172;" 
 />
    <glyph glyph-name="uogonek" unicode="&#x173;" 
 />
    <glyph glyph-name="Wcircumflex" unicode="&#x174;" 
 />
    <glyph glyph-name="wcircumflex" unicode="&#x175;" 
 />
    <glyph glyph-name="Ycircumflex" unicode="&#x176;" 
 />
    <glyph glyph-name="ycircumflex" unicode="&#x177;" 
 />
    <glyph glyph-name="Ydieresis" unicode="&#x178;" 
 />
    <glyph glyph-name="Zacute" unicode="&#x179;" 
 />
    <glyph glyph-name="zacute" unicode="&#x17a;" 
 />
    <glyph glyph-name="Zdotaccent" unicode="&#x17b;" 
 />
    <glyph glyph-name="zdotaccent" unicode="&#x17c;" 
 />
    <glyph glyph-name="Zcaron" unicode="&#x17d;" 
 />
    <glyph glyph-name="zcaron" unicode="&#x17e;" 
 />
    <glyph glyph-name="longs" unicode="&#x17f;" 
 />
    <glyph glyph-name="florin" unicode="&#x192;" 
 />
    <glyph glyph-name="Aringacute" unicode="&#x1fa;" 
 />
    <glyph glyph-name="aringacute" unicode="&#x1fb;" 
 />
    <glyph glyph-name="AEacute" unicode="&#x1fc;" 
 />
    <glyph glyph-name="aeacute" unicode="&#x1fd;" 
 />
    <glyph glyph-name="Oslashacute" unicode="&#x1fe;" 
 />
    <glyph glyph-name="oslashacute" unicode="&#x1ff;" 
 />
    <glyph glyph-name="circumflex" unicode="&#x2c6;" 
 />
    <glyph glyph-name="caron" unicode="&#x2c7;" 
 />
    <glyph glyph-name="uni02C9" unicode="&#x2c9;" 
 />
    <glyph glyph-name="breve" unicode="&#x2d8;" 
 />
    <glyph glyph-name="dotaccent" unicode="&#x2d9;" 
 />
    <glyph glyph-name="ring" unicode="&#x2da;" 
 />
    <glyph glyph-name="ogonek" unicode="&#x2db;" 
 />
    <glyph glyph-name="tilde" unicode="&#x2dc;" 
 />
    <glyph glyph-name="hungarumlaut" unicode="&#x2dd;" 
 />
    <glyph glyph-name="tonos" unicode="&#x384;" 
 />
    <glyph glyph-name="dieresistonos" unicode="&#x385;" 
 />
    <glyph glyph-name="Alphatonos" unicode="&#x386;" 
 />
    <glyph glyph-name="anoteleia" unicode="&#x387;" 
 />
    <glyph glyph-name="Epsilontonos" unicode="&#x388;" 
 />
    <glyph glyph-name="Etatonos" unicode="&#x389;" 
 />
    <glyph glyph-name="Iotatonos" unicode="&#x38a;" 
 />
    <glyph glyph-name="Omicrontonos" unicode="&#x38c;" 
 />
    <glyph glyph-name="Upsilontonos" unicode="&#x38e;" 
 />
    <glyph glyph-name="Omegatonos" unicode="&#x38f;" 
 />
    <glyph glyph-name="iotadieresistonos" unicode="&#x390;" 
 />
    <glyph glyph-name="Alpha" unicode="&#x391;" 
 />
    <glyph glyph-name="Beta" unicode="&#x392;" 
 />
    <glyph glyph-name="Gamma" unicode="&#x393;" 
 />
    <glyph glyph-name="uni0394" unicode="&#x394;" 
 />
    <glyph glyph-name="Epsilon" unicode="&#x395;" 
 />
    <glyph glyph-name="Zeta" unicode="&#x396;" 
 />
    <glyph glyph-name="Eta" unicode="&#x397;" 
 />
    <glyph glyph-name="Theta" unicode="&#x398;" 
 />
    <glyph glyph-name="Iota" unicode="&#x399;" 
 />
    <glyph glyph-name="Kappa" unicode="&#x39a;" 
 />
    <glyph glyph-name="Lambda" unicode="&#x39b;" 
 />
    <glyph glyph-name="Mu" unicode="&#x39c;" 
 />
    <glyph glyph-name="Nu" unicode="&#x39d;" 
 />
    <glyph glyph-name="Xi" unicode="&#x39e;" 
 />
    <glyph glyph-name="Omicron" unicode="&#x39f;" 
 />
    <glyph glyph-name="Pi" unicode="&#x3a0;" 
 />
    <glyph glyph-name="Rho" unicode="&#x3a1;" 
 />
    <glyph glyph-name="Sigma" unicode="&#x3a3;" 
 />
    <glyph glyph-name="Tau" unicode="&#x3a4;" 
 />
    <glyph glyph-name="Upsilon" unicode="&#x3a5;" 
 />
    <glyph glyph-name="Phi" unicode="&#x3a6;" 
 />
    <glyph glyph-name="Chi" unicode="&#x3a7;" 
 />
    <glyph glyph-name="Psi" unicode="&#x3a8;" 
 />
    <glyph glyph-name="Omega" unicode="&#x3a9;" 
 />
    <glyph glyph-name="Omega" unicode="&#x2126;" 
 />
    <glyph glyph-name="Iotadieresis" unicode="&#x3aa;" 
 />
    <glyph glyph-name="Upsilondieresis" unicode="&#x3ab;" 
 />
    <glyph glyph-name="alphatonos" unicode="&#x3ac;" 
 />
    <glyph glyph-name="epsilontonos" unicode="&#x3ad;" 
 />
    <glyph glyph-name="etatonos" unicode="&#x3ae;" 
 />
    <glyph glyph-name="iotatonos" unicode="&#x3af;" 
 />
    <glyph glyph-name="upsilondieresistonos" unicode="&#x3b0;" 
 />
    <glyph glyph-name="alpha" unicode="&#x3b1;" 
 />
    <glyph glyph-name="beta" unicode="&#x3b2;" 
 />
    <glyph glyph-name="gamma" unicode="&#x3b3;" 
 />
    <glyph glyph-name="delta" unicode="&#x3b4;" 
 />
    <glyph glyph-name="epsilon" unicode="&#x3b5;" 
 />
    <glyph glyph-name="zeta" unicode="&#x3b6;" 
 />
    <glyph glyph-name="eta" unicode="&#x3b7;" 
 />
    <glyph glyph-name="theta" unicode="&#x3b8;" 
 />
    <glyph glyph-name="iota" unicode="&#x3b9;" 
 />
    <glyph glyph-name="kappa" unicode="&#x3ba;" 
 />
    <glyph glyph-name="lambda" unicode="&#x3bb;" 
 />
    <glyph glyph-name="uni03BC" unicode="&#x3bc;" 
 />
    <glyph glyph-name="nu" unicode="&#x3bd;" 
 />
    <glyph glyph-name="xi" unicode="&#x3be;" 
 />
    <glyph glyph-name="omicron" unicode="&#x3bf;" 
 />
    <glyph glyph-name="pi" unicode="&#x3c0;" 
 />
    <glyph glyph-name="rho" unicode="&#x3c1;" 
 />
    <glyph glyph-name="sigma1" unicode="&#x3c2;" 
 />
    <glyph glyph-name="sigma" unicode="&#x3c3;" 
 />
    <glyph glyph-name="tau" unicode="&#x3c4;" 
 />
    <glyph glyph-name="upsilon" unicode="&#x3c5;" 
 />
    <glyph glyph-name="phi" unicode="&#x3c6;" 
 />
    <glyph glyph-name="chi" unicode="&#x3c7;" 
 />
    <glyph glyph-name="psi" unicode="&#x3c8;" 
 />
    <glyph glyph-name="omega" unicode="&#x3c9;" 
 />
    <glyph glyph-name="iotadieresis" unicode="&#x3ca;" 
 />
    <glyph glyph-name="upsilondieresis" unicode="&#x3cb;" 
 />
    <glyph glyph-name="omicrontonos" unicode="&#x3cc;" 
 />
    <glyph glyph-name="upsilontonos" unicode="&#x3cd;" 
 />
    <glyph glyph-name="omegatonos" unicode="&#x3ce;" 
 />
    <glyph glyph-name="afii10023" unicode="&#x401;" 
 />
    <glyph glyph-name="afii10051" unicode="&#x402;" 
 />
    <glyph glyph-name="afii10052" unicode="&#x403;" 
 />
    <glyph glyph-name="afii10053" unicode="&#x404;" 
 />
    <glyph glyph-name="afii10054" unicode="&#x405;" 
 />
    <glyph glyph-name="afii10055" unicode="&#x406;" 
 />
    <glyph glyph-name="afii10056" unicode="&#x407;" 
 />
    <glyph glyph-name="afii10057" unicode="&#x408;" 
 />
    <glyph glyph-name="afii10058" unicode="&#x409;" 
 />
    <glyph glyph-name="afii10059" unicode="&#x40a;" 
 />
    <glyph glyph-name="afii10060" unicode="&#x40b;" 
 />
    <glyph glyph-name="afii10061" unicode="&#x40c;" 
 />
    <glyph glyph-name="afii10062" unicode="&#x40e;" 
 />
    <glyph glyph-name="afii10145" unicode="&#x40f;" 
 />
    <glyph glyph-name="afii10017" unicode="&#x410;" 
 />
    <glyph glyph-name="afii10018" unicode="&#x411;" 
 />
    <glyph glyph-name="afii10019" unicode="&#x412;" 
 />
    <glyph glyph-name="afii10020" unicode="&#x413;" 
 />
    <glyph glyph-name="afii10021" unicode="&#x414;" 
 />
    <glyph glyph-name="afii10022" unicode="&#x415;" 
 />
    <glyph glyph-name="afii10024" unicode="&#x416;" 
 />
    <glyph glyph-name="afii10025" unicode="&#x417;" 
 />
    <glyph glyph-name="afii10026" unicode="&#x418;" 
 />
    <glyph glyph-name="afii10027" unicode="&#x419;" 
 />
    <glyph glyph-name="afii10028" unicode="&#x41a;" 
 />
    <glyph glyph-name="afii10029" unicode="&#x41b;" 
 />
    <glyph glyph-name="afii10030" unicode="&#x41c;" 
 />
    <glyph glyph-name="afii10031" unicode="&#x41d;" 
 />
    <glyph glyph-name="afii10032" unicode="&#x41e;" 
 />
    <glyph glyph-name="afii10033" unicode="&#x41f;" 
 />
    <glyph glyph-name="afii10034" unicode="&#x420;" 
 />
    <glyph glyph-name="afii10035" unicode="&#x421;" 
 />
    <glyph glyph-name="afii10036" unicode="&#x422;" 
 />
    <glyph glyph-name="afii10037" unicode="&#x423;" 
 />
    <glyph glyph-name="afii10038" unicode="&#x424;" 
 />
    <glyph glyph-name="afii10039" unicode="&#x425;" 
 />
    <glyph glyph-name="afii10040" unicode="&#x426;" 
 />
    <glyph glyph-name="afii10041" unicode="&#x427;" 
 />
    <glyph glyph-name="afii10042" unicode="&#x428;" 
 />
    <glyph glyph-name="afii10043" unicode="&#x429;" 
 />
    <glyph glyph-name="afii10044" unicode="&#x42a;" 
 />
    <glyph glyph-name="afii10045" unicode="&#x42b;" 
 />
    <glyph glyph-name="afii10046" unicode="&#x42c;" 
 />
    <glyph glyph-name="afii10047" unicode="&#x42d;" 
 />
    <glyph glyph-name="afii10048" unicode="&#x42e;" 
 />
    <glyph glyph-name="afii10049" unicode="&#x42f;" 
 />
    <glyph glyph-name="afii10065" unicode="&#x430;" 
 />
    <glyph glyph-name="afii10066" unicode="&#x431;" 
 />
    <glyph glyph-name="afii10067" unicode="&#x432;" 
 />
    <glyph glyph-name="afii10068" unicode="&#x433;" 
 />
    <glyph glyph-name="afii10069" unicode="&#x434;" 
 />
    <glyph glyph-name="afii10070" unicode="&#x435;" 
 />
    <glyph glyph-name="afii10072" unicode="&#x436;" 
 />
    <glyph glyph-name="afii10073" unicode="&#x437;" 
 />
    <glyph glyph-name="afii10074" unicode="&#x438;" 
 />
    <glyph glyph-name="afii10075" unicode="&#x439;" 
 />
    <glyph glyph-name="afii10076" unicode="&#x43a;" 
 />
    <glyph glyph-name="afii10077" unicode="&#x43b;" 
 />
    <glyph glyph-name="afii10078" unicode="&#x43c;" 
 />
    <glyph glyph-name="afii10079" unicode="&#x43d;" 
 />
    <glyph glyph-name="afii10080" unicode="&#x43e;" 
 />
    <glyph glyph-name="afii10081" unicode="&#x43f;" 
 />
    <glyph glyph-name="afii10082" unicode="&#x440;" 
 />
    <glyph glyph-name="afii10083" unicode="&#x441;" 
 />
    <glyph glyph-name="afii10084" unicode="&#x442;" 
 />
    <glyph glyph-name="afii10085" unicode="&#x443;" 
 />
    <glyph glyph-name="afii10086" unicode="&#x444;" 
 />
    <glyph glyph-name="afii10087" unicode="&#x445;" 
 />
    <glyph glyph-name="afii10088" unicode="&#x446;" 
 />
    <glyph glyph-name="afii10089" unicode="&#x447;" 
 />
    <glyph glyph-name="afii10090" unicode="&#x448;" 
 />
    <glyph glyph-name="afii10091" unicode="&#x449;" 
 />
    <glyph glyph-name="afii10092" unicode="&#x44a;" 
 />
    <glyph glyph-name="afii10093" unicode="&#x44b;" 
 />
    <glyph glyph-name="afii10094" unicode="&#x44c;" 
 />
    <glyph glyph-name="afii10095" unicode="&#x44d;" 
 />
    <glyph glyph-name="afii10096" unicode="&#x44e;" 
 />
    <glyph glyph-name="afii10097" unicode="&#x44f;" 
 />
    <glyph glyph-name="afii10071" unicode="&#x451;" 
 />
    <glyph glyph-name="afii10099" unicode="&#x452;" 
 />
    <glyph glyph-name="afii10100" unicode="&#x453;" 
 />
    <glyph glyph-name="afii10101" unicode="&#x454;" 
 />
    <glyph glyph-name="afii10102" unicode="&#x455;" 
 />
    <glyph glyph-name="afii10103" unicode="&#x456;" 
 />
    <glyph glyph-name="afii10104" unicode="&#x457;" 
 />
    <glyph glyph-name="afii10105" unicode="&#x458;" 
 />
    <glyph glyph-name="afii10106" unicode="&#x459;" 
 />
    <glyph glyph-name="afii10107" unicode="&#x45a;" 
 />
    <glyph glyph-name="afii10108" unicode="&#x45b;" 
 />
    <glyph glyph-name="afii10109" unicode="&#x45c;" 
 />
    <glyph glyph-name="afii10110" unicode="&#x45e;" 
 />
    <glyph glyph-name="afii10193" unicode="&#x45f;" 
 />
    <glyph glyph-name="afii10050" unicode="&#x490;" 
 />
    <glyph glyph-name="afii10098" unicode="&#x491;" 
 />
    <glyph glyph-name="Wgrave" unicode="&#x1e80;" 
 />
    <glyph glyph-name="wgrave" unicode="&#x1e81;" 
 />
    <glyph glyph-name="Wacute" unicode="&#x1e82;" 
 />
    <glyph glyph-name="wacute" unicode="&#x1e83;" 
 />
    <glyph glyph-name="Wdieresis" unicode="&#x1e84;" 
 />
    <glyph glyph-name="wdieresis" unicode="&#x1e85;" 
 />
    <glyph glyph-name="Ygrave" unicode="&#x1ef2;" 
 />
    <glyph glyph-name="ygrave" unicode="&#x1ef3;" 
 />
    <glyph glyph-name="endash" unicode="&#x2013;" 
 />
    <glyph glyph-name="emdash" unicode="&#x2014;" 
 />
    <glyph glyph-name="afii00208" unicode="&#x2015;" 
 />
    <glyph glyph-name="underscoredbl" unicode="&#x2017;" 
 />
    <glyph glyph-name="quoteleft" unicode="&#x2018;" horiz-adv-x="207" 
d="M31 942c64 0 116.333 -80.667 157 -242v-15l-24 -24c-21.333 4 -63 66.667 -125 188c-26 22.667 -39 46 -39 70z" />
    <glyph glyph-name="quoteright" unicode="&#x2019;" horiz-adv-x="207" 
d="M188 919c0 -23.333 -13.333 -46.667 -40 -70c-62 -121.333 -103.667 -184 -125 -188l-23 24v15c40.667 161.333 92.667 242 156 242z" />
    <glyph glyph-name="quotesinglbase" unicode="&#x201a;" 
 />
    <glyph glyph-name="quotereversed" unicode="&#x201b;" 
 />
    <glyph glyph-name="quotedblleft" unicode="&#x201c;" horiz-adv-x="363" 
d="M156 923c62 0 106.333 -49.333 133 -148c11.333 0 29.666 -36.333 54.999 -109l-8 -8h-23c-79.333 73.333 -136.666 151.333 -171.999 234v16zM31 892c52 0 90.999 -57.333 116.999 -172c18.667 -4.66699 34.334 -36 47.001 -94l-15 -15h-8
c-114.667 114 -172 202.333 -172 265z" />
    <glyph glyph-name="quotedblright" unicode="&#x201d;" horiz-adv-x="363" 
d="M203 908l-0.000976562 -16c-35.333 -82.667 -92.666 -160.667 -171.999 -234h-23l-8 8c24 72.667 42.333 109 55 109c26.667 98.667 71 148 133 148zM343.999 876c0 -62.667 -57.333 -150.999 -172 -264.999h-8l-16 15c14 57.333 29.667 88.666 47 93.999
c26.667 114.667 66 172 118 172z" />
    <glyph glyph-name="quotedblbase" unicode="&#x201e;" 
 />
    <glyph glyph-name="dagger" unicode="&#x2020;" 
 />
    <glyph glyph-name="daggerdbl" unicode="&#x2021;" 
 />
    <glyph glyph-name="bullet" unicode="&#x2022;" 
 />
    <glyph glyph-name="ellipsis" unicode="&#x2026;" horiz-adv-x="322" 
d="M33 102h7.99902c8.66699 0 24.334 -18.333 47.001 -55v-24l-24 -23h-23c-20.667 8 -31 26.333 -31 55v23zM130.999 102h7.99902c8.66699 0 24.334 -18.333 47.001 -55v-24l-24 -23h-23c-21.333 8 -32 26.333 -32 55v23zM228.998 102h6.99902
c8.66699 0 24.334 -18.333 47.001 -55v-24l-23 -23h-24c-20.667 8 -31 26.333 -31 55v23z" />
    <glyph glyph-name="perthousand" unicode="&#x2030;" 
 />
    <glyph glyph-name="minute" unicode="&#x2032;" 
 />
    <glyph glyph-name="second" unicode="&#x2033;" 
 />
    <glyph glyph-name="guilsinglleft" unicode="&#x2039;" 
 />
    <glyph glyph-name="guilsinglright" unicode="&#x203a;" 
 />
    <glyph glyph-name="exclamdbl" unicode="&#x203c;" 
 />
    <glyph glyph-name="uni203E" unicode="&#x203e;" 
 />
    <glyph glyph-name="fraction" unicode="&#x2044;" 
 />
    <glyph glyph-name="uni207F" unicode="&#x207f;" 
 />
    <glyph glyph-name="franc" unicode="&#x20a3;" 
 />
    <glyph glyph-name="lira" unicode="&#x20a4;" 
 />
    <glyph glyph-name="peseta" unicode="&#x20a7;" 
 />
    <glyph glyph-name="Euro" unicode="&#x20ac;" 
 />
    <glyph glyph-name="afii61248" unicode="&#x2105;" 
 />
    <glyph glyph-name="afii61289" unicode="&#x2113;" 
 />
    <glyph glyph-name="afii61352" unicode="&#x2116;" 
 />
    <glyph glyph-name="trademark" unicode="&#x2122;" 
 />
    <glyph glyph-name="estimated" unicode="&#x212e;" 
 />
    <glyph glyph-name="oneeighth" unicode="&#x215b;" 
 />
    <glyph glyph-name="threeeighths" unicode="&#x215c;" 
 />
    <glyph glyph-name="fiveeighths" unicode="&#x215d;" 
 />
    <glyph glyph-name="seveneighths" unicode="&#x215e;" 
 />
    <glyph glyph-name="arrowleft" unicode="&#x2190;" 
 />
    <glyph glyph-name="arrowup" unicode="&#x2191;" 
 />
    <glyph glyph-name="arrowright" unicode="&#x2192;" 
 />
    <glyph glyph-name="arrowdown" unicode="&#x2193;" 
 />
    <glyph glyph-name="arrowboth" unicode="&#x2194;" 
 />
    <glyph glyph-name="arrowupdn" unicode="&#x2195;" 
 />
    <glyph glyph-name="arrowupdnbse" unicode="&#x21a8;" 
 />
    <glyph glyph-name="partialdiff" unicode="&#x2202;" 
 />
    <glyph glyph-name="Delta" unicode="&#x2206;" 
 />
    <glyph glyph-name="product" unicode="&#x220f;" 
 />
    <glyph glyph-name="summation" unicode="&#x2211;" 
 />
    <glyph glyph-name="minus" unicode="&#x2212;" 
 />
    <glyph glyph-name="radical" unicode="&#x221a;" 
 />
    <glyph glyph-name="infinity" unicode="&#x221e;" 
 />
    <glyph glyph-name="orthogonal" unicode="&#x221f;" 
 />
    <glyph glyph-name="intersection" unicode="&#x2229;" 
 />
    <glyph glyph-name="integral" unicode="&#x222b;" 
 />
    <glyph glyph-name="approxequal" unicode="&#x2248;" 
 />
    <glyph glyph-name="notequal" unicode="&#x2260;" 
 />
    <glyph glyph-name="equivalence" unicode="&#x2261;" 
 />
    <glyph glyph-name="lessequal" unicode="&#x2264;" 
 />
    <glyph glyph-name="greaterequal" unicode="&#x2265;" 
 />
    <glyph glyph-name="house" unicode="&#x2302;" 
 />
    <glyph glyph-name="revlogicalnot" unicode="&#x2310;" 
 />
    <glyph glyph-name="integraltp" unicode="&#x2320;" 
 />
    <glyph glyph-name="integralbt" unicode="&#x2321;" 
 />
    <glyph glyph-name="SF100000" unicode="&#x2500;" 
 />
    <glyph glyph-name="SF110000" unicode="&#x2502;" 
 />
    <glyph glyph-name="SF010000" unicode="&#x250c;" 
 />
    <glyph glyph-name="SF030000" unicode="&#x2510;" 
 />
    <glyph glyph-name="SF020000" unicode="&#x2514;" 
 />
    <glyph glyph-name="SF040000" unicode="&#x2518;" 
 />
    <glyph glyph-name="SF080000" unicode="&#x251c;" 
 />
    <glyph glyph-name="SF090000" unicode="&#x2524;" 
 />
    <glyph glyph-name="SF060000" unicode="&#x252c;" 
 />
    <glyph glyph-name="SF070000" unicode="&#x2534;" 
 />
    <glyph glyph-name="SF050000" unicode="&#x253c;" 
 />
    <glyph glyph-name="SF430000" unicode="&#x2550;" 
 />
    <glyph glyph-name="SF240000" unicode="&#x2551;" 
 />
    <glyph glyph-name="SF510000" unicode="&#x2552;" 
 />
    <glyph glyph-name="SF520000" unicode="&#x2553;" 
 />
    <glyph glyph-name="SF390000" unicode="&#x2554;" 
 />
    <glyph glyph-name="SF220000" unicode="&#x2555;" 
 />
    <glyph glyph-name="SF210000" unicode="&#x2556;" 
 />
    <glyph glyph-name="SF250000" unicode="&#x2557;" 
 />
    <glyph glyph-name="SF500000" unicode="&#x2558;" 
 />
    <glyph glyph-name="SF490000" unicode="&#x2559;" 
 />
    <glyph glyph-name="SF380000" unicode="&#x255a;" 
 />
    <glyph glyph-name="SF280000" unicode="&#x255b;" 
 />
    <glyph glyph-name="SF270000" unicode="&#x255c;" 
 />
    <glyph glyph-name="SF260000" unicode="&#x255d;" 
 />
    <glyph glyph-name="SF360000" unicode="&#x255e;" 
 />
    <glyph glyph-name="SF370000" unicode="&#x255f;" 
 />
    <glyph glyph-name="SF420000" unicode="&#x2560;" 
 />
    <glyph glyph-name="SF190000" unicode="&#x2561;" 
 />
    <glyph glyph-name="SF200000" unicode="&#x2562;" 
 />
    <glyph glyph-name="SF230000" unicode="&#x2563;" 
 />
    <glyph glyph-name="SF470000" unicode="&#x2564;" 
 />
    <glyph glyph-name="SF480000" unicode="&#x2565;" 
 />
    <glyph glyph-name="SF410000" unicode="&#x2566;" 
 />
    <glyph glyph-name="SF450000" unicode="&#x2567;" 
 />
    <glyph glyph-name="SF460000" unicode="&#x2568;" 
 />
    <glyph glyph-name="SF400000" unicode="&#x2569;" 
 />
    <glyph glyph-name="SF540000" unicode="&#x256a;" 
 />
    <glyph glyph-name="SF530000" unicode="&#x256b;" 
 />
    <glyph glyph-name="SF440000" unicode="&#x256c;" 
 />
    <glyph glyph-name="upblock" unicode="&#x2580;" 
 />
    <glyph glyph-name="dnblock" unicode="&#x2584;" 
 />
    <glyph glyph-name="block" unicode="&#x2588;" 
 />
    <glyph glyph-name="lfblock" unicode="&#x258c;" 
 />
    <glyph glyph-name="rtblock" unicode="&#x2590;" 
 />
    <glyph glyph-name="ltshade" unicode="&#x2591;" 
 />
    <glyph glyph-name="shade" unicode="&#x2592;" 
 />
    <glyph glyph-name="dkshade" unicode="&#x2593;" 
 />
    <glyph glyph-name="filledbox" unicode="&#x25a0;" 
 />
    <glyph glyph-name="H22073" unicode="&#x25a1;" 
 />
    <glyph glyph-name="H18543" unicode="&#x25aa;" 
 />
    <glyph glyph-name="H18551" unicode="&#x25ab;" 
 />
    <glyph glyph-name="filledrect" unicode="&#x25ac;" 
 />
    <glyph glyph-name="triagup" unicode="&#x25b2;" 
 />
    <glyph glyph-name="triagrt" unicode="&#x25ba;" 
 />
    <glyph glyph-name="triagdn" unicode="&#x25bc;" 
 />
    <glyph glyph-name="triaglf" unicode="&#x25c4;" 
 />
    <glyph glyph-name="lozenge" unicode="&#x25ca;" 
 />
    <glyph glyph-name="circle" unicode="&#x25cb;" 
 />
    <glyph glyph-name="H18533" unicode="&#x25cf;" 
 />
    <glyph glyph-name="invbullet" unicode="&#x25d8;" 
 />
    <glyph glyph-name="invcircle" unicode="&#x25d9;" 
 />
    <glyph glyph-name="openbullet" unicode="&#x25e6;" 
 />
    <glyph glyph-name="smileface" unicode="&#x263a;" 
 />
    <glyph glyph-name="invsmileface" unicode="&#x263b;" 
 />
    <glyph glyph-name="sun" unicode="&#x263c;" 
 />
    <glyph glyph-name="female" unicode="&#x2640;" 
 />
    <glyph glyph-name="male" unicode="&#x2642;" 
 />
    <glyph glyph-name="spade" unicode="&#x2660;" 
 />
    <glyph glyph-name="club" unicode="&#x2663;" 
 />
    <glyph glyph-name="heart" unicode="&#x2665;" 
 />
    <glyph glyph-name="diamond" unicode="&#x2666;" 
 />
    <glyph glyph-name="musicalnote" unicode="&#x266a;" 
 />
    <glyph glyph-name="uniF001" unicode="&#xf001;" 
 />
    <glyph glyph-name="uniF001" unicode="&#xfb01;" 
 />
    <glyph glyph-name="uniF002" unicode="&#xf002;" 
 />
    <glyph glyph-name="uniF002" unicode="&#xfb02;" 
 />
    <glyph glyph-name="uniF004" unicode="&#xf004;" 
 />
    <glyph glyph-name="uniF005" unicode="&#xf005;" 
 />
    <glyph glyph-name=".null" 
 />
    <glyph glyph-name="nonmarkingreturn" 
 />
    <glyph glyph-name="adieresis.001" 
 />
    <glyph glyph-name="uE0007" horiz-adv-x="259" 
d="M164 592c46.667 0 70 -21 70 -63l-156 -500c0 -20.667 -10.333 -31 -31 -31c-31.333 0 -47 10.333 -47 31c0 66.667 47 244 141 532c2 20.667 9.66699 31 23 31z" />
    <glyph glyph-name=".notdef.001" horiz-adv-x="2020" 
d="M0 0v2500h2000v-2500h-2000zM63 63h1875v2375h-1875v-2375z" />
    <glyph glyph-name="odieresis.001" 
 />
    <glyph glyph-name="udieresis.001" 
 />
    </font>
</defs>
</svg>
